<mxfile host="app.diagrams.net" agent="Mozilla/5.0 (Macintosh; Intel Mac OS X 10_15_7) AppleWebKit/537.36 (KHTML, like Gecko) Chrome/138.0.0.0 Safari/537.36" version="28.0.6" pages="3">
  <diagram id="-Vjf9iP-Ft99p73zjgBF" name="Logo">
    <mxGraphModel dx="1426" dy="1993" grid="1" gridSize="10" guides="1" tooltips="1" connect="1" arrows="1" fold="1" page="1" pageScale="1" pageWidth="827" pageHeight="1169" math="0" shadow="0">
      <root>
        <mxCell id="2XJ7cQTac4UZMb17rTHP-0" />
        <mxCell id="2XJ7cQTac4UZMb17rTHP-1" parent="2XJ7cQTac4UZMb17rTHP-0" />
        <mxCell id="LG0YUwEAxO-iSJfOZNFJ-0" value="" style="shape=image;verticalLabelPosition=bottom;verticalAlign=top;imageAspect=0;image=https://acis.org.co/portal/sites/default/files/awsasd.png;strokeColor=#7F00FF;fillColor=#9933FF;" parent="2XJ7cQTac4UZMb17rTHP-1" vertex="1">
          <mxGeometry x="290" y="-1150" width="180" height="99.31" as="geometry" />
        </mxCell>
        <mxCell id="LG0YUwEAxO-iSJfOZNFJ-1" value="" style="shape=image;verticalLabelPosition=bottom;verticalAlign=top;imageAspect=0;aspect=fixed;image=data:image/png,iVBORw0KGgoAAAANSUhEUgAAADkAAAA5CAMAAAC7xnO3AAAABGdBTUEAALGPC/xhBQAAAAFzUkdCAK7OHOkAAAMAUExURQAAAMogN8ohNswiNf3w6/Pv9cshNvjv8/Dt9Ozs8b4gQ8EgP8cgOel4Js0jNbwgRbkgSMMgPfeaI7cgSrUgTLEgUPaZI7MgTq0gVKsgVqkgWYAneoMneLogRr8gQsQgPOJiKuRoKc8yRfzbsN1RLdtMLq8gUogldIUmd8YgO8ggOONlKeKDkOFgKuZwJ+dyJ+BdK/jm6uZtKOOMl/STJN9aK+h1JvebKPehM91ULN5WLM0lN9hEL9Y9MNlHL30ofMdCX96arO7J09VdcdN5lN56icomO+qDN+VqKNpkcvOYNvbZ2vORJMwoPdxree2aafeoRfaYI/WWI/ebJe2QTOePet5YLNVBPtxOLdlLN9dBL9pJLrIgT8BPd9yiuK8qXc17nM6szOG1yO3d6dGjwqYgXL6Hs4g7iN3M4pM+htW717qQva+Ft9vE28qqzZ9in9fV4ZOSsKimv358oLW0ybqqzJSOsdjS46B9uMJHbNl+kbkuV74rT9mJn+CXp89Saeu9x7kpU8hJZ+aotPfQtMUpRvO4j92BkdJgdt11g+akr++wjuVxLs8+VPzt6Pzy5e+pivbLueiHaeV5Tf3p1PCnceNpOPWrZuWapOvD0e67wuV0OvKQKva8guRvP/CmfvapUtI8T/OdRPOdPvG9r+Z+Wuiep/efL95dPNxVPOp+MfaaJe6bV8ROceyGPfK1geSvwNpcYvnXvuWIf/LJzOh6MvKkWPPEsu2kjvvq39RIV+ePi9lXYs0sP+mbnumZi+21vddPS+eWjPfd39U7Mfnk5dZIQt9pY+iQf9tZUtQ8QN5xb+mamt5lXM8rNs4nNK2MvtWHos1zk8BUer1/qtGuy9vA1uDG2+zZ5ZdKjqxto68gU40seJY4fsGJs7lIdoo1gde10N3H3b9tmKwiWL1WgsWrz+fH2NKTsrNThq4+dK9SiJ5DhKVZlfHo8a1qoMeav6R5s5VDiO/o8de40+DQ47iFsuXS5Jpbm9C00oItfu3i7rJ+sKVuqYQ2had1rIrBgaEAAAAKdFJOUwD///+qIv9EZoj0RvLHAAACiUlEQVRIx73W5VfTURjA8d82/aHMzbGxTgZjmwOVEAajQwRBQpBQmtFht2J3d3d3d3d3z+7u7mf/gc994fP+c7733HPPvZei/mVck+ZNokjGtXWyb9xYIsjnp8TPJoArRXz/lPgFaLjBXyQy85N9Z2Hh9hVbROalfL5vHFamctaYk2C5C6ci4dzGTfzWrkqN4XAm4+B4FxfvxM1+HJhBKDhmisY0M9EbupwYXHJCs6ae40wuLcAOQcFFbgGBiyd6asCOqoOBDst1GW7b2kBXYxqJSm4MCmmbtiwgEOwcFNy0Pjgrc69O5wZr3oqSOyz7Dx3IhK4uIw0Fl7BYu9J3BmdlBYUca4mSWhaLtSf9yPHTR0+eOIWBHjRNaz0sLC6Xe/bMYQT0as6kaZ/d0AXbCpOMZjCYWh/oAk04iEoyGAwfLXRp2rIPkxxqbNAoYRp0mfT82BmYczdYbTRGj2bYhxmLSfZls53UI6ALErU9VJijij0s0kkNNnI4BkYoGzo6DoQuWKMHRkbxlMqwntC1W9TJ6yXg8cJ7Q1elYtdi4HSxs3P/cB7PvmZVP4w8L2wnjuohENjtANTOZtuEwnXQtdsIlHwokVy8AF2wfVDwiUwqzcm1uQuF4tW4S7bomSw3RyqR2NyzvVBXJVX80pr3SCaTSvJwxeLCN/oXBVar7E7BtUso+fp9mf7V0+cPiu7dvlWIi342GN6WGQx6/c2ryBezSq74qFAoDDeuIGH5l+81P+Vy+d3rl5Hyx9fQ6t+hofKSfCT8VFlT8u1XRf599B/mA0X9Ka0g+qlRVdVUOZmsdKAI5x0pLH1MKs/VJZXdSWG3LqSyaz1S2YkUtu9IKjvUJ5Wdqf8wfwFlW6gwv0g2/AAAAABJRU5ErkJggg==" parent="2XJ7cQTac4UZMb17rTHP-1" vertex="1">
          <mxGeometry x="430" y="-1127.69" width="77" height="77" as="geometry" />
        </mxCell>
        <mxCell id="lSDQ5niyPh7tZTyS8kDG-1" value="" style="shape=image;verticalLabelPosition=bottom;labelBackgroundColor=default;verticalAlign=top;aspect=fixed;imageAspect=0;image=data:image/png,iVBORw0KGgoAAAANSUhEUgAAAgAAAAIACAYAAAD0eNT6AAAAAXNSR0IArs4c6QAAAERlWElmTU0AKgAAAAgAAYdpAAQAAAABAAAAGgAAAAAAA6ABAAMAAAABAAEAAKACAAQAAAABAAACAKADAAQAAAABAAACAAAAAAAL+LWFAABAAElEQVR4Ae29e6xlR33vWWuf0y+bEN/B2O6GQcHdTB5Wm9fARcE2Eol5SIS/QhAyIBMn9nDHVlC4HqQk8IfhIiUMKMjcSWzgBoERglxpJEC6iZ0gYZuIi8PLLUMQbrjihm7bwKTj0O7XOXtNfdc+6/Q6u/djvX5Va639OVL3Xns9qn71qdqrfvX7/arKOf4gAAEIQAACEIAABCAAAQhAAAIQgAAEIAABCEAAAhCAAAQgAAEIQAACEIAABCAAAQhAAAIQgAAEIAABCEAAAhCAAAQgAAEIQAACEIAABCAAAQhAAAIQgAAEIAABCEAAAhCAAAQgAAEIQAACEIAABCAAAQhAAAIQgAAEIAABCEAAAhCAAAQgAAEIQAACEIAABCAAAQhAAAIQgAAEIAABCEAAAhCAAAQgAAEIQAACEIAABCAAAQhAAAIQgAAEIAABCEAAAhCAAAQgAAEIQAACEIAABCAAAQhAAAIQgAAEIAABCEAAAhCAAAQgAAEIQAACEIAABCAAAQhAAAIQgAAEIAABCEAAAhCAAAQgAAEIQAACEIAABCAAAQhAAAIQgAAEIAABCEAAAhCAAAQgAAEIQAACEIAABCAAAQhAAAIQgAAEIAABCEAAAhCAAAQgAAEIQAACEIAABCAAAQhAAAIQgAAEIAABCEAAAhCAAAQgAAEIQAACEIAABCAAAQhAAAIQgAAEIAABCEAAAhCAAAQgAAEIQAACEIAABCAAAQhAAAIQgAAEIAABCEAAAhCAAAQgAAEIQAACEIAABCAAAQhAAAIQgAAEIAABCEAAAhCAAAQgAAEIQAACEIAABCAAAQhAAAIQgAAEIAABCEAAAhCAAAQgAAEIQAACEIAABCAAAQhAAAIQgAAEIAABCEAAAhCAAAQgAAEIQAACEIAABCAAAQhAAAIQgAAEIAABCEAAAhCAAAQgAAEIQAACEIAABCAAAQhAAAIQgAAEIAABCEAAAhCAAAQgAAEIQAACEIAABCAAAQhAAAIQgAAEIAABCEAAAhCAAAQgAAEIQAACEIAABCAAAQhAAAIQgAAEIAABCEAAAhCAAAQgAAEIQAACEIAABCAAAQhAAAIQgAAEIAABCEAAAhCAAAQgAAEIQAACEIAABCAAAQhAAAIQgAAEIAABCEAAAhCAAAQgAAEIQAACEIAABCAAAQhAAAIQgAAEIAABCEAAAhCAAAQgAAEIQAACEIAABCAAAQhAAAIQgAAEIAABCEAAAhCAAAQgAAEIQAACEIAABCAAAQhAAAIQgAAEIAABCEAAAhCAAAQgAAEIQAACEIAABCAAAQhAAAIQgAAEIAABCEAAAhCAAAQgAAEIQAACEIAABCAAAQhAAAIQgAAEIAABCEAAAhCAAAQgAAEIQAACEIAABCAAAQhAAAIQgAAEIAABCEAAAhCAAAQgAAEIQAACEIAABCAAAQhAAAIQgAAEIAABCEAAAhCAAAQgAAEIQAACEIAABCAAAQhAAAIQgAAEIAABCEAAAhCAAAQgAAEIQAACEIAABCAAAQhAAAIQgAAEIAABCEAAAhCAAAQgAAEIQAACEIAABCAAAQhAAAIQgAAEIAABCEAAAhCAAAQgAAEIQAACEIAABCAAAQhAAAIQgAAEIAABCEAAAhCAAAQgAAEIQAACEIAABCAAAQhAAAIQgAAEIDBNYG36BN8hAAEIQAACfSPw4hcfuCi56Feu+N+udBsHDvzCruPH/+1c38oQWt4kdIZ9zE8N6/iJZz1j795dV0j+1I2uGI3c/klZ0ssnn6PLEpdcnrpxdk/iRo+lLn18cm38hHNJdjweu+OJGz+m86dPn3ts/yU//tnXv37sqcl9/A8BCEAAAiKg9+6/nP6lq5LR6IX+revfs6PLdH77PZskl41ccqk/8QydX/iXup+NXfpTl6Z6F3/buck7We/jM6fPfOvY0Yf+58LnB3oRBWCrYnc2tuSwb3DPH41G14as93Gafi9Jk4e9EvF36Xj8zX+39388gnIQsgbICwIQiEXgyqt+/SWTzt6/fxN3/ShJfjmkLOffv5tHxuPkW6ugGKykAlDs7P1I/TfTJL06dGMr27DVKL3J4T6vkBw59dSZ/7aqmmpZXtwHAQh0n4Dewf/f6St/YzRKX+BH5NeHHmxVITTkd/BKKAATzTJ5TeLWDieJe2Upk1GVFhL43vF4/IBXCO6Tlvq/7P3B32MlCFwBZAcBCNQi8NyrrvmttdHoLcnIvaFWAh14KFcIxuP03r6/fwepAJzXLpNX+ZH9m/re4S9r874hfiQdb37yB4/8w0PL7u3qdb0YNBqQktZUxknsBT6+WRylDE9iWDTymsStzLpv2TkYLyZ04OBL/tc9e/e8YBIrlByW33rxE4uv5rzTcfo3ffudi8W+i3bfOErW/mCI7+LJgMzd00cL7WAUgEkj2/NamfT7rF0ufg0suapAl3Tzw6eeOvuJPrkKDh6+9s7RKLl1SekaXZaSdOqp03/WJy6NClx4WArxibNXvtklyR9aurpWmXGOe6LIutstTdq+w7nl6JEH787z7OrnEEb7VdlOrAPph/qiDPRaAchN+y4Z3WD5YqvaCLpwf19exnpJrK+PPh+K2cmfn3rOKikBWed/7uA3Qv4+Vo1x3nZDKLJ5Xl1lPFE2n/vOoY72c/5lPtOx++vN8fhTP3zkwS+UuT/GPaMYmTbJUw3s4OFrbj549bX/tLa+/rXRaO2OkC+3JrKHfFYj6ouftu9HeinJOhIy7yp5eTlfVeX+pvfuu2jPp5um0afnT5w9+Kehfx/7Lt57n36nfeLUVNbJyN/WilWUUe6F4vcuHIvBk+cO/Ujv5CGa+qsyliVagxv1VWJT9fkQ9/dGAVAnps7syY1DJ7157a7QL7UQlWGRx3lF4OXvtki/aZpNfaNV85dp9uDhbrKoWpZl98tCpvpfdl/b1/XblOLRdrpdTU/KTkgrljhMoue7QUTv5kOHr/tcxqDMnPxuiB1MCv0eckVAv8lgGZfIqPMKgDQnNS6NZmO8zEow7MUt0sqliXatAZ5fLCkcxsw8GS67aDmNRuu3x8pcv9VVsQJk8RXBQU8WFgue7VSGssbq3byycVdTPBZ9lSIgq7UGIF35bXRSARCc3MwvzYnGtahZlb/WxQao9Q3Kl6ClO/0opasmuZZKmK2iFvt3o3nebZWn0+n44MrQ8mkFu9B5FvPTQEIDCllji+c5Xk5Ag7ETPi6nC0pA5xQAdfyY+Zc3oiZ3ZA3w7JV/04UGqBUPm5Sl7rOai1z32T4814XO11sBgsZ3xKiXzM0SeMU6lVOr1MUo72Rwdu2dWfxVhHLHKLNFnpmbrANKQGcUADRKi2Y2P035whWwEztAUMsdz5fS7opGx11QgKxK2AUFZxVcdslo7a1Wdbgo3RgzWfR78e6Ov1mFel3Evq1rmRLgebaVXp10OqEAaNSPRlmn+ho+403h8t/FjAvQKoaaLtOwJLUe78IouZbgJR6Kbf7PRYzZtnIZLD/9S/xNlunPSjvG7yXr/DWdNPD+KLPKP6Rz4hnzNxJdAZAvFj9S3CYt5StmI9TmRzEIDNVEHduqU6zLyeYuxTPDOc44R4h619zykBRVTvmsNWINme+q5OV/Ix+MVdboCsD62uivYhWefM8TiKkEaNWs85IEPPI7jgXMLVhWfq2D1wbLbElGWplzyS29vRyLs9afDwVNnf/FF+/7Jp2/HfGYVpWoCkAWiR1Bg7aryn6nvLa2/t9ijB4zf6Zfxjg0Pb3UYpTXvpzazrobf11xRdjQCM9Z5v9Qm3/JKigXIYv62LSeYqqx3kNRFYAuLWZRrIyVPfbKWKxV3Pwa2p+Jwb2LK6o15RDDL71I5lgvt0UytXEtBudQ7jJ1/rIKtsGJNJYT2Lt31xXL72r/jqgKgHYja79IpNiEgEbF/3r20CeapFHnWe1mWOe5ps8MLQ4g62w7ZlWLZSpv2jYWPR+Lcwh3mcpG57+o9tu/ph062091eYqRFYD0+ctF5I7QBGS2Db1QTqwtTmOM4izrs5sWjfCmckvGSjuGUqNtZ0NM/5MV0Jof6XeDQGQFoBsQkOJCAlqBMbTpNsb0Jvk3Q5fzQtrtnemiRWNoSpZqK1Jw4z3ttZTZKWmZWlkBZ1/l7NAIxFUAkgQXQIdblB/lBN05L/T0phx9N0fNuXQVP7s4s2FgSpZqJEZwo7X5X37/bCe/ik2O2/tLIK4C0F9uKyG5pqeEdAWEnN5UrMAujpqL8pU91mItXR29DUnJirFmhg+S/Z6l+V9tR7OAyrY17hsGgfVhFCNQKfxUtbFLf+rS9AlvAnxMuWo3u3xLWx+he4XzVo2RSy4dytSZ0VryAV/ML4QgrOlNBw9f+UDoebFbJurbQpTRMg+tbLje0V/0lpIVpB1ZMlbaURY3Ssem1jht3zwauWdYs2uUvt6/6fg7vga+7dz4ifE4+Vbixo+dPn0uexfvv+THP5s3RVIKzvETz8rKl0fcK/DOl3m/f4tfnri1w2mSXt1VBboRtwUPd/R1sUBiw0vSsn2P7gNg0iPapEYNa1GjKiNK3vA0AtK0RzW0JHGv7IuCoB+Elmo+euTBu8uUt4V75Oe8toV0yiexZaK2HGGVF6b+nZ2eVttF10RN1DH8/+k4NVszfrIaa3JrTRx2j2UdfvqZ8Ti9V9bBeZ17LsCx/GDG5+TZY09tXfqfM27ZPqWYoMn7WsqBD2D1bXeoisFqKgC+YaWp+1LqNo9Ii9TOWvNe/osa1XaLWXBQaHhqdNsjICkG/3L6l67aGk28OfSod4HIF1waJaP3e3nvWfYDvODBGifk5/SLj9R4stkjW1HdoZScZsLOfTrp7MqGeoGqzYdoQ3PxtHQhuP/fv6+sZsmos1PAb0toGiczGYSlH9J7oPhO/mHjlMsnsJXvDiVBnCbviOSwb8tv6ssAblmpV0YB0BQaP7K/T5q01Y9pGezi9S3F4CF/Tv/unjSw3TeOkrU/6Fzj8iNkvwvYm507Zt5B6sfn9xn/XniNu/9T1bqsRKrtTzZfOratBOtc3/4i+f/NFsnad9HuG7tQB3o/j8fuAz985MFOto8tpSB//92WKwSyBgVXCFussMEqALk5v6z5qEWmtZLaamDv9Q+/VyY5befaqYaVJH/oZct/ALXKWPoh+TuTtTtK39/CjZlW71xv4wBidExVsW+5KDr5gi9blmSUvKbsvW3dp3dYW2kV05FF5smNsL+zYv46Vsfv3a3v7MKgbFq2Rd8LCsH24M0Hh9xQd+AiK/Si/KyuDUoBmIzy3T0xzUdtVNSWFvwFvdSzyFw/Am8j3SZpqGFLnhA/1MzfOXJBFQBZXaTVb/2wm6CK8myUwLTKJc1cFFJye/wX3s1iNSo+cfa57/RBcNH+xuPN9xw98pWetwdvF/VWSw8xG7zpHZmM1t7qg14rxVQo1qypu7lORUasfi+uj6avI3TxGY301ZBO/vzUc3yg2nUKVuvrS7xYLh2rs336rkef40cAH5m+FuP7aLR+e4h8MyXD+z1D5FXMI8bqbsX8mxzHCEyrKm/XXRTLyqMRc+gyWC2ONSlLvNH/xsb49UPo/KfbjN5dR488cNvT1x+92A9Ib8ks0dM3TX3X+z1WbExUBSCfSjfFY/lXRYf6Tn9zY+OlRx9+4FfUkIbS6U8XXg1DDUo/mOlrob/LJaEXR4h8/Q/HzO85T/4+dKJzZfd1M+9al873wVUxj5eCduddszpvtTjWJB7DSurF6WqwZmXVWJxzuKuT9/aDd6t/Uj81bxAnBeHUU6f/LJxkO3OKqgAoCn+nOIu/CaJgfv/h+y9Vpx/CHL1YonBX9YPRD8dPUww+Mi6WchIMWDxjc+zr2sTvuUjabHrmohs6ek2ui46KdoFY/XBVXCB2diKG/99qcSzFGM0upe1ZDWSGOlibR65oFZgoA94y4PsyWQgu2XX0RTF5RI0BOPXU2U/4KV93zAOn85kJJU0/dMnuHwSZhrZIltjX1FD8COq1kXfq8rMB7IMB9eJ7cuNQWOQ9jQPok+tiy8oSJpi09dYT1v+vmCYr03CMAGN1ekMf+S9qcpO6PJbP/Fp0a7BrUS0A6tCkBU2XVp3+tl8/M/E/eLfVD2E6765/lzY5i1koueUDDeEGUH1b+T8XsepTZ3q+HP2Zwhij4znPqf5RDP+/l/ae+hLPfzKGG0bv9Et2H33XfKm4EoNAVAVABVbQngImZBrRPx0P3a/ftKLFLEbnmMsdyn/ol1b+uzzPUJ99jAPYmsIYClHjfPrkssgLG6rN5/np02rzH0WpF/MJcTzeTG9nEBeCdLU8oisAElcNQyPbf7f3fzxCIylXgb+4+9EbY8UDhNo8x+oFuIhw30aoWWfagWmii5hOX+ujlSX0Mssy/9v5htPnT9eJ9XerWAZruYeeficUgBwynX9OYvmnWG1sjt+2/E6DOwKt677lInrAoAQLk+zTCLWfu+z1x2Wx3VD8Ii/bx0EOUr8nic1f6KmM8v3zbrepy6apdkoBaFqYVXs+llatRYFCxAFM6tPuRTivvfRphGpmjTGcbdI3l0Xm//dtfl57sTivAGmLdGMotzFm9FiwG2KaKAA9rlVp1QqWjFGEUHOirV6Ei5j1Kg7AyBozTjc/bOZi2pptsagOunQttP9fAXNW5v8YFqNYA5UutaGuyoIC0NWaKSlXjA5SooWaz529CA1Ho7Mw9yUOwHJkquWYtWPmLD5tnIvREdWV28zKMk8g7YVh9OeX/vVb3Ib9w/wflneV3FAAqtDq4L3qIGPMCAg5SvYjouCrAsaYKlW1eVmOTBWQazkLI3inWhVu8X4jK0sxi+JxthdG8USrx+nlrSa3JDFZM5bcwuWIBFAAIsJvK2ur5UIXyZcm6dWLrrd5LR1vfrLN9MqkFcrCUUaWefdYRabrpa1Rm9+l7Zvz8m58PnCnWlde+cwV81L3+crPeWvXoFY4bWG/l8oMeaA0ARSA0qi6e2OM1bVCBgLGeCGGtHDUb1lGK9NtmaAtuYdsP/X5OhfaVWFv7Rpd1oRH9WeTb1d/hidCEUABCEXaOB/NGzbO4oLkj594VrBtikO7OboeB2C5Mt14nGzvTW7J3dKFcUFjrXkitKvCOmI+cUlQF0Do/GpW88o+hgIwmKoPP11u795dV4TCF8PN0eU4AMtZGMWobds4gPQFodpP3XxCT1kssq8rc5ee8+0n2DuiS+XuiywoAH2pqSVyFkdtS25t7XLqRsF+3DFejF2OA7DamS73/+eNxDQOwBm5MHLhG36GXmVR1pbBRcwnSWCXQ8NKX7HHUQAGUuFnTp/ZNtuGKpJVENos+SdrHgR3c2jnw07+JW7tsIlgqduxAp1pHECgjaXqcgq9IFQIK1fVLdjrssuf60usRy7vqn2iAAykxq0WDlmMJ3RAkc3uaPPKGHrJ1HlyzDpvFaMwywdtGV9i6cqYxa3aubBLFsewclXjUe/uPsR61CtZ/59CAeh/HW6XwPJFvZ1J4SB0gE+MzYG6GAdguZzrbEuSXXyJlSuj0ExrH4b0/+u3G8b8nzxeG0jNB0MHUtYUcyUfQwEYVLXbvahnYQod4CMrR+iFRbrYQZmZpv0c9FmWJMuFacxcGbMabIVzof3/XrR7KohX+9bx2B2v/XDNB6VIhds7pKaQK/oYCsCKVnxvi224TOpsJt0LVLNao2De0r9aFXA2m+ZnrVwZTSUzU7LmCBbKupW48WNzRLA77fd+OHH2ys7G09gVvPspowB0v44qSBjYvBchwtdyNDoLdBfjAJLEvXKWrE3PzZvyZx2AaenSqMvESsmaJY+sWrMsL7PubXrOUplbJJv/Hd2FFWARoTjXUADicDfJNYZ5z6QgCxLNotIDbw7UpTgAS9P04lGonXsp9Gh7QfPavhTUMhHQqpUpc5HW5z9x9uCfbgPmoBMEUAA6UQ39FGLkkktjSG6/XOrOUnUpDsByadpFo1DLdSZCjrZ31uzsb6EVvuA7ek5N9ZxNof2zPhjw1oOHX/7u9lMmxboEUADqkuvgc1H8exE4zJqqZitGd+IArCKqly35azlFzcqlUbdNBF0Aak7gZV3ZyzwX/vdzXqrRaO2O5151zW+dP8NRTAIoADHp9z1vH9wTowiWndGs8igOoDP+S6Nd9Ob5/3MepqZj3466FAcQ0iIxTjc/nDMO9Rn69zNdrvX10ecPHr7m5unzfA9PAAUgPHOzHE+fPhc+wtesNPMTVme0bMQ6/+l6V7qwYE22AZDR1rSllvw1NB1bujaq1nhI/3/ooFaxMFXmSsJWUOChw9d9rjOKdUm5h3YbCsCAanT/JT/+2YCKs7Aoy0asCx+ucbELcQCWK6qVWfLX0nRs5dqoWtWh/f9luFctQ6n7AwYezpNHitaJcwe/EZr5PHlW8TwKwIBqXZr9gIqzsCiLI9YXPlrzYvw4AKu9F8quIDl7lcCaOKcfM3JtTGez7HtIRc8rVB9ZJo/V9eCBh3MKor0C1tbXvyZrQJfcQHPEHdxpFIDBVelqFCj0qoDdiAOwUkLKTfGzZN6dTWOsGF/4u7S0qFyY284zqsvQbrSdEuz8JmvAxU/b9yPNEsAtsJON5TcUAEu6pG1LILAZM2YcQOb/98GIFkAr+aEN4wAsXRxluFkynpV/7GC88XjjA7PkinlOswSe3Dh08uDha+/EImBfEygA9ozJwYhApY6rBRlCmoenxbVUPqqtDpcemZatre9WLo6y8lkynpZBo+/YLjvFH5R1/0zLb/1dawbIIiDXADECdrRRAOzYkrIxgfCrAoYzD0+js1I+qu5CZxt7EY+veFsxnq5Lfd8cjz8163zoc3710M5ZAYoM5BpQjMDBq6/9J7kHsAoU6TQ/RgFozpAUIhIIuSpgzDgAu13zyvn/8yrOVgs0Woo5Jt9J+cIpILHN/3l9/vCRB78QeofNPO8qn4oRkXtgEidwzf1aR4BYgSoEZ9+LAjCbC2d7QiAdb34ypKix/NRWc9PrLPE7b9fANuohpBm+KG9I/39Vq0tRTovjdHPzLRbpWqUpRdH/u0uxAnIRoAzUJ40CUJ8dT3aAQDX/dXOBY/ipLc2edUailmswhDTDF1tDYMXunmLesY8nsQDxpiQ2Kb8U41wZ8IpAZhmw/L00kbWLz653UajQMqnB7N2764rUja4Yjdz+Sf7p5c6NLktc4j+d8y+9K5zf/jbbAGd6Cdwtk+jYpT91afqE7vfLiWar8qVu0wdNJY9rpz6t1a/V+jIzqm7irzEBBVIdOnzor61GyBcKmJmJ33vhebszVrvlyfRbJxBNcQDeFGtSYDtXx2JxQyp2tnEUi8s57+olu4++68lzh97kX1xRlveeJ1eV87IM+PuvVdv0MQPfc36WkNY74H07n2Iy/9JwryiqVBt+aM3vbCOSGI3eKw3jdPwdKQpSEmSK1UIrTRvr855/XRqy5r7/7fujtyFtLqL1xUOV++nrj15cp+OsK5/MnBYKjhaiOXrkgdvqyGXZzmK0KQWZyc9ch0WVZ6R0HX34gV+p8kyoe0P/jkKVy4/e/Lt288OaNRRt5cVgha2W0eAtAPLtybw30fCT67e0xGqULO72Sscomczr9qMeb8Zybt1rrv7F6vSSSNLk4TYVA4sidCVNmbG9PzCYOBNz8bEvhMrQare8JgvRaBqbhVIiplLQQ76o9Y54csO+88/aS+C1K6q0UQUEemXTrF6ryNLqvdm7du0ON3J3PO/q67wykH5GbV/lbTWfHiY2SAVgMsJfe6s3Z12vH/Z6z0qZjUQS98sXKAbj8QPeGXFfW9aCHrbXmSJrNH7w8JUPhFLutszFQV4emT/TyELVZGlfxQF469UbZlZIw5Nb2/E+1DCZ0o9LoQv1jgi9dkVpCFs3/uLuR2/0roBX9tkVsLDMmTKQ3Kp1BjTYkiKrKZkaRIS06i2UMeDFnnWN88noRbnvot03+sm8N4Qw5c2XxO5K7uPathZ4bVYR2XoZazc3BcQ9uWGXf8dTvsfLZ7JS3gXl9m3MnwsSB2C2S543izZxN2W7B6ohGvzJNeeTvdsg6ZlJBtuIyDMPadmYWdglJ9UJHjj4rBdefPG+bw5WCSgwkBVrfTR6gyyIiiXSu/SS3T+4Z1WUAZtfcAGw9aFG+/KRan6o5okOtfOfydFrs2rAXjG4S4tlaFrMzPtW4GTIwCq1sVBzkK06J5lBmzQLy47MyuUxt7yBNiJqynyu/C1fkGK4ubnx2paT7Xxy+btU79FVmVHQWwVAHb8qSR2flS+y8y0WAbcJ6KWl2IntE8YHwaaNmXVOzZf0NVtG1iu2oaZyKZ9Qg4bQa1Y0+QlIwdvc2HhpkzT6/KysrRpY5QsPKUAylNIfklvvFIBix69KCgmLvDpOIGCAldXIvEhYLxyrzqkdi0m1VQSLZVt2bOb6mMo4VD7K1tJqMlWsVr5K3o2N8etbSazHiaif0SyjiWXg2jvVB/W4ODtE740CoJehdojSiJ+Of0cd8mWLQNAAK7OR+fnqNLMyNPT/5xJa8g6hYKkcofLRlMucW58+s6WCx+Nb+iSzpay+vdyqPmgoexP0QgGQ+cVHpv5I8C0rl7T7TSDkCCtEHIDV4jRtLeVrugpjAAVLrd3X45tCtPomUy5DyLcoj6NHHrw7cwd4xXHRfat0Tb//fG8CxaCFclm1zbjTCoBG/YKbLfJiNBWqbaCkF5dAyJGW2Qh9G6HN5jSKdN7OosGBIqWt4gBCKFjZSzvQe6XOkssNqqb1R6Vcnzx56oVW9d26wAETVAzaJFbg2jv7pgh0VgGQn0WjfgL8ArbkAWQVcqRlaT7O/P9GMS7ZFL7W6touDsBawbJaYnkareaaD2FamQJtvTXguvF48z3TZeR75k66tW+KQCcVAO3uJD/LKsxD5YfTLoGgIy1DM7Xlrnhtukrq7CZYtsatXCB5/lvrDeRfzT7bsriYCVgx4aNHvvJeggPnQ5OreqIIvPzdUuTn3xn/SucUAAX6+SC/u+KjQYI+EtBISyOuELJbmqmtdsVrm42twmXjAsnbRqj1BrSwTJ7nUD4VHHjy56ee03Z7GgoflUMxArJid3nWQKcUAPn7CfQb0k8gTllCjriszNRWu+JNdqdsr16yOACj9Rc028dqBBXK/y+f+RDM/7NajFwCjx65/3cUIEhswCxC/pyPMclmDRx++bvn3BH1dCcUgDzYD39/1LYwmMzbmeNeDodVHIDVb8Fk6l7q7itHq/pdVq6QUP5/X+LBjf6na1EuJcUGZIqAkTI4nWffvssaoIXruhYkGF0BUOd/4uyVf2P1wutbQ0He5gSCrgpoEAdgaTK0mLpnGXhp5QoJ5f8PqYw2/+U0SyFTBPxWx4oPCLkqZzOpwz0ti5ZiAzStPVyui3OKrgD869lDnxCYxWJyFQIVCQRaFVBxAG1r9Vu74VUs8PLbrczRfYwDCDHgUCcoZXR5zQzrDsUHXLLr6IsyRSDbwXRY5WtaGk1rP9gRl0BUBUAQQvwQm1YYz/ePgImpew6GtpeTtRud2kzZs44DmIO99mlLC8sOoQIpoTvy7MgXtQkpAnINKFgwmzrIQkLbtbPlErh5+0Skg2gKgMwgghCp3GQ7cALZVLdAL5y24wCsotNNlSLDOIC2O2wrC8v0T8qU93RmHf4+WT/gK+/9/sP3X6o4AWYOTCpLs9005T1m1a3HyFw/6DVvBomRd6M8fYcyTsff8SO0x1KXPu7c+IlJeok/9t/G7vh0+n7L9P3nz6WXT45HlyUuudxHq18xSka/xnoH5wm1eaTtV72J3nz5aJ+HlpO9rQ3ZLaPTLfz/eZkVB2A1g2erw34oz6vpp52FpSCZf1e0ud5CIeVeH24x+Z2t2K83+8K8eZVdwFIC/GD4uKwlMSo2uAKQVfy5tU/FKGyVPOW/S9LkYU2b0mInZ06f+ZalP09cjp941jP27t11xeSFlxx2Ln0+CkKVWtt5r2WntCOnre1r22gfbbsTcjnVni2no+n3sf60fXl2rX5uddh3t5VoCLejlM+25B1iOpO2eEx1erfefZpOuzYavSVE3XSNp2ICvBLw+hhKQHAF4MTZ577TjxR+uWuVIHn0knRp+iFF7rbxMq9SRv0gXvxi5/yngoZ2jHb0A9F0qNSNrpisjpZcv8pac1muCk7zW3iWvb3RfVvTyhp3Um27E7YLZeyP1u/leVdf9zMLa1abLpG23QnbfKcO0vHmJ6dO8XUOgS1lQCPgL+TKgH4HmWUt0F4Nc0QLdlpKgLf+PSd0vxNUAdCPr3N+/8ysv/lh+etim+wmP4QL29zWDyRXCvRDea/ukrlYI8as0/DT0RSRfuHTq3tG3A4dPvTXYUYVsti08GcwrVBSWS7Zm5dauwz6zvoN+ffWPlu0sFhNK5wua+x3ybQ8ffleVAa8zLepz8jqLBndMPT3mx9EfNqX+bqQdRVUAUjWumX699OibtFWlyGBt5nXlrYoi0HmP5L2rGmVYTq8Nktil9bmePyp9dGo/U5pSuQ24gBUf09u2Chxsob8cErmtr9qBUZvrjdh3ZaFxS/Ndn3b5Z5Oz7uePjJ9ju/1CGwpUhr8vFcDnn0X7b5RdThEC6jKpKDAkH1SsFkAWdR/R0aoikLV1JSQoOs1/2pPzbMgVEtlWHfbzlEvsNoapRbOVD60WlbY2v+fF9R20ZvmFhYpWCE6DsuFkXLWq/ipAY82Ijo/tXB8y9BmFPj2eVcWCByogoMpAOtro78KVKb52Xhzvxan0PrVoX0t84XiiiUBKUWh1ilvurys2e53hlP0inVn+ptqwTVitaxwkYGOgymd0xmv0PeJMvDg3XqXP3390Yv1Xh+KMnDRRfs+GKoqgygA2VzHyMEcGgU9fdejz4kRaRmqMslnLoF75l5p9ULTUaqNeTrkiNTqJSz/r0bwTaorhP9f5ccS16SWqj8r3nqvSxn4/rfvTyabE3k3jB/wVU8t/hNy4cpiHkKSIAqAn8r2/hCFmZeHOv9TJ09fzw9zHqFhn7c1TZ9ntxUHcP5EhSNL87Sm6FUQpdGtljsxNneR2ChYRWCW5S/mw/F8AoobOHrkgdvyhYf6uAqhXz/m9vklbO+KuQKQaTIxR/9eC1Tnb2qebK8+SMmAgOo+m+JpkPaOJBvEAZiZp337D9n20/H4mzuYtPiliYvEUsEqFvGS3T8IZG0q5srxPAITZeD8KoR9CdBUrEqIKavmCoAWd5hXOebn/cvv5MlTLwz5AjQvExnUI2A8Dz4Xqm4cgJV5WlPzctlCfJpOf/NTweqWobn1YHnOVpstLc+ZO8oQyC0DecxAqNigMrLNuicZrb111vk2z5kqANK6Y05J29gcv43Ov83m0t+0Qq3LXn+ZWRvzdAyTtNWLtUkcQBPrQYVWz+i/AqxYt+YxA5pN0OW9Cfz6Lrc2jXtZxthUAThx9kqt9RzlT8E4qxjw51/4V0QB3vFMTUemhbLXXbXOanpaqPiHAgJ/aLProPKo7SppYD3YWbb53+Kwni8PV5YT0HtBwYOTHQu7t36DVs5dXor6d5gqAF6saArAU0+dMgVXHzlPxiIQxP9XIw7A0tcXwwJmaW2p4yrJ/P/Ga5AoxiQG61i/paHlq7pT4OBkBsH4ga6Ub5Ss/YGlLGYKQKigm1lw9KJf2R9jklw2iwnntBxuem8IDlXjAKy2p7WakreMoeWug3VW8gvh/3eBYkyWsed6MwKTOIEHr/NurFuapdTS0zUGFFVyNlMAapvqqkg/595Ldh9915xLgz89csmlgy9kzQKGWqClahxA1fvLFj+G/1+yycdqFgfgo6PLlj+/z2yDpTwD/2lp9Shkw2EgAlolNnMLaIO4yH9WO4SqWGYKQB1TXRuc9eJZ6fn+MadctlGBhmlYdkxFsasGvtaNGyjmOevYckrerPx2nrOLA6jsMmlhFcGdZZv65mcbhYoxmcqZr4YEZEW+ZNfRF1kps2VFt1RgzRSAOqa6skCW3Eck7hJAK345SPso20ll634bKW0xOyXL3QeruEzEV7MHLNu89/9/xjJ90o5HQIMGzRaIqgQYKrBmCoBVVPOyprDKkbjWU0aWse/D9VDto2wnZWXei/rC8g3B0t1SxWVixbfY1tPx5ieL3zkeHgG/wNNrYi0t3GT667KaMFEAQu5mVCzgqkfiHj/xrGcUeXB8IQGZ9UKsCli2k7Iz79mZ4C+keuGZzN1i5D+t4jKx43u+zDEtLeel4MiSgNrz5ubGay3zWJS2VSCriQKwd++uOHPRA+16tqiiYl4LMdqJWb7W8g4QsV06DsDIvNeJoDSr32OFyOgm+zOUaW+xZlqUkY172iUgRS/IVOIZYvu9AfbPON34lIkCUNb82Vj6CxJIj1xwaoVOBFrtrPdEQ3WOy+IALOen207FK9cELKddlplqaRlfkRPYHI8/lR/zOXwCp546/WdxSplebpGviQLgJ8WYCLsMwHjsji+7Z8jXE7d2eMjla6tsmcnWR263ld68dJYpwlZmPfn/ZbKcJ1eo85ZxAD7IeGlbL6MkNGVhW8am0vF82wTkQoxj9RmZrO9ipADYCLusMhM3fmzZPUO+XsU3OmQOZcoWInJ7WRyAncUmrv8/528ZB+BKuE6W8c/lrPupjqALilZd+XmuHoEhWX1MFIDEJVEsAKdPn1tZBSCbAWA0nazez6TbT1map/OSL48DsNkAyHIKXl620p9GcQBlIqOtFeJYCy2VZs+NJgTiWH3S51sUxkQBiLUhzf5Lfmxu1rWohDbSjLXy4nOvuua32pA/dBqhfsTz4gAsl8oOVbYydWapaC1yoYTw/4eaUlqGM/eEI2Bq2QpXjCwnEwUgcBm2s1tlc1yslRetolO3K9XoQG0lhC9vXhyAlcKmKY5d+h2cOX3mW0ZV6BZN8bP2/yvOYmX3G7Gq0B6lm6TJw0HFNdrjxUYBMBJ2GfBVXgjHeteoZez7eD2QCXfmjphmCpuRyb1u/WadpFnA5XyzqLX/33LL47qseS4cgdSlj4fLzeeUpk9Y5GejAFhIWiLNVV0IJzPDR/P/x5nxUaI5LL3Fr+5lvizw/BUxrfz/YXY8XAq3cEOaui8VvrZ2KLbzlP7l8RfNxDj11NlPNEuBp/tNYGzSIc9j4hVak/g2GwXASFuZByc/H20BolyASJ9ro9FbImXts40z46ON8ma+PG/KbSOtRWnMigOYrxgsSmn5NUuT+/LcZ99haWmZ5UqZxXu2ZPXOrvqKo/Wo8VQXCZgoAFbaShcBxpZJwU7Wo53YZTTO39wKMG3uN+ugvKm9i35py2C5abZqK/PiLlprRwFWkmxNVhIyIhB24GPlcjBRAKyEXVaTqRvFWYJ4mWCG162DnZaJHmvK5zK5yl637JzOy7DT3G/VQYVY2+B8mcof2SolO9luSTUz7qK8xIvvDLWS5GIpuBqXwPz4Exu5bFwOJgqAczbCLgPb14j0ZeWad12jf29Kvmve9RDnY035bKts6pxk0m0rvVnpTJv77QLUursUttWMi2m24j/r3Kx6qXXOW1nY/KcWuUE9NEpGvxa2QIlJ0KGRAmAj7DLgdi/WZTnHue5H/5+Ok3Mh10gzPgoSND8MEDlfNPtbLVATxppRD7dlHECRbfG4nqSLn+qqlWWx1FxtnUDgoOt0PP5m62XwCZooALHW5Ld6sVqAb5rmwcPX3Gw60ikpoFZkK3lrZ28LsZ977qs2W6Cmo/7/vNKtXmBKv+hSyTnn+bb9abmwUduykp4NAWslc5bUVpt7mSgA0dbkr7BN6CzIfTnXBdN/kVWMH0Qx/6bHYUy6E1+1VcyG1VS7pmzz5y0Z77T8zYwJyMVo/NmlVRYbF4YEahFIRmtvrfVg3Ye8cm+1uJeJAlC3nG08Z/WCbUO2ttLohOm/UJjiCKxwuleHfmT3EUuBZa2ZzFlfvotdHTksTex15Jn1jFbPm3W+6bnc8me5vLJkZPOfpjXV/+cnbSy5NWRJLJV7EwUg5qY8O0cDIaspTF4HD197ZxdM/ztLa9Op7czD9lsI0242Z73ELnZ1SmppYq8jz+xnjHYp3LL8zVoTYLYc9c4OaRe4egR46sTZK01nmMwibKncmygAttN+ZiE6f05z4vtukj5fmvNH0jwnnX9Y7fO8BAuOjDq1BTm2fimEaVemQ6uYCUsTe1uwLafPyfJn7f8P0UbaYk067RPILHhJ8oftp7w4RcvgXhMFQMWxmvazGNXk6mi0fnuZ+/p0z7+ePfQJv/lJUNNTWT5ltmYtm1as+0KsCmhVfzF/a1XqyyqQaSKDrFB2/n+5L6z8sFUYcm88AifOHvxTKwV+bqmMg3vtFAA3/ru5hTK+ICtAFm1tnE+I5KV1Hjp83ee6vtrfoq1ZQ3BqKQ/zVQFbknNHMqnbPLLjREe/WCpZ/sX8JmPXWC/bxnRT0PtEFlLNItIeIkN5T06Xs+3vYmWlwC+S1Xra6fqizJtck9ni4qfta5JEo2cvumjfB30Cv9MokcgP68d54tze+/wCR52fare1H8EXIiNrlH3sNltXeEvTel2Z5j+XxQFcO/96zSvG87ItzbA1S1z5sfx9srY+mbrr3ytu3b+jn3f1dT8bp5sf1gZHMd23lQsU6AFxW18ffT5QdjuysZ6ibGYBCLHC2g5SU180Yj54+OXvnjrdm6/SOL0C9aPgJqeahIZgdYndZmuid7am9bpSzX5uPE6+NftKd89qpcghdIwaFM18n3jlaTRau0PvG28ZuD/bXbS71RFUMnX+F1+8z2QRnmUFUbuzju0xUwCywgVYYW0RRDXqvjXmSbDfy98dS+NcxHPZtX0X7b5x2T2dv96zjV765pvuZSBdz9rErN+YOrIybkS5UfTued7zr0sVdDzEgOpZfGadywdhzti6NCvv7FyafmjutZYumCoAIaZWLeOgxtyXRqwG9+S5Qz+S4rKsXF28PkrW/qCLclWRqV/mdJXMaGpdFWgV7s3iAIz3XqggTqlbZRovdWOHb6qzVbp83mvr6187ePW1/6SYgSwKvsNlbFM0WY9jD8Iu2f0D87gTUwWgK9q+GnGXLQHSzmV6yxpcLG2zjV+Pl70vyta84mYmNx95O+961873T2HxBHs0oh6K+b/JYl1yG3jLwF1Pbhw6qYDkLr9Lm/4+twIk7489CNPCZCFmnZgqAJZRv1UrWp1r12IC1Nj0g8p8/d70VrVMXbx/CFMwrSNv26y3Pvn/83L3Kg6gR8pKztfyU24EvUt94OBP5SKQMqABjGWeIdLO38UaLMoNEiLPRXmceur0ny263tY1s1kAuYB+Y6AP+GjT6EAlj7Q63+EefuqpU++MFdQjM1q2mpRfUGJmQE4OrqefekHox2QdvGKJR66rGFN+qpZJo9MQo4Sqci27X5ZBP5pcdlsnrvfSwhKCnAIHk+RW/U40k8C7Cb7nfMyXfjuq3760S72rNGgpEx8RAqvy8HE9t4Tqn5IQhZJ5uwtaVbGsWjxlPN74gHVHpQ5fc+RHo/QFftuyG4bY6Re56lhsHz1yf2+nYKrOZO6cLlfXvstMePTIA7d1Ta4y8siv3PnfgncFff/h+y8tU56u3yMfvn8H3xVKzsm+D+l9UqC0NHyoDm1Z+c6/j5NXdVHJl1J/9OEHfmVZOdq6bm4BkKB+nfJ3+uH319oSuo10pPGtjdb9VMFrtEHJPZrn21YjlVY5WZY0uf7JDUXVtiFxf9IQW5kF2+IZuuQavRw6fOivuzQqmMVAo61Z53txTjOEkm6vb9EnV1DX6nxrwHet33DeTy9cd35WgVPnlqTJw1q4Sm4g7RorF5aVtUCdvfaHSN3oCg3AErd2+MkNuTC6Ruu8POPNNOgqtkFQaJStjrZrVgBhzxuqFi1SI9XoVZsveNfFcV1XI5UGu/+SH2eBYcdPPOsZiqidNCq336s3l/tULktccrl/zje0+P6jjY3x673b5faYsuy7aO//5fH1cnSqelcb8BtLvUHHXf2TqfWHXRVuiVx9cLP0WsFawj/G5czi45U+3xG/QYsQ+femkyvoeVcf8gsRjb/jf2+PpS59fCLb+InJZ/J48V08Oaff5+gKHft0/DtYf3oP6290mT9+/igZ/Zrv7J+xFqSHm+Tc9H9Z9H74yINBF1ML4gIQGI2KFWDRFBLPLyagzl+NqAu8T/781HP6agXouhsgtKlwcaurflUWIgW/Vn8y3BNPX3/0YqvRabhSTHIK7QIIXb6+56ff8yW7jr4odHsznQVQrBRZASZ+oeJZjtskoOCRXIPsAu8tK0CbRQyWln6InW6vkRfZaloRmWLY4emWsgSGfhk3Zcrz/SWQbm6+JUZ7C6YAqGqyWID+1lGnJVfnf/TIg3cXhYzNW0E2/Z4i1N1FdoZgnu6yj31zPP5U8bfEMQSsCOjdbR2MPk/2oArAZFSafmSeMJyvR2A83nzPdOevlLphBejv8sBdXgHuzOkzvVtT/8LWnXZ2F8OuLGJ2ITPODImA/P6z3t2hyhhUAVChLtl99F3yd4Qq4NDzmXT+X3nvvHLGtgIo8naebF0/31kztfEe4aHqpas77Mn1E8Mca8k9D6SzzIO0qxGQmyn2NN7gCoB+WKdOnr7eh3FmUfXVkHF3kcDE7D+/89e9sgKooRWfC3msmREh82s7ry6aqdPUfantcsZIr7MKlp8WHIOHZZ6azWSZPmlXIyAl8xd3P3pjtafavzu4AqAi6Ie/ubnx2vaLszopKtq/rOlIKx/GI9NdP3oZJtb7cZeRYfoeTVGcPtfX711UZrpqmWhSx31cMrpJebv8rDp/v9HPa7pgZYqiAKhyNDJVJ9bliuqqbJsbGy/No/3LyCiFS76mMve2fU/fl1JVO22bSdP0htRBdU2ZkXsys0w0raSOPa/OJqYlsGM4oomjOuhK5y8I0RQAZa5OTD5sHfO3nIBeTppbX6dTCrW5RLEUqts6shbT6MJx116cQ+qgfIzKN7tQx9syDHjzHy19vl1ODoIT0PtQS6R3YeSfFz6qAiAhjh75ynu79oLN4XTpM9Mc/UIRdV/+EyvA+JZQZZpEty6OTwglS9N8ujQlbGi/la4piH23WC1q62LNgGsRIbtrZeK17HKfn3J0BUCiKRhiaC+2+cirX5GrpA3NUTEDIThPOv9+blIzq3a6NCWsaybzWbyqngvRJsvIJAtb1xSSMnJXuYcBVxVaLdzrg93lsi0br9VCjpWS6IQCIJOIOjhpSZWkH/jNChaRyb+Kv38ZEtOAQN/YJ8GJw+n8xVPtM1YMxXR9ev/h4CLUO2NhSdMPTfMe4nfetWFqVYrt03c9WstlG0bCyDEA04WUliRtiSmCkz2hPY/r6pr8p9nm35WeRfClOkg19jaVlVzmLnx2YTaAFMIu+Q/bqpeuWFiGqFzNq6P8XSurx7x7OF+fQFtW2/oSlHuyExaAoqgywZ08eeqFetkVz6/KsbRGjfotTUatBl8WRv1D7Jzydpf5T+O/LAc3+hdftZvYbgDlP+T2m7fj4qfatDagkeUVRaBIpv6xBkJtW23rS7P8yWC7AS4X5cI7Dh6+9k6tJ3/hleGdkcKjVftC+iAPHb7uc032vFdj18qOq/LijLrDole0ZGEZKuvnXnXNb62vjz4f65cty2PI316sci7KV+17NFq/vck7YVH6Q74W4/3dBs9OKwAqoF4Mo7XkA9le0m2UuGNpSPMeb6a3xzCda8vbE+cOfqMyW436N8dviyFz7Oo7ePjl7x6N1u4ILccqdFCxFH6NgC0tbqHbStP8tIGXdvJclcFXE17q+P0yyx/o67uw8wpAXjlDUwQyk5sPOor94sn2Zb943zdd4p6Rs170uWqj/lksmlpOZqW56NyqdFC1FdJF8JZck+lfQXFLblvJy1l9nL3yzS5J/rDyIGHgxNRutK5C361GvVEA8vaUKQIjd/toNLo2P9enT3WgCijrUsOREnDRRfs+uND0t8Kj/lntS+bSZDT6oGU7VFvRAk5tB4LOKk+Xzh08fM3No2T0/rJKaR3Z+z5yq1PmJs9MrAJ7Xpu40W8ufE80yaTrz/p34Djd/LB2CR3Kb7J3CkDeRkK8gPO8mn7mo31FGXfZh6sX77S2n8se21LRtA6sntco6fiJZz1j795dV6RudMVo5PbXzUs7tmnTltOnzz02lBdMXRZ6Tr/x80zTy/2kpcvqpzd+wrnkca08CN/6FPMnJ+/f5DUuGd0waOtA1umnn+naoC2vh6afvVUA8oJvN0SXXG85GsvzK/spE5EWbdG67X17matT+5fTv3SVNhDpssJSti5C3CdmsApBmjy6RmBo1gFZh5xL79OqkF2y1FrUe+8VgCKUvONKRl4zDawQrFKjKTLnGAIQgECRgBSCPXv3vGA0Sl+QuLXDaZJe3VkrgR/ha0fK1G0eUYdfHPSsglI/KAWg2Ah1vFMhGF2WuORyPyq/wpu5Lxu55NLKPsbMHDT+jlcuvu01xCMy2Z45feZbfRvhT3PiOwQgAAFrAuddOhPFIEncKyu/gxsKOXFpuvv0/u6jdbZh8S94fNAKwAWlnXFCSkLRh6tb5IfVp3yF+y/58c90jHlXFPiDAAQg0B6BfJCmWA+lOomhUbxH9i0btOlo7sBNgzKX/tSl6RM+QPGx1KWP+3VUs3gPPVeMq9G7nPe4qPAHAQhAAAIQgAAEIAABCEAAAhCAAAQgAAEIQAACEIAABCAAAQhAAAIQgAAEIAABCEAAAhCAAAQgAAEIQAACEIAABCAAAQhAAAIQgAAEIAABCEAAAhCAAAQgAAEIQAACEIAABCAAAQhAAAIQgAAEIAABCEAAAhCAAAQgAAEIQAACEIAABCAAAQhAAAIQgAAEIAABCEAAAhCAAAQgAAEIQAACEIAABCAAAQhAAAIQgAAEIAABCEAAAhCAAAQgAAEIQAACEIAABCAAAQhAAAIQgAAEIAABCEAAAhCAAAQgAAEIQAACEIAABCAAAQhAAAIQgAAEIAABCEAAAhCAAAQgAAEIQAACEIAABCAAAQhAAAIQgAAEIAABCEAAAhCAAAQgAAEIQAACEIAABCAAAQhAAAIQgAAEIAABCEAAAhCAAAQgAAEIQAACEGiTQNJmYqQFAQhAAAIQgMCEwM//3F2+a81dlvM4t+me0PErPnXg377+9WNP5edjfaIAxCJPvhCAAAQg0BsC6sz37HFX+U7z0iR1z8wEX3P7/ed+f+7ZWwXZ71J3eZKc7/TLFjBNJ8qBS9zjW88cT517yG264+PEfffMGffI096xfa1ssgvvQwFYiIeLEIAABCCwagTU2e/d416RjNzVvpN8ie/UX1CnU7fg5pWCIz7dHcrByz524Kt1LAooABY1RJoQgAAEINB5Ai9+8YGL/uHGYwfX19x1zo/mfYf4ev/vcOcFnyGgVwzuTTfd5zc23f17bsuUhBl37TyFArCTB98gAAEIQGCgBDSy37fb/bbv7F/kzfiv68qovm3cciekifvoeOy+tMg6gALQNnnSgwAEIACBzhA4c6c7vL7bvbHPo/umMMeb7ta1/+D+83Q6KADTRPgOAQhAAAK9JnDuL9wrRyN3w5BH+VUrSLED5866G4ruARSAqhS5HwIQgAAEOkcgM+/vc7f5Tv/3h2rabwP62Ln/tHaL+xOlhQLQBlHSgAAEIACB4AQUxPfff+/Y6/xo/ybfmb0quAA9zXBz7N64/nb3ufWeyo/YEIAABCCwogTy0f7IHfvjFUXQqNh+euOrfQKfwwLQCCMPQwACEIBAKALnO35Hx98Q+v9+94GLMwVgC+r7R879bp6m9xP8l42z7s+LAQP5NT4hAAEIQAACoQjQ8bdPWm6ARGAv2usenhc0ocUFfOTgf0QRaL8CSBECEIAABOYToOOfCRYF1AAAGh1JREFUz6bpFQ3yR/v2uffP6/yVgQIrdu92D2/e5T6uymiaKc9DAAIQgAAElhHY+Av3Oxqcess05v5lsGpc9337s0eaJ1nmWbkHLt7nHvOKwPsUeVnmGe6BAAQgAAEIVCGggeb4Lve3ayP32UWD0yppcu9sAkl6l9/moOKflhkcp+42TSOo+Ci3QwACEIAABGYS2Px/3P85WnMfmXmRk60S0MJAiTQtmfnrpKwEfCDBO3a93X2pzvM8AwEIQAACEMhi0fa5+3xf1MuNePpYg+q/R36zgI/XFV6VtT5yfy8lQust102H5yAAAQhAYDUJyKV8EZ1/lMr3fbhzCvArTgGsK4miCk+dcn/0tHe4x+umwXMQgAAEILAaBNT5P3Tzsf+3rhV6NSjZlFKufN/vO+fXBb7JmwPubZrNdqCg9+MQKNiUJs9DAAIQGDaBr9107G10/vHqOLMA5Nm3ZQlQetl+xGN3x6wtCPP8+IQABCAAgdUl0GafY0FR/ZifC3+hRTudPSW+b7MWdigAAth2FCaKgEWzJE0IQAAC/Scw/kv3uGWnmXXgwjTpxI97S/c/b1E77jbd8TRxP9F3f/6n4w33k3ObvsP3f03c2Apo3LXmLhutu2f6DvZSP9X+mW7N7ffJ7u/S9sQKArxAAVDhtQCD5mDquK0/VQRTB9uiSToQgAAE+k+grgUgH5n7TuwhT2G7M9/ccN9VJ96kA7emqoD59TV3XbLmXu874Foz8NqQ0bO7d6YCoMQlpFYAbCOjYhooAkUaHEMAAhBYbQJeCXifHxn/fm4J6HPnXqcmM4Vgt3tHG4H4VfJX0P5cBUAJZXMzF+wTUCWz6XtlfmANgWkqfIcABCAAgVUkYGF5X8TRKwD/aaECoIetF2hAEVhURVyDAAQgAIFVIbDV334yhGsg2w2wLNi6vpqy6aMIlCXFfRCAAAQgMGQC1v2t2G2M3W8stQAUIctX4/0UpjszKTDBayZ/yvLCRfIcQwACEIDAqhCQJUCb71mW9+Qpd0UlBUDChPJTyCLglyl+HxsOWTYB0oYABCAAgS4SsLYCJLe4JFsJsErh1SHLdFDlmTr3es3ksKYiap6olI46afAMBCAAAQhAoJcENt03rOTOZlr4xCsrABJI5vmzZ93VeSJWQipdTQ3JFQEtUsQSw5a0SRsCEIAABLpAYGPT3W8mx9bqhrUUAAm15zZ35KnTXgloYQ+BMoWUIqB9ov/x5mMnFYsgH0mZ57gHAhCAAAQg0DcCv/6JA0etZPb9thZQqmcByIXSakujW9yrNZ8wPxfi02stf6wACRSBELTJAwIQgAAEQhP4+tePPWWW55Z7obYFoCiY303wT0LEBRTz1HFBEfi4VlOavs53CEAAAhCAAAR2EsjdC5VnAexMZuc3dcK7drtPK4Bv55Uw35hCGIYzuUAAAhCAgD2B9C7tU9T+n2YAKNVWLAC5eIoLeMndB16mNYbzcyE/fYletT5yfz++yz1MwGBI8uQFAQhAAAJ9IFCM22tVAVDh5bfwLoGbxpvu1lgwZIEgYDAWffKFAAQgAIGmBKxmvOUBgJIvMwM0FXTe8+f+wr1SI/J510Oexz0QkjZ5QQACEIBAEwJWqwEqXi9fabd1C0CxwMpEyw36zvdI8XyM46J7gIWFYtQAeUIAAhDoJwF1xlYj8nlE9uxxV8271uT8yz524Kv586YWgDwTfVova1jMq+yxpi+eOuXu1HTGss9wHwQgAAEIDJuAOvx9u91vJ2vu9Ro8FkurAW2IZeoVxyZXdjHvpseS3U/dvzpPJ5gCoAxD7SOQF67sp4IWfYV+OjeLlH2O+yAAAQhAYDgE1EeNRu6m6U5/Vgm1Eu65c+43Ffw+63rTcxaDZg16NW0/ly2oAqBMY08VzAs+61MVmo7dHafOuv+KVWAWIc5BAAIQGBYB9Unru90bta5MnZJpWXwLJUCz2XwH3eqUer/T7huLG+yZxgDMglmYKhh09cBZskyfy5cb1iqDHv7fKohx+h6+QwACEIBAvwnIn6/RvjrZ3bvdw3U7f1HQ8xY02u78JePpM+7LRVmDWwCKmXdplkBRruJxZhVI3EeJFShS4RgCEIBA/whsjfbf4Tv8321T+umRddO0LWYAqC8b/R8799DxHOL9FWYJ3BtPisU5Z1aBrb0HsAosZsVVCEAAAl0joM5UAXWF0X6rnb/K6+MGtv3qbZTfYgZAmrgvTsu2Pn0i9PctX/urLSIe2y6LN5dopcFXjf/SxwpgFWgbL+lBAAIQaI2ALMy+Y76h7dF+awIuSMjL/coFl2tdUqD79INRXQDTwmQBgrvc32nUPX2tq9+1wJAH+/F//7EDXzTdvamrAJALAhCAQEcIbE/fG7n3hOxHpqfXNcUha7MGnE3TyZ+fZf7XtagugFy4/DMLEPzogedqWl5+ruufqqS1kfvsP9587KSmbRA42PUaQz4IQGBoBPTeVaepAG7NnQ/Z+W+xPN4m0zY7f8kli/Us+TplASgK2IcAwaK808eab7lx1n3WYnrIdF58hwAEILBqBLLR/j53W5K634/Q4e/AXVxed8eFGl9kCW97ZsG8qYqdVQDETRV80T73yba1oRp1UvsRZhHURseDEIAABHYQ2Dbxz1ihb8eNAb+0bf73luT3edN8rTUJZhV7nvlf93ZaAcgL04cAwVzWRZ9qKOmmu4uFhhZR4hoEIACB8wS62Omfl865eaPr4j1Vjtv2/0+v/leUpRcKgATOAgR3u097gVtdGakII+QxwYMhaZMXBCDQJwJd7/Rzlm13/lqgSPFkefptfC6SsTcKQA5iKNaAvDz6RBko0uAYAhBYRQJ96fTzulnUseb3VP1sO/ZtmXuidwqAgG5ZA/5vL3xr0ySqVpTV/VIGvJvg87gJrAiTLgQg0BUCfev0xU3v6KdOubda7BfTtv9/vOluXfsP7j/Pq+9eKgB5YYZoDcjLpk+UgSINjiEAgSEQ6GOnn3Nf1qHm99X91GqFvlNuzc198pS7YpGi0msFQJDVmPo+U6BMY5EphwDCMqS4BwIQ6BqBPnf6Yqn377mz7gbLad1ipHUM2qo7yTy6xV29KL3eKwB54bSzkxbkyb8P+TNTBpz7POsMDLmWKRsE+k2g751+Tn9RFH1+TxufbVu0y1grBqMAqAKyBrfPvb+Paz/XbUBb6wx8Ues8v+xjB77KcsR1SfIcBCDQlIDis9Z3uzf6juUl/l+vY7T0bj13zv2m5ai/yLvt6X/LzP/Ke1AKQA5T1oBR4u6MvTpULk/IT28dyIIINzbd/aEabsjykRcEINAdAhp07d3jXpGM3KuHNPDyo/7/8tK7D9wWakDVtvm/rNVikAqAfh6aT/m1m4/dOaRGWfVnn69C6K0DX8I6UJUe90MAArMIaKqadqvzncfr/b/WAtZm5RXjXJvL+paVv23zf5nRv2QbrAKQg1dj9bEBfz7EhpqXsexnbh1gimFZYtwHAQgMxZe/rCY16j91yv3Roqj5ZWnUvd5m9L/KsXaLu6mMLINXAHIIbWtYebp9/SxaB86ccY/EaPR9ZYfcEBgyAVlPv/p7x17mR/k3+I12Xjd0V6rehZupe9Out7svxajXts3/ZUf/KuvKKAAqbKbJrliQoMpd5i+fWYC7oAwt7oHAsAgMKXivSs3IV+59/e8P5eufJVubg9Mqo3/JslIKQA5/yCsJ5mVs+olC0JQgz0OguwQ0GBpi8F5Z4nq/Wc/rLytLm+b/qssTr6QCkFfMKs8WyBmU/UQhKEuK+yDQPQLZCH/NXefW3ItWway/qAbKzI9f9Hyb19o0//t39L1+4Z9XV5FvpRUAgdqaLfBHbe6/XKUC+npvUSEghqCvtYjcQyRQ8OErUr/38/HbqiOZx2MF+c0rQ5vm/6qjf8m08gpAXjHSxFZhSeG8vG1/bgUVftFtum+wBkHbdEkPAvMJFM35Wx3+4KbmzS/98iuxg/wWSdiW+b/O6F9yoQBM1U42bTBxnxl65OtUsU2+5laCdOwePn3GfZmZBiaYSXSFCGyP7lP3q8laNg+/16vtWVddF4L85pWxTfN/3bULUABm1E7mFrjp2NtGa+4jMy5zqiaBopVgnLjvsjhRTZA8tjIECqP7q/3LepAL71hUZhfN/dPlbGvr37qjf8mDAjBdK4Xv+vHt2+duIz6gAKXlwy0rwUNyHUgpIJ6gZcAk1xsCet/s2eOuGvnRPcF69apNnaGP7v+PfVgGvS3zf93RvwijAJRoZ1uKwEptMlQCi9ktshT4lvkt/2N+SO6DzQ333T78oM2AkPCgCMjC+A83Hju4tu7N+COnkT2Beg1ruMt+/llF06yM3bvdw7OuVTnXZPSvfFAAKtBGEagAy+DWorVAgYa//okDR2Mu4GFQRJIcGAG96Isdvd9Y/gXEF7VbyV2a1le2ZG2Z/+tE/hdlRAEo0ih5zEJCJUEFuK1oLfBuhOO4EQJAJ4sLCFxgvp+M6onGv4BUeye6HOC3rJRtmP9Vfr/m/58sy2vRdRSARXSWXGOjoSWAIl/ethg4dzx3JWA1iFwpPc9eHf2uNXfZer6ojnPP9i9RIvED1msfAvwW4WjD/K+Bz0s+euC5TS2gKACLaqrkNRSBkqA6ctssq8F4w/0E5aAjFRRRjLyDz8z2qXtmFoznO3lM9xErZStr+bv7EuC3iFYb5v/NsXvj+tvd5xblU+YaCkAZSiXvYWnhkqA6fpssB17E4/5TsxOOp4n7iQIRz226J1jLoOOVt0Q8OvglgDp4eSgdf452/Jfu8SZxIOJRdcnfPO/pTxSAaSItfNfyjj669z1NKrkFMUjCiEDBgvDPPovMveB/lD+VFQElwQh6yWRndPD7/UvuJf5xfeKTL8mxC7cNreMXUw0S10bus034Vtnud1k+KADLCDW4nlkERu5PePE0gNjjR7cUhcd9EWRNyJSF3KKAwrC8YvPOfLTunul/Q5f6TWxkkt+/9aQ69Gf74/3ePH85yvZynn25Y4gdf87eB//9rW+3tWNG2jL95/J4WfizJkCMgDXhYaRfVBhUoi2lQYfH9Z+UB33IJSEFQse51UHHsd0Tmt/+5bcc+wXJoj8Fy02OnFMnnh/Tmeck+CwSGHLHr3JKob14n3usWOYqxwp+9FH/N1V5Ztm9KADLCLV4fUsReFcTDbBFcUhqRQhkikWxrImTVWL6b6JkTJ/VCDv/8yNtHTLazoHw2QaBoXf8OaMmwX/6DbcR9Z/Lkn+iAOQkAn5qGsj6bvcOv8Tw7wbMlqwgAAEIdIaARrQbZ92fr8oqn02C/5ou+DOv0lEA5pEJcF4mIb/XAEsMB2BNFhCAQDcIaAGbU6fcnbFdViFpyPq7PnJ/XydPy5UOUQDq1EjLz2wpAmw61DJXkoMABLpBQCZsvxjXHS/9+IG/arp4TTdKVE0Kb/7/eB2Lr9wjbU35myUxCsAsKpHOoQhEAk+2EICACQHfgR0Zj9372li0xkTAAInWDf4Tu6dOuestLSUoAAEaQJ0smEJYhxrPQAACXSCwKoF9ZVhrXZjRmvtImXuL97Q537+YbvEYBaBIo4PHBAx2sFIQCQIQmEmg7+v0zyxUw5N1Nv6xCvqbLgoKwDSRjn7XHOuv3XTsbaww2NEKQiwIrCgBmarTTXfXqvr3F1V7nY1/NsbuN3a93X1pUbptXUMBaItkwHRYTyAgbLKCAARmEli1aXwzISw5WTX4zzLif5aoKACzqPTkXB406JdI/X0WZ+lJpSEmBHpMgNF++cqT1fYfbz52suwToTt/yYUCULZ2On7fVtDgTb5Ca68z3fEiIh4EIBCJAKP96uCrBP/F6PxVIhSA6vXa6Se2ggbf6Oec/nGnBUU4CECg0wQY7TernrIb/7S9wU8VqVEAqtDq2b2KFRiN3A11FqDoWVERFwIQaIFAtmBP4j7ql+j97Kos0dsCtplJpHdpP6/FfzE7f0mGArC4fgZxVb6o//57x17nlQFcBIOoUQoBgXYJyMTvF+z5dKjo83al715qZfz/IaP95xFCAZhHZqDns8DB3e63kzV3i6/8wwMtJsWCAASWEPDD03t9p//xf/+xA19cxeV5l+BpfHne5j9yrZw7627ogoUFBaBxNfc3gTxegFkE/a1DJIdAFQLq9P2c/c+fOuv+q+USs1VkGuq90xsAyb0yTt1tXVoWGQVgqK2vYrmIF6gIjNsh0BMCGnFqoR46/fAVJlfAl99y7BeU8ys+deDfumZpQQEI3yY6nWMeL+BXHHw1wYOdriqEg8BcAnT6c9FwoUAABaAAg8OdBKQMfPX3jr1MMwm8m+B1LDa0kw/fINAlApj3u1Qb/ZAFBaAf9dQJKYkZ6EQ1IAQEtgkoej8du78lkG8bCQcVCKAAVIDFrecJZMrAmruO2QTnmXAEgRAEmLIXgvJq5IECsBr1bFrKwtTC1/sGxVLEprRJfNUI5Kb9jU13fxemjq0a/yGXFwVgyLUboWzFIELiBiJUAFn2ngAdfu+rsDcFQAHoTVX1U9DcOuDW3IuYVdDPOkRqWwJZh+/cQ35Rni+xEp8ta1LfSQAFYCcPvhkTKMQO4C4wZk3y3STgO/wj/t/n1eG/7GMHvtq1ueHdpIZUFgRQACyokmZpAtszC5x7iW+MxA+UJseNfSFAh9+Xmlo9OVEAVq/OO1viwroDr/QNUxYC9irobG0h2DwCeYfvp+c9fPqM+zJL7s4jxfnYBFAAYtcA+S8kkC1RnLpfVQwBQYULUXExEoGtLXS/qPn4dPiRKoFsaxFAAaiFjYdiEVBQ4Z497iq/OqGsBLgNYlXEiua7Nbp/yG26b4wT990zZ9wjjPBXtDEMoNgoAAOoxFUvgpSCvXvcK/z+BVf7Bo3rYNUbREvl9539vf7fQzLlb2647zIHvyWwJNMZAigAnakKBGmTQD7bIHMdOPds39AJMGwT8IDSYlQ/oMqkKJUIoABUwsXNfSaw7T6YxBTs943/JS51L2CToz7XajXZGdVX48XdwyaAAjDs+qV0JQho9sE/3Hjs4Nq6+9UtNwKKQQluXb4lD8zzMh7XfHt89V2uLWSLRQAFIBZ58u08gWnFwAssq8Gztz6ZohixBmW299kf95//rIC8NHE/8cc/HW+4n/z6Jw4cZXGdiJVD1r0hgALQm6pC0K4RyBWE0bp75mjLreBlzF0Ll+NaqFdjOzp3dfI+CI/OvR5LnoLAIgIoAIvocA0CDQko7mDXmrsscy+k7pk+KHG/T1L/XG5N8HEIK6Ms0Lk3bFA8DoEWCaAAtAiTpCDQlECuMCgdWRb8D/RSvwBSrjjodO6G0LH+MmVicuj/98pEflzXAiH/uddOHt9K53ienu+8/3n6nDe/Z9dlgtc1jdT1KVO8Ps9t+rT83ys+deDfMMuLBH8QgAAEIACBSATkupCioX86jiQG2UIAAhCAAAQgAAEIQAACEIAABCAAAQhAAAIQgAAEIAABCEAAAhCAAAQgAAEIQAACEIAABCAAAQhAAAIQgAAEIAABCEAAAhCAAAQgAAEIQAACEIAABCAAAQhAAAIQgAAEIAABCEAAAhCAAAQgAAEIQAACEIAABCAAAQhAAAIQgAAEIAABCEAAAhCAAAQgAAEIQAACEIAABCAAAQhAAAIQgAAEIAABCEAAAhCAAAQgAAEIQAACEIAABCAAAQhAAAIQgAAEIAABCEAAAhCAAAQgAAEIQAACEIAABCAAAQhAAAIQgAAEIAABCEAAAhCAAAQgAAEIQAACEIAABCAAAQhAAAIQgAAEIAABCEAAAhCAAAQgAAEIQAACEIAABCAAAQhAAAIQgAAEIAABCEAAAhCAAAQgAAEIQAACEIAABCAAAQhAAAIQgAAEIAABCEAAAhCAAAQgAAEIQAACEIAABCAAAQhAAAIQgAAEIAABCEAAAhCAAAQgAAEIQAACEIAABCAAAQhAAAIQgAAEIAABCEAAAhCAAAQgAAEIQAACEIAABCAAAQhAAAIQgAAEIAABCEAAAhCAAAQgAAEIQAACEIAABCAAAQhAAAIQgAAEIAABCEAAAhCAAAQgAAEIQAACEIAABCAAAQhAAAIQgAAEIAABCEAAAhCAAAQgAAEIQAACEIAABCAAAQhAAAIQgAAEIAABCEAAAhCAAAQgAAEIQAACEIAABCAAAQhAAAIQgAAEIAABCEAAAhCAAAQgAAEIQAACEIAABCAAAQhAAAIQgAAEIAABCEAAAhCAAAQgAAEIQAACEIAABCAAAQhAAAIQgAAEIAABCEAAAhCAAAQgAAEIQAACEIAABCAAAQhAAAIQgAAEIAABCEAAAhCAAAQgAAEIQAACEIAABCAAAQhAAAIQgAAEIAABCEAAAhCAAAQgAAEIQAACEIAABCAAAQhAAAIQgAAEIAABCEAAAhCAAAQgAAEIQAACEIAABCAAAQhAAAIQgAAEIAABCEAAAhCAAAQgAAEIQAACEIAABCAAAQhAAAIQgAAEIAABCEAAAhCAAAQgAAEIQAACEIAABCAAAQhAAAIQgAAEIAABCEAAAhCAAAQgAAEIQAACEIAABCAAAQhAAAIQgAAEIAABCEAAAhCAAAQgAAEIQAACEIAABCAAAQhAAAIQgAAEIAABCEAAAhCAAAQgAAEIQAACEIAABCAAAQhAAAIQgAAEIAABCEAAAhCAAAQgAAEIQAACEIAABCAAAQhAAAIQgAAEIAABCEAAAhCAAAQgAAEIQAACEIAABCAAAQhAAAIQgAAEIAABCEAAAhCAAAQgAAEIQAACEIAABCAAAQhAAAIQgAAEIAABCEAAAhCAAAQgAAEIQAACEIAABCAAAQhAAAIQgAAEIAABCEAAAhCAAAQgAAEIQAACEIAABCAAAQhAAAIQgAAEIAABCEAAAhCAAAQgAAEIQAACEIAABCAAAQhAAAIQgEDnCPz/9OL3ztf6tJAAAAAASUVORK5CYII=;" vertex="1" parent="2XJ7cQTac4UZMb17rTHP-1">
          <mxGeometry x="360" y="-1130.69" width="80" height="80" as="geometry" />
        </mxCell>
      </root>
    </mxGraphModel>
  </diagram>
  <diagram id="qbAWhpTGwnjX_Jh6kc88" name="Context View">
    <mxGraphModel dx="1678" dy="2138" grid="1" gridSize="10" guides="1" tooltips="1" connect="1" arrows="1" fold="1" page="1" pageScale="1" pageWidth="827" pageHeight="1169" math="0" shadow="0">
      <root>
        <mxCell id="0" />
        <mxCell id="1" parent="0" />
        <mxCell id="sSLhhHWNK1iGTZtY2KjP-4" value="" style="endArrow=classic;html=1;rounded=1;entryX=0;entryY=0.5;entryDx=0;entryDy=0;entryPerimeter=0;exitX=1;exitY=1;exitDx=0;exitDy=0;curved=0;" edge="1" parent="1" source="DrgDFBZRhsH2EOPDJstn-1" target="sSLhhHWNK1iGTZtY2KjP-2">
          <mxGeometry width="50" height="50" relative="1" as="geometry">
            <mxPoint x="390" y="-590" as="sourcePoint" />
            <mxPoint x="440" y="-640" as="targetPoint" />
            <Array as="points">
              <mxPoint x="330" y="-972" />
              <mxPoint x="330" y="-290" />
            </Array>
          </mxGeometry>
        </mxCell>
        <mxCell id="aSFgxo52_aUJRrx-5JbN-2" value="" style="endArrow=classic;html=1;rounded=1;entryX=0;entryY=0.5;entryDx=0;entryDy=0;entryPerimeter=0;exitX=1;exitY=0.75;exitDx=0;exitDy=0;" parent="1" source="DrgDFBZRhsH2EOPDJstn-1" target="aSFgxo52_aUJRrx-5JbN-1" edge="1">
          <mxGeometry width="50" height="50" relative="1" as="geometry">
            <mxPoint x="390" y="-735" as="sourcePoint" />
            <mxPoint x="440" y="-785" as="targetPoint" />
            <Array as="points">
              <mxPoint x="350" y="-987" />
              <mxPoint x="350" y="-416" />
            </Array>
          </mxGeometry>
        </mxCell>
        <mxCell id="FgE_VHjR9yrn-YzXBSdE-1" value="" style="rounded=1;arcSize=10;dashed=0;fillColor=none;gradientColor=none;strokeWidth=2;" parent="1" vertex="1">
          <mxGeometry x="483" y="-1145" width="327" height="945" as="geometry" />
        </mxCell>
        <mxCell id="FgE_VHjR9yrn-YzXBSdE-4" value="" style="rounded=0;whiteSpace=wrap;html=1;strokeColor=#7F00FF;fillColor=none;" parent="1" vertex="1">
          <mxGeometry x="569" y="-1119" width="161" height="164" as="geometry" />
        </mxCell>
        <mxCell id="FgE_VHjR9yrn-YzXBSdE-2" value="" style="dashed=0;html=1;shape=mxgraph.aws3.cloud;fillColor=#F58536;gradientColor=none;dashed=0;" parent="1" vertex="1">
          <mxGeometry x="503" y="-1168" width="52" height="36" as="geometry" />
        </mxCell>
        <mxCell id="FgE_VHjR9yrn-YzXBSdE-3" value="" style="points=[[0,0,0],[0.25,0,0],[0.5,0,0],[0.75,0,0],[1,0,0],[0,1,0],[0.25,1,0],[0.5,1,0],[0.75,1,0],[1,1,0],[0,0.25,0],[0,0.5,0],[0,0.75,0],[1,0.25,0],[1,0.5,0],[1,0.75,0]];outlineConnect=0;fontColor=#232F3E;gradientColor=#945DF2;gradientDirection=north;fillColor=#5A30B5;strokeColor=#ffffff;dashed=0;verticalLabelPosition=bottom;verticalAlign=top;align=center;html=1;fontSize=12;fontStyle=0;aspect=fixed;shape=mxgraph.aws4.resourceIcon;resIcon=mxgraph.aws4.kinesis_data_streams;" parent="1" vertex="1">
          <mxGeometry x="569" y="-1119" width="40" height="40" as="geometry" />
        </mxCell>
        <mxCell id="FgE_VHjR9yrn-YzXBSdE-5" value="" style="rounded=0;whiteSpace=wrap;html=1;strokeColor=#7F00FF;" parent="1" vertex="1">
          <mxGeometry x="589" y="-1059" width="120" height="80" as="geometry" />
        </mxCell>
        <mxCell id="FgE_VHjR9yrn-YzXBSdE-7" value="" style="rounded=0;whiteSpace=wrap;html=1;strokeColor=#7F00FF;fillColor=#9933FF;" parent="1" vertex="1">
          <mxGeometry x="604" y="-1029" width="10" height="40" as="geometry" />
        </mxCell>
        <mxCell id="FgE_VHjR9yrn-YzXBSdE-8" value="" style="rounded=0;whiteSpace=wrap;html=1;strokeColor=#7F00FF;fillColor=#9933FF;" parent="1" vertex="1">
          <mxGeometry x="624" y="-1029" width="10" height="40" as="geometry" />
        </mxCell>
        <mxCell id="FgE_VHjR9yrn-YzXBSdE-9" value="" style="rounded=0;whiteSpace=wrap;html=1;strokeColor=#7F00FF;fillColor=#9933FF;" parent="1" vertex="1">
          <mxGeometry x="644" y="-1029" width="10" height="40" as="geometry" />
        </mxCell>
        <mxCell id="FgE_VHjR9yrn-YzXBSdE-10" value="" style="rounded=0;whiteSpace=wrap;html=1;strokeColor=#7F00FF;fillColor=#9933FF;" parent="1" vertex="1">
          <mxGeometry x="664" y="-1029" width="10" height="40" as="geometry" />
        </mxCell>
        <mxCell id="FgE_VHjR9yrn-YzXBSdE-11" value="" style="rounded=0;whiteSpace=wrap;html=1;strokeColor=#7F00FF;fillColor=#9933FF;" parent="1" vertex="1">
          <mxGeometry x="684" y="-1029" width="10" height="40" as="geometry" />
        </mxCell>
        <mxCell id="FgE_VHjR9yrn-YzXBSdE-12" value="&lt;font size=&quot;1&quot;&gt;&lt;b style=&quot;font-size: 14px;&quot;&gt;Shard&lt;/b&gt;&lt;/font&gt;" style="text;html=1;strokeColor=none;fillColor=none;align=center;verticalAlign=middle;whiteSpace=wrap;rounded=0;" parent="1" vertex="1">
          <mxGeometry x="629" y="-1059" width="40" height="20" as="geometry" />
        </mxCell>
        <mxCell id="FgE_VHjR9yrn-YzXBSdE-13" value="&lt;font size=&quot;1&quot;&gt;&lt;b style=&quot;font-size: 14px;&quot;&gt;Kinesis Data Stream&lt;/b&gt;&lt;/font&gt;" style="text;html=1;strokeColor=none;fillColor=none;align=center;verticalAlign=middle;whiteSpace=wrap;rounded=0;" parent="1" vertex="1">
          <mxGeometry x="614" y="-1113" width="96" height="20" as="geometry" />
        </mxCell>
        <mxCell id="FgE_VHjR9yrn-YzXBSdE-16" value="" style="shape=image;verticalLabelPosition=bottom;verticalAlign=top;imageAspect=0;image=https://acis.org.co/portal/sites/default/files/awsasd.png;strokeColor=#7F00FF;fillColor=#9933FF;" parent="1" vertex="1">
          <mxGeometry x="60" y="-1048.31" width="107" height="58.62" as="geometry" />
        </mxCell>
        <mxCell id="FgE_VHjR9yrn-YzXBSdE-18" value="" style="endArrow=classic;html=1;entryX=0.006;entryY=0.555;entryDx=0;entryDy=0;exitX=1;exitY=0;exitDx=0;exitDy=0;entryPerimeter=0;" parent="1" source="DrgDFBZRhsH2EOPDJstn-1" target="FgE_VHjR9yrn-YzXBSdE-4" edge="1">
          <mxGeometry width="50" height="50" relative="1" as="geometry">
            <mxPoint x="189.61000000000013" y="-1009.7205012798388" as="sourcePoint" />
            <mxPoint x="233" y="-1049" as="targetPoint" />
          </mxGeometry>
        </mxCell>
        <mxCell id="DrgDFBZRhsH2EOPDJstn-1" value="" style="shape=image;verticalLabelPosition=bottom;verticalAlign=top;imageAspect=0;aspect=fixed;image=data:image/png,iVBORw0KGgoAAAANSUhEUgAAADkAAAA5CAMAAAC7xnO3AAAABGdBTUEAALGPC/xhBQAAAAFzUkdCAK7OHOkAAAMAUExURQAAAMogN8ohNswiNf3w6/Pv9cshNvjv8/Dt9Ozs8b4gQ8EgP8cgOel4Js0jNbwgRbkgSMMgPfeaI7cgSrUgTLEgUPaZI7MgTq0gVKsgVqkgWYAneoMneLogRr8gQsQgPOJiKuRoKc8yRfzbsN1RLdtMLq8gUogldIUmd8YgO8ggOONlKeKDkOFgKuZwJ+dyJ+BdK/jm6uZtKOOMl/STJN9aK+h1JvebKPehM91ULN5WLM0lN9hEL9Y9MNlHL30ofMdCX96arO7J09VdcdN5lN56icomO+qDN+VqKNpkcvOYNvbZ2vORJMwoPdxree2aafeoRfaYI/WWI/ebJe2QTOePet5YLNVBPtxOLdlLN9dBL9pJLrIgT8BPd9yiuK8qXc17nM6szOG1yO3d6dGjwqYgXL6Hs4g7iN3M4pM+htW717qQva+Ft9vE28qqzZ9in9fV4ZOSsKimv358oLW0ybqqzJSOsdjS46B9uMJHbNl+kbkuV74rT9mJn+CXp89Saeu9x7kpU8hJZ+aotPfQtMUpRvO4j92BkdJgdt11g+akr++wjuVxLs8+VPzt6Pzy5e+pivbLueiHaeV5Tf3p1PCnceNpOPWrZuWapOvD0e67wuV0OvKQKva8guRvP/CmfvapUtI8T/OdRPOdPvG9r+Z+Wuiep/efL95dPNxVPOp+MfaaJe6bV8ROceyGPfK1geSvwNpcYvnXvuWIf/LJzOh6MvKkWPPEsu2kjvvq39RIV+ePi9lXYs0sP+mbnumZi+21vddPS+eWjPfd39U7Mfnk5dZIQt9pY+iQf9tZUtQ8QN5xb+mamt5lXM8rNs4nNK2MvtWHos1zk8BUer1/qtGuy9vA1uDG2+zZ5ZdKjqxto68gU40seJY4fsGJs7lIdoo1gde10N3H3b9tmKwiWL1WgsWrz+fH2NKTsrNThq4+dK9SiJ5DhKVZlfHo8a1qoMeav6R5s5VDiO/o8de40+DQ47iFsuXS5Jpbm9C00oItfu3i7rJ+sKVuqYQ2had1rIrBgaEAAAAKdFJOUwD///+qIv9EZoj0RvLHAAACiUlEQVRIx73W5VfTURjA8d82/aHMzbGxTgZjmwOVEAajQwRBQpBQmtFht2J3d3d3d3d3z+7u7mf/gc994fP+c7733HPPvZei/mVck+ZNokjGtXWyb9xYIsjnp8TPJoArRXz/lPgFaLjBXyQy85N9Z2Hh9hVbROalfL5vHFamctaYk2C5C6ci4dzGTfzWrkqN4XAm4+B4FxfvxM1+HJhBKDhmisY0M9EbupwYXHJCs6ae40wuLcAOQcFFbgGBiyd6asCOqoOBDst1GW7b2kBXYxqJSm4MCmmbtiwgEOwcFNy0Pjgrc69O5wZr3oqSOyz7Dx3IhK4uIw0Fl7BYu9J3BmdlBYUca4mSWhaLtSf9yPHTR0+eOIWBHjRNaz0sLC6Xe/bMYQT0as6kaZ/d0AXbCpOMZjCYWh/oAk04iEoyGAwfLXRp2rIPkxxqbNAoYRp0mfT82BmYczdYbTRGj2bYhxmLSfZls53UI6ALErU9VJijij0s0kkNNnI4BkYoGzo6DoQuWKMHRkbxlMqwntC1W9TJ6yXg8cJ7Q1elYtdi4HSxs3P/cB7PvmZVP4w8L2wnjuohENjtANTOZtuEwnXQtdsIlHwokVy8AF2wfVDwiUwqzcm1uQuF4tW4S7bomSw3RyqR2NyzvVBXJVX80pr3SCaTSvJwxeLCN/oXBVar7E7BtUso+fp9mf7V0+cPiu7dvlWIi342GN6WGQx6/c2ryBezSq74qFAoDDeuIGH5l+81P+Vy+d3rl5Hyx9fQ6t+hofKSfCT8VFlT8u1XRf599B/mA0X9Ka0g+qlRVdVUOZmsdKAI5x0pLH1MKs/VJZXdSWG3LqSyaz1S2YkUtu9IKjvUJ5Wdqf8wfwFlW6gwv0g2/AAAAABJRU5ErkJggg==" parent="1" vertex="1">
          <mxGeometry x="140.5" y="-1029" width="57" height="57" as="geometry" />
        </mxCell>
        <mxCell id="Aep_bOEdLQ3YE0HaSGnB-7" value="" style="endArrow=classic;html=1;entryX=0;entryY=0.5;entryDx=0;entryDy=0;exitX=1;exitY=0.25;exitDx=0;exitDy=0;" parent="1" source="DrgDFBZRhsH2EOPDJstn-1" target="Aep_bOEdLQ3YE0HaSGnB-11" edge="1">
          <mxGeometry width="50" height="50" relative="1" as="geometry">
            <mxPoint x="410" y="-819" as="sourcePoint" />
            <mxPoint x="460" y="-869" as="targetPoint" />
            <Array as="points">
              <mxPoint x="400" y="-1015" />
              <mxPoint x="400" y="-825" />
            </Array>
          </mxGeometry>
        </mxCell>
        <mxCell id="Aep_bOEdLQ3YE0HaSGnB-11" value="" style="rounded=0;whiteSpace=wrap;html=1;strokeColor=#CC0066;fillColor=none;" parent="1" vertex="1">
          <mxGeometry x="569" y="-935" width="161" height="220" as="geometry" />
        </mxCell>
        <mxCell id="Aep_bOEdLQ3YE0HaSGnB-10" value="" style="points=[[0,0,0],[0.25,0,0],[0.5,0,0],[0.75,0,0],[1,0,0],[0,1,0],[0.25,1,0],[0.5,1,0],[0.75,1,0],[1,1,0],[0,0.25,0],[0,0.5,0],[0,0.75,0],[1,0.25,0],[1,0.5,0],[1,0.75,0]];outlineConnect=0;fontColor=#232F3E;gradientColor=#F34482;gradientDirection=north;fillColor=#BC1356;strokeColor=#ffffff;dashed=0;verticalLabelPosition=bottom;verticalAlign=top;align=center;html=1;fontSize=12;fontStyle=0;aspect=fixed;shape=mxgraph.aws4.resourceIcon;resIcon=mxgraph.aws4.sqs;" parent="1" vertex="1">
          <mxGeometry x="569" y="-935" width="40" height="40" as="geometry" />
        </mxCell>
        <mxCell id="Aep_bOEdLQ3YE0HaSGnB-3" value="&lt;font size=&quot;1&quot;&gt;&lt;b style=&quot;font-size: 14px;&quot;&gt;Standard Queue&lt;/b&gt;&lt;/font&gt;" style="text;html=1;strokeColor=none;fillColor=none;align=center;verticalAlign=middle;whiteSpace=wrap;rounded=0;" parent="1" vertex="1">
          <mxGeometry x="590" y="-833" width="120" height="20" as="geometry" />
        </mxCell>
        <mxCell id="Aep_bOEdLQ3YE0HaSGnB-12" value="&lt;font size=&quot;1&quot;&gt;&lt;b&gt;&lt;font style=&quot;font-size: 15px;&quot;&gt;SQS&lt;/font&gt;&lt;/b&gt;&lt;/font&gt;" style="text;html=1;strokeColor=none;fillColor=none;align=center;verticalAlign=middle;whiteSpace=wrap;rounded=0;" parent="1" vertex="1">
          <mxGeometry x="612" y="-925" width="40" height="20" as="geometry" />
        </mxCell>
        <mxCell id="T7bcI5QkthVrXsfkqc_y-1" value="" style="outlineConnect=0;dashed=0;verticalLabelPosition=bottom;verticalAlign=top;align=center;html=1;shape=mxgraph.aws3.queue;fillColor=#D9A741;gradientColor=none;" parent="1" vertex="1">
          <mxGeometry x="609.75" y="-795" width="73.5" height="48" as="geometry" />
        </mxCell>
        <mxCell id="T7bcI5QkthVrXsfkqc_y-2" value="" style="outlineConnect=0;dashed=0;verticalLabelPosition=bottom;verticalAlign=top;align=center;html=1;shape=mxgraph.aws3.queue;fillColor=#D9A741;gradientColor=none;" parent="1" vertex="1">
          <mxGeometry x="612" y="-881" width="73.5" height="48" as="geometry" />
        </mxCell>
        <mxCell id="Aep_bOEdLQ3YE0HaSGnB-4" value="&lt;font size=&quot;1&quot;&gt;&lt;b style=&quot;font-size: 14px;&quot;&gt;FIFO Queue&lt;/b&gt;&lt;/font&gt;" style="text;html=1;strokeColor=none;fillColor=none;align=center;verticalAlign=middle;whiteSpace=wrap;rounded=0;" parent="1" vertex="1">
          <mxGeometry x="596.5" y="-747" width="100" height="20" as="geometry" />
        </mxCell>
        <mxCell id="T7bcI5QkthVrXsfkqc_y-6" value="" style="rounded=0;whiteSpace=wrap;html=1;fillColor=none;strokeColor=#CC0066;" parent="1" vertex="1">
          <mxGeometry x="569" y="-695" width="161" height="214" as="geometry" />
        </mxCell>
        <mxCell id="T7bcI5QkthVrXsfkqc_y-7" value="" style="points=[[0,0,0],[0.25,0,0],[0.5,0,0],[0.75,0,0],[1,0,0],[0,1,0],[0.25,1,0],[0.5,1,0],[0.75,1,0],[1,1,0],[0,0.25,0],[0,0.5,0],[0,0.75,0],[1,0.25,0],[1,0.5,0],[1,0.75,0]];outlineConnect=0;fontColor=#232F3E;gradientColor=#F34482;gradientDirection=north;fillColor=#BC1356;strokeColor=#ffffff;dashed=0;verticalLabelPosition=bottom;verticalAlign=top;align=center;html=1;fontSize=12;fontStyle=0;aspect=fixed;shape=mxgraph.aws4.resourceIcon;resIcon=mxgraph.aws4.sns;" parent="1" vertex="1">
          <mxGeometry x="569" y="-695" width="40" height="40" as="geometry" />
        </mxCell>
        <mxCell id="T7bcI5QkthVrXsfkqc_y-8" value="" style="outlineConnect=0;fontColor=#232F3E;gradientColor=none;fillColor=#BC1356;strokeColor=none;dashed=0;verticalLabelPosition=bottom;verticalAlign=top;align=center;html=1;fontSize=12;fontStyle=0;aspect=fixed;pointerEvents=1;shape=mxgraph.aws4.topic;" parent="1" vertex="1">
          <mxGeometry x="620.39" y="-655" width="58.21" height="50" as="geometry" />
        </mxCell>
        <mxCell id="T7bcI5QkthVrXsfkqc_y-9" value="&lt;font size=&quot;1&quot;&gt;&lt;b style=&quot;font-size: 14px;&quot;&gt;Standard Topic&lt;/b&gt;&lt;/font&gt;" style="text;html=1;strokeColor=none;fillColor=none;align=center;verticalAlign=middle;whiteSpace=wrap;rounded=0;" parent="1" vertex="1">
          <mxGeometry x="590" y="-605" width="120" height="20" as="geometry" />
        </mxCell>
        <mxCell id="T7bcI5QkthVrXsfkqc_y-10" value="" style="outlineConnect=0;fontColor=#232F3E;gradientColor=none;fillColor=#BC1356;strokeColor=none;dashed=0;verticalLabelPosition=bottom;verticalAlign=top;align=center;html=1;fontSize=12;fontStyle=0;aspect=fixed;pointerEvents=1;shape=mxgraph.aws4.topic;" parent="1" vertex="1">
          <mxGeometry x="620.39" y="-571" width="58.21" height="50" as="geometry" />
        </mxCell>
        <mxCell id="T7bcI5QkthVrXsfkqc_y-11" value="&lt;font size=&quot;1&quot;&gt;&lt;b style=&quot;font-size: 14px;&quot;&gt;FIFO Topic&lt;/b&gt;&lt;/font&gt;" style="text;html=1;strokeColor=none;fillColor=none;align=center;verticalAlign=middle;whiteSpace=wrap;rounded=0;" parent="1" vertex="1">
          <mxGeometry x="597.75" y="-521" width="100" height="20" as="geometry" />
        </mxCell>
        <mxCell id="T7bcI5QkthVrXsfkqc_y-12" value="" style="endArrow=classic;html=1;exitX=1;exitY=0.5;exitDx=0;exitDy=0;entryX=0;entryY=0.5;entryDx=0;entryDy=0;" parent="1" source="DrgDFBZRhsH2EOPDJstn-1" target="T7bcI5QkthVrXsfkqc_y-6" edge="1">
          <mxGeometry width="50" height="50" relative="1" as="geometry">
            <mxPoint x="390" y="-735" as="sourcePoint" />
            <mxPoint x="440" y="-785" as="targetPoint" />
            <Array as="points">
              <mxPoint x="370" y="-1001" />
              <mxPoint x="370" y="-588" />
            </Array>
          </mxGeometry>
        </mxCell>
        <mxCell id="T7bcI5QkthVrXsfkqc_y-14" value="&lt;font style=&quot;font-size: 14px;&quot;&gt;&lt;b&gt;&lt;font style=&quot;font-size: 14px;&quot;&gt;SNS&lt;/font&gt;&lt;/b&gt;&lt;/font&gt;" style="text;html=1;strokeColor=none;fillColor=none;align=center;verticalAlign=middle;whiteSpace=wrap;rounded=0;" parent="1" vertex="1">
          <mxGeometry x="614" y="-685" width="40" height="20" as="geometry" />
        </mxCell>
        <mxCell id="FgE_VHjR9yrn-YzXBSdE-14" value="" style="aspect=fixed;perimeter=ellipsePerimeter;html=1;align=center;shadow=0;dashed=0;spacingTop=3;image;image=img/lib/active_directory/internet_cloud.svg;strokeColor=#7F00FF;fillColor=#9933FF;" parent="1" vertex="1">
          <mxGeometry x="270" y="-1051.62" width="143.3" height="90.28" as="geometry" />
        </mxCell>
        <mxCell id="aSFgxo52_aUJRrx-5JbN-1" value="&lt;font size=&quot;1&quot;&gt;&lt;b style=&quot;font-size: 14px;&quot;&gt;Cognito&lt;/b&gt;&lt;/font&gt;" style="sketch=0;points=[[0,0,0],[0.25,0,0],[0.5,0,0],[0.75,0,0],[1,0,0],[0,1,0],[0.25,1,0],[0.5,1,0],[0.75,1,0],[1,1,0],[0,0.25,0],[0,0.5,0],[0,0.75,0],[1,0.25,0],[1,0.5,0],[1,0.75,0]];outlineConnect=0;fontColor=#232F3E;gradientColor=#F54749;gradientDirection=north;fillColor=#C7131F;strokeColor=#ffffff;dashed=0;verticalLabelPosition=bottom;verticalAlign=top;align=center;html=1;fontSize=12;fontStyle=0;aspect=fixed;shape=mxgraph.aws4.resourceIcon;resIcon=mxgraph.aws4.cognito;" parent="1" vertex="1">
          <mxGeometry x="607.5" y="-455" width="78" height="78" as="geometry" />
        </mxCell>
        <mxCell id="sSLhhHWNK1iGTZtY2KjP-1" value="" style="shape=image;verticalLabelPosition=bottom;labelBackgroundColor=default;verticalAlign=top;aspect=fixed;imageAspect=0;image=data:image/png,iVBORw0KGgoAAAANSUhEUgAAAgAAAAIACAYAAAD0eNT6AAAAAXNSR0IArs4c6QAAAERlWElmTU0AKgAAAAgAAYdpAAQAAAABAAAAGgAAAAAAA6ABAAMAAAABAAEAAKACAAQAAAABAAACAKADAAQAAAABAAACAAAAAAAL+LWFAABAAElEQVR4Ae29e6xlR33vWWuf0y+bEN/B2O6GQcHdTB5Wm9fARcE2Eol5SIS/QhAyIBMn9nDHVlC4HqQk8IfhIiUMKMjcSWzgBoERglxpJEC6iZ0gYZuIi8PLLUMQbrjihm7bwKTj0O7XOXtNfdc+6/Q6u/djvX5Va639OVL3Xns9qn71qdqrfvX7/arKOf4gAAEIQAACEIAABCAAAQhAAAIQgAAEIAABCEAAAhCAAAQgAAEIQAACEIAABCAAAQhAAAIQgAAEIAABCEAAAhCAAAQgAAEIQAACEIAABCAAAQhAAAIQgAAEIAABCEAAAhCAAAQgAAEIQAACEIAABCAAAQhAAAIQgAAEIAABCEAAAhCAAAQgAAEIQAACEIAABCAAAQhAAAIQgAAEIAABCEAAAhCAAAQgAAEIQAACEIAABCAAAQhAAAIQgAAEIAABCEAAAhCAAAQgAAEIQAACEIAABCAAAQhAAAIQgAAEIAABCEAAAhCAAAQgAAEIQAACEIAABCAAAQhAAAIQgAAEIAABCEAAAhCAAAQgAAEIQAACEIAABCAAAQhAAAIQgAAEIAABCEAAAhCAAAQgAAEIQAACEIAABCAAAQhAAAIQgAAEIAABCEAAAhCAAAQgAAEIQAACEIAABCAAAQhAAAIQgAAEIAABCEAAAhCAAAQgAAEIQAACEIAABCAAAQhAAAIQgAAEIAABCEAAAhCAAAQgAAEIQAACEIAABCAAAQhAAAIQgAAEIAABCEAAAhCAAAQgAAEIQAACEIAABCAAAQhAAAIQgAAEIAABCEAAAhCAAAQgAAEIQAACEIAABCAAAQhAAAIQgAAEIAABCEAAAhCAAAQgAAEIQAACEIAABCAAAQhAAAIQgAAEIAABCEAAAhCAAAQgAAEIQAACEIAABCAAAQhAAAIQgAAEIAABCEAAAhCAAAQgAAEIQAACEIAABCAAAQhAAAIQgAAEIAABCEAAAhCAAAQgAAEIQAACEIAABCAAAQhAAAIQgAAEIAABCEAAAhCAAAQgAAEIQAACEIAABCAAAQhAAAIQgAAEIAABCEAAAhCAAAQgAAEIQAACEIAABCAAAQhAAAIQgAAEIAABCEAAAhCAAAQgAAEIQAACEIAABCAAAQhAAAIQgAAEIAABCEAAAhCAAAQgAAEIQAACEIAABCAAAQhAAAIQgAAEIAABCEAAAhCAAAQgAAEIQAACEIAABCAAAQhAAAIQgAAEIAABCEAAAhCAAAQgAAEIQAACEIAABCAAAQhAAAIQgAAEIAABCEAAAhCAAAQgAAEIQAACEIAABCAAAQhAAAIQgAAEIAABCEAAAhCAAAQgAAEIQAACEIAABCAAAQhAAAIQgAAEIAABCEAAAhCAAAQgAAEIQAACEIAABCAAAQhAAAIQgAAEIAABCEAAAhCAAAQgAAEIQAACEIAABCAAAQhAAAIQgAAEIAABCEAAAhCAAAQgAAEIQAACEIAABCAAAQhAAAIQgAAEIAABCEAAAhCAAAQgAAEIQAACEIAABCAAAQhAAAIQgAAEIAABCEAAAhCAAAQgAAEIQAACEIAABCAAAQhAAAIQgAAEIAABCEAAAhCAAAQgAAEIQAACEIAABCAAAQhAAAIQgAAEIAABCEAAAhCAAAQgAAEIQAACEIAABCAAAQhAAAIQgAAEIDBNYG36BN8hAAEIQAACfSPw4hcfuCi56Feu+N+udBsHDvzCruPH/+1c38oQWt4kdIZ9zE8N6/iJZz1j795dV0j+1I2uGI3c/klZ0ssnn6PLEpdcnrpxdk/iRo+lLn18cm38hHNJdjweu+OJGz+m86dPn3ts/yU//tnXv37sqcl9/A8BCEAAAiKg9+6/nP6lq5LR6IX+revfs6PLdH77PZskl41ccqk/8QydX/iXup+NXfpTl6Z6F3/buck7We/jM6fPfOvY0Yf+58LnB3oRBWCrYnc2tuSwb3DPH41G14as93Gafi9Jk4e9EvF36Xj8zX+39388gnIQsgbICwIQiEXgyqt+/SWTzt6/fxN3/ShJfjmkLOffv5tHxuPkW6ugGKykAlDs7P1I/TfTJL06dGMr27DVKL3J4T6vkBw59dSZ/7aqmmpZXtwHAQh0n4Dewf/f6St/YzRKX+BH5NeHHmxVITTkd/BKKAATzTJ5TeLWDieJe2Upk1GVFhL43vF4/IBXCO6Tlvq/7P3B32MlCFwBZAcBCNQi8NyrrvmttdHoLcnIvaFWAh14KFcIxuP03r6/fwepAJzXLpNX+ZH9m/re4S9r874hfiQdb37yB4/8w0PL7u3qdb0YNBqQktZUxknsBT6+WRylDE9iWDTymsStzLpv2TkYLyZ04OBL/tc9e/e8YBIrlByW33rxE4uv5rzTcfo3ffudi8W+i3bfOErW/mCI7+LJgMzd00cL7WAUgEkj2/NamfT7rF0ufg0suapAl3Tzw6eeOvuJPrkKDh6+9s7RKLl1SekaXZaSdOqp03/WJy6NClx4WArxibNXvtklyR9aurpWmXGOe6LIutstTdq+w7nl6JEH787z7OrnEEb7VdlOrAPph/qiDPRaAchN+y4Z3WD5YqvaCLpwf19exnpJrK+PPh+K2cmfn3rOKikBWed/7uA3Qv4+Vo1x3nZDKLJ5Xl1lPFE2n/vOoY72c/5lPtOx++vN8fhTP3zkwS+UuT/GPaMYmTbJUw3s4OFrbj549bX/tLa+/rXRaO2OkC+3JrKHfFYj6ouftu9HeinJOhIy7yp5eTlfVeX+pvfuu2jPp5um0afnT5w9+Kehfx/7Lt57n36nfeLUVNbJyN/WilWUUe6F4vcuHIvBk+cO/Ujv5CGa+qsyliVagxv1VWJT9fkQ9/dGAVAnps7syY1DJ7157a7QL7UQlWGRx3lF4OXvtki/aZpNfaNV85dp9uDhbrKoWpZl98tCpvpfdl/b1/XblOLRdrpdTU/KTkgrljhMoue7QUTv5kOHr/tcxqDMnPxuiB1MCv0eckVAv8lgGZfIqPMKgDQnNS6NZmO8zEow7MUt0sqliXatAZ5fLCkcxsw8GS67aDmNRuu3x8pcv9VVsQJk8RXBQU8WFgue7VSGssbq3byycVdTPBZ9lSIgq7UGIF35bXRSARCc3MwvzYnGtahZlb/WxQao9Q3Kl6ClO/0opasmuZZKmK2iFvt3o3nebZWn0+n44MrQ8mkFu9B5FvPTQEIDCllji+c5Xk5Ag7ETPi6nC0pA5xQAdfyY+Zc3oiZ3ZA3w7JV/04UGqBUPm5Sl7rOai1z32T4814XO11sBgsZ3xKiXzM0SeMU6lVOr1MUo72Rwdu2dWfxVhHLHKLNFnpmbrANKQGcUADRKi2Y2P035whWwEztAUMsdz5fS7opGx11QgKxK2AUFZxVcdslo7a1Wdbgo3RgzWfR78e6Ov1mFel3Evq1rmRLgebaVXp10OqEAaNSPRlmn+ho+403h8t/FjAvQKoaaLtOwJLUe78IouZbgJR6Kbf7PRYzZtnIZLD/9S/xNlunPSjvG7yXr/DWdNPD+KLPKP6Rz4hnzNxJdAZAvFj9S3CYt5StmI9TmRzEIDNVEHduqU6zLyeYuxTPDOc44R4h619zykBRVTvmsNWINme+q5OV/Ix+MVdboCsD62uivYhWefM8TiKkEaNWs85IEPPI7jgXMLVhWfq2D1wbLbElGWplzyS29vRyLs9afDwVNnf/FF+/7Jp2/HfGYVpWoCkAWiR1Bg7aryn6nvLa2/t9ijB4zf6Zfxjg0Pb3UYpTXvpzazrobf11xRdjQCM9Z5v9Qm3/JKigXIYv62LSeYqqx3kNRFYAuLWZRrIyVPfbKWKxV3Pwa2p+Jwb2LK6o15RDDL71I5lgvt0UytXEtBudQ7jJ1/rIKtsGJNJYT2Lt31xXL72r/jqgKgHYja79IpNiEgEbF/3r20CeapFHnWe1mWOe5ps8MLQ4g62w7ZlWLZSpv2jYWPR+Lcwh3mcpG57+o9tu/ph062091eYqRFYD0+ctF5I7QBGS2Db1QTqwtTmOM4izrs5sWjfCmckvGSjuGUqNtZ0NM/5MV0Jof6XeDQGQFoBsQkOJCAlqBMbTpNsb0Jvk3Q5fzQtrtnemiRWNoSpZqK1Jw4z3ttZTZKWmZWlkBZ1/l7NAIxFUAkgQXQIdblB/lBN05L/T0phx9N0fNuXQVP7s4s2FgSpZqJEZwo7X5X37/bCe/ik2O2/tLIK4C0F9uKyG5pqeEdAWEnN5UrMAujpqL8pU91mItXR29DUnJirFmhg+S/Z6l+V9tR7OAyrY17hsGgfVhFCNQKfxUtbFLf+rS9AlvAnxMuWo3u3xLWx+he4XzVo2RSy4dytSZ0VryAV/ML4QgrOlNBw9f+UDoebFbJurbQpTRMg+tbLje0V/0lpIVpB1ZMlbaURY3Ssem1jht3zwauWdYs2uUvt6/6fg7vga+7dz4ifE4+Vbixo+dPn0uexfvv+THP5s3RVIKzvETz8rKl0fcK/DOl3m/f4tfnri1w2mSXt1VBboRtwUPd/R1sUBiw0vSsn2P7gNg0iPapEYNa1GjKiNK3vA0AtK0RzW0JHGv7IuCoB+Elmo+euTBu8uUt4V75Oe8toV0yiexZaK2HGGVF6b+nZ2eVttF10RN1DH8/+k4NVszfrIaa3JrTRx2j2UdfvqZ8Ti9V9bBeZ17LsCx/GDG5+TZY09tXfqfM27ZPqWYoMn7WsqBD2D1bXeoisFqKgC+YaWp+1LqNo9Ii9TOWvNe/osa1XaLWXBQaHhqdNsjICkG/3L6l67aGk28OfSod4HIF1waJaP3e3nvWfYDvODBGifk5/SLj9R4stkjW1HdoZScZsLOfTrp7MqGeoGqzYdoQ3PxtHQhuP/fv6+sZsmos1PAb0toGiczGYSlH9J7oPhO/mHjlMsnsJXvDiVBnCbviOSwb8tv6ssAblmpV0YB0BQaP7K/T5q01Y9pGezi9S3F4CF/Tv/unjSw3TeOkrU/6Fzj8iNkvwvYm507Zt5B6sfn9xn/XniNu/9T1bqsRKrtTzZfOratBOtc3/4i+f/NFsnad9HuG7tQB3o/j8fuAz985MFOto8tpSB//92WKwSyBgVXCFussMEqALk5v6z5qEWmtZLaamDv9Q+/VyY5befaqYaVJH/oZct/ALXKWPoh+TuTtTtK39/CjZlW71xv4wBidExVsW+5KDr5gi9blmSUvKbsvW3dp3dYW2kV05FF5smNsL+zYv46Vsfv3a3v7MKgbFq2Rd8LCsH24M0Hh9xQd+AiK/Si/KyuDUoBmIzy3T0xzUdtVNSWFvwFvdSzyFw/Am8j3SZpqGFLnhA/1MzfOXJBFQBZXaTVb/2wm6CK8myUwLTKJc1cFFJye/wX3s1iNSo+cfa57/RBcNH+xuPN9xw98pWetwdvF/VWSw8xG7zpHZmM1t7qg14rxVQo1qypu7lORUasfi+uj6avI3TxGY301ZBO/vzUc3yg2nUKVuvrS7xYLh2rs336rkef40cAH5m+FuP7aLR+e4h8MyXD+z1D5FXMI8bqbsX8mxzHCEyrKm/XXRTLyqMRc+gyWC2ONSlLvNH/xsb49UPo/KfbjN5dR488cNvT1x+92A9Ib8ks0dM3TX3X+z1WbExUBSCfSjfFY/lXRYf6Tn9zY+OlRx9+4FfUkIbS6U8XXg1DDUo/mOlrob/LJaEXR4h8/Q/HzO85T/4+dKJzZfd1M+9al873wVUxj5eCduddszpvtTjWJB7DSurF6WqwZmXVWJxzuKuT9/aDd6t/Uj81bxAnBeHUU6f/LJxkO3OKqgAoCn+nOIu/CaJgfv/h+y9Vpx/CHL1YonBX9YPRD8dPUww+Mi6WchIMWDxjc+zr2sTvuUjabHrmohs6ek2ui46KdoFY/XBVXCB2diKG/99qcSzFGM0upe1ZDWSGOlibR65oFZgoA94y4PsyWQgu2XX0RTF5RI0BOPXU2U/4KV93zAOn85kJJU0/dMnuHwSZhrZIltjX1FD8COq1kXfq8rMB7IMB9eJ7cuNQWOQ9jQPok+tiy8oSJpi09dYT1v+vmCYr03CMAGN1ekMf+S9qcpO6PJbP/Fp0a7BrUS0A6tCkBU2XVp3+tl8/M/E/eLfVD2E6765/lzY5i1koueUDDeEGUH1b+T8XsepTZ3q+HP2Zwhij4znPqf5RDP+/l/ae+hLPfzKGG0bv9Et2H33XfKm4EoNAVAVABVbQngImZBrRPx0P3a/ftKLFLEbnmMsdyn/ol1b+uzzPUJ99jAPYmsIYClHjfPrkssgLG6rN5/np02rzH0WpF/MJcTzeTG9nEBeCdLU8oisAElcNQyPbf7f3fzxCIylXgb+4+9EbY8UDhNo8x+oFuIhw30aoWWfagWmii5hOX+ujlSX0Mssy/9v5htPnT9eJ9XerWAZruYeeficUgBwynX9OYvmnWG1sjt+2/E6DOwKt677lInrAoAQLk+zTCLWfu+z1x2Wx3VD8Ii/bx0EOUr8nic1f6KmM8v3zbrepy6apdkoBaFqYVXs+llatRYFCxAFM6tPuRTivvfRphGpmjTGcbdI3l0Xm//dtfl57sTivAGmLdGMotzFm9FiwG2KaKAA9rlVp1QqWjFGEUHOirV6Ei5j1Kg7AyBozTjc/bOZi2pptsagOunQttP9fAXNW5v8YFqNYA5UutaGuyoIC0NWaKSlXjA5SooWaz529CA1Ho7Mw9yUOwHJkquWYtWPmLD5tnIvREdWV28zKMk8g7YVh9OeX/vVb3Ib9w/wflneV3FAAqtDq4L3qIGPMCAg5SvYjouCrAsaYKlW1eVmOTBWQazkLI3inWhVu8X4jK0sxi+JxthdG8USrx+nlrSa3JDFZM5bcwuWIBFAAIsJvK2ur5UIXyZcm6dWLrrd5LR1vfrLN9MqkFcrCUUaWefdYRabrpa1Rm9+l7Zvz8m58PnCnWlde+cwV81L3+crPeWvXoFY4bWG/l8oMeaA0ARSA0qi6e2OM1bVCBgLGeCGGtHDUb1lGK9NtmaAtuYdsP/X5OhfaVWFv7Rpd1oRH9WeTb1d/hidCEUABCEXaOB/NGzbO4oLkj594VrBtikO7OboeB2C5Mt14nGzvTW7J3dKFcUFjrXkitKvCOmI+cUlQF0Do/GpW88o+hgIwmKoPP11u795dV4TCF8PN0eU4AMtZGMWobds4gPQFodpP3XxCT1kssq8rc5ee8+0n2DuiS+XuiywoAH2pqSVyFkdtS25t7XLqRsF+3DFejF2OA7DamS73/+eNxDQOwBm5MHLhG36GXmVR1pbBRcwnSWCXQ8NKX7HHUQAGUuFnTp/ZNtuGKpJVENos+SdrHgR3c2jnw07+JW7tsIlgqduxAp1pHECgjaXqcgq9IFQIK1fVLdjrssuf60usRy7vqn2iAAykxq0WDlmMJ3RAkc3uaPPKGHrJ1HlyzDpvFaMwywdtGV9i6cqYxa3aubBLFsewclXjUe/uPsR61CtZ/59CAeh/HW6XwPJFvZ1J4SB0gE+MzYG6GAdguZzrbEuSXXyJlSuj0ExrH4b0/+u3G8b8nzxeG0jNB0MHUtYUcyUfQwEYVLXbvahnYQod4CMrR+iFRbrYQZmZpv0c9FmWJMuFacxcGbMabIVzof3/XrR7KohX+9bx2B2v/XDNB6VIhds7pKaQK/oYCsCKVnxvi224TOpsJt0LVLNao2De0r9aFXA2m+ZnrVwZTSUzU7LmCBbKupW48WNzRLA77fd+OHH2ys7G09gVvPspowB0v44qSBjYvBchwtdyNDoLdBfjAJLEvXKWrE3PzZvyZx2AaenSqMvESsmaJY+sWrMsL7PubXrOUplbJJv/Hd2FFWARoTjXUADicDfJNYZ5z6QgCxLNotIDbw7UpTgAS9P04lGonXsp9Gh7QfPavhTUMhHQqpUpc5HW5z9x9uCfbgPmoBMEUAA6UQ39FGLkkktjSG6/XOrOUnUpDsByadpFo1DLdSZCjrZ31uzsb6EVvuA7ek5N9ZxNof2zPhjw1oOHX/7u9lMmxboEUADqkuvgc1H8exE4zJqqZitGd+IArCKqly35azlFzcqlUbdNBF0Aak7gZV3ZyzwX/vdzXqrRaO2O5151zW+dP8NRTAIoADHp9z1vH9wTowiWndGs8igOoDP+S6Nd9Ob5/3MepqZj3466FAcQ0iIxTjc/nDMO9Rn69zNdrvX10ecPHr7m5unzfA9PAAUgPHOzHE+fPhc+wtesNPMTVme0bMQ6/+l6V7qwYE22AZDR1rSllvw1NB1bujaq1nhI/3/ooFaxMFXmSsJWUOChw9d9rjOKdUm5h3YbCsCAanT/JT/+2YCKs7Aoy0asCx+ucbELcQCWK6qVWfLX0nRs5dqoWtWh/f9luFctQ6n7AwYezpNHitaJcwe/EZr5PHlW8TwKwIBqXZr9gIqzsCiLI9YXPlrzYvw4AKu9F8quIDl7lcCaOKcfM3JtTGez7HtIRc8rVB9ZJo/V9eCBh3MKor0C1tbXvyZrQJfcQHPEHdxpFIDBVelqFCj0qoDdiAOwUkLKTfGzZN6dTWOsGF/4u7S0qFyY284zqsvQbrSdEuz8JmvAxU/b9yPNEsAtsJON5TcUAEu6pG1LILAZM2YcQOb/98GIFkAr+aEN4wAsXRxluFkynpV/7GC88XjjA7PkinlOswSe3Dh08uDha+/EImBfEygA9ozJwYhApY6rBRlCmoenxbVUPqqtDpcemZatre9WLo6y8lkynpZBo+/YLjvFH5R1/0zLb/1dawbIIiDXADECdrRRAOzYkrIxgfCrAoYzD0+js1I+qu5CZxt7EY+veFsxnq5Lfd8cjz8163zoc3710M5ZAYoM5BpQjMDBq6/9J7kHsAoU6TQ/RgFozpAUIhIIuSpgzDgAu13zyvn/8yrOVgs0Woo5Jt9J+cIpILHN/3l9/vCRB78QeofNPO8qn4oRkXtgEidwzf1aR4BYgSoEZ9+LAjCbC2d7QiAdb34ypKix/NRWc9PrLPE7b9fANuohpBm+KG9I/39Vq0tRTovjdHPzLRbpWqUpRdH/u0uxAnIRoAzUJ40CUJ8dT3aAQDX/dXOBY/ipLc2edUailmswhDTDF1tDYMXunmLesY8nsQDxpiQ2Kb8U41wZ8IpAZhmw/L00kbWLz653UajQMqnB7N2764rUja4Yjdz+Sf7p5c6NLktc4j+d8y+9K5zf/jbbAGd6Cdwtk+jYpT91afqE7vfLiWar8qVu0wdNJY9rpz6t1a/V+jIzqm7irzEBBVIdOnzor61GyBcKmJmJ33vhebszVrvlyfRbJxBNcQDeFGtSYDtXx2JxQyp2tnEUi8s57+olu4++68lzh97kX1xRlveeJ1eV87IM+PuvVdv0MQPfc36WkNY74H07n2Iy/9JwryiqVBt+aM3vbCOSGI3eKw3jdPwdKQpSEmSK1UIrTRvr855/XRqy5r7/7fujtyFtLqL1xUOV++nrj15cp+OsK5/MnBYKjhaiOXrkgdvqyGXZzmK0KQWZyc9ch0WVZ6R0HX34gV+p8kyoe0P/jkKVy4/e/Lt288OaNRRt5cVgha2W0eAtAPLtybw30fCT67e0xGqULO72Sscomczr9qMeb8Zybt1rrv7F6vSSSNLk4TYVA4sidCVNmbG9PzCYOBNz8bEvhMrQare8JgvRaBqbhVIiplLQQ76o9Y54csO+88/aS+C1K6q0UQUEemXTrF6ryNLqvdm7du0ON3J3PO/q67wykH5GbV/lbTWfHiY2SAVgMsJfe6s3Z12vH/Z6z0qZjUQS98sXKAbj8QPeGXFfW9aCHrbXmSJrNH7w8JUPhFLutszFQV4emT/TyELVZGlfxQF469UbZlZIw5Nb2/E+1DCZ0o9LoQv1jgi9dkVpCFs3/uLuR2/0roBX9tkVsLDMmTKQ3Kp1BjTYkiKrKZkaRIS06i2UMeDFnnWN88noRbnvot03+sm8N4Qw5c2XxO5K7uPathZ4bVYR2XoZazc3BcQ9uWGXf8dTvsfLZ7JS3gXl9m3MnwsSB2C2S543izZxN2W7B6ohGvzJNeeTvdsg6ZlJBtuIyDMPadmYWdglJ9UJHjj4rBdefPG+bw5WCSgwkBVrfTR6gyyIiiXSu/SS3T+4Z1WUAZtfcAGw9aFG+/KRan6o5okOtfOfydFrs2rAXjG4S4tlaFrMzPtW4GTIwCq1sVBzkK06J5lBmzQLy47MyuUxt7yBNiJqynyu/C1fkGK4ubnx2paT7Xxy+btU79FVmVHQWwVAHb8qSR2flS+y8y0WAbcJ6KWl2IntE8YHwaaNmXVOzZf0NVtG1iu2oaZyKZ9Qg4bQa1Y0+QlIwdvc2HhpkzT6/KysrRpY5QsPKUAylNIfklvvFIBix69KCgmLvDpOIGCAldXIvEhYLxyrzqkdi0m1VQSLZVt2bOb6mMo4VD7K1tJqMlWsVr5K3o2N8etbSazHiaif0SyjiWXg2jvVB/W4ODtE740CoJehdojSiJ+Of0cd8mWLQNAAK7OR+fnqNLMyNPT/5xJa8g6hYKkcofLRlMucW58+s6WCx+Nb+iSzpay+vdyqPmgoexP0QgGQ+cVHpv5I8C0rl7T7TSDkCCtEHIDV4jRtLeVrugpjAAVLrd3X45tCtPomUy5DyLcoj6NHHrw7cwd4xXHRfat0Tb//fG8CxaCFclm1zbjTCoBG/YKbLfJiNBWqbaCkF5dAyJGW2Qh9G6HN5jSKdN7OosGBIqWt4gBCKFjZSzvQe6XOkssNqqb1R6Vcnzx56oVW9d26wAETVAzaJFbg2jv7pgh0VgGQn0WjfgL8ArbkAWQVcqRlaT7O/P9GMS7ZFL7W6touDsBawbJaYnkareaaD2FamQJtvTXguvF48z3TZeR75k66tW+KQCcVAO3uJD/LKsxD5YfTLoGgIy1DM7Xlrnhtukrq7CZYtsatXCB5/lvrDeRfzT7bsriYCVgx4aNHvvJeggPnQ5OreqIIvPzdUuTn3xn/SucUAAX6+SC/u+KjQYI+EtBISyOuELJbmqmtdsVrm42twmXjAsnbRqj1BrSwTJ7nUD4VHHjy56ee03Z7GgoflUMxArJid3nWQKcUAPn7CfQb0k8gTllCjriszNRWu+JNdqdsr16yOACj9Rc028dqBBXK/y+f+RDM/7NajFwCjx65/3cUIEhswCxC/pyPMclmDRx++bvn3BH1dCcUgDzYD39/1LYwmMzbmeNeDodVHIDVb8Fk6l7q7itHq/pdVq6QUP5/X+LBjf6na1EuJcUGZIqAkTI4nWffvssaoIXruhYkGF0BUOd/4uyVf2P1wutbQ0He5gSCrgpoEAdgaTK0mLpnGXhp5QoJ5f8PqYw2/+U0SyFTBPxWx4oPCLkqZzOpwz0ti5ZiAzStPVyui3OKrgD869lDnxCYxWJyFQIVCQRaFVBxAG1r9Vu74VUs8PLbrczRfYwDCDHgUCcoZXR5zQzrDsUHXLLr6IsyRSDbwXRY5WtaGk1rP9gRl0BUBUAQQvwQm1YYz/ePgImpew6GtpeTtRud2kzZs44DmIO99mlLC8sOoQIpoTvy7MgXtQkpAnINKFgwmzrIQkLbtbPlErh5+0Skg2gKgMwgghCp3GQ7cALZVLdAL5y24wCsotNNlSLDOIC2O2wrC8v0T8qU93RmHf4+WT/gK+/9/sP3X6o4AWYOTCpLs9005T1m1a3HyFw/6DVvBomRd6M8fYcyTsff8SO0x1KXPu7c+IlJeok/9t/G7vh0+n7L9P3nz6WXT45HlyUuudxHq18xSka/xnoH5wm1eaTtV72J3nz5aJ+HlpO9rQ3ZLaPTLfz/eZkVB2A1g2erw34oz6vpp52FpSCZf1e0ud5CIeVeH24x+Z2t2K83+8K8eZVdwFIC/GD4uKwlMSo2uAKQVfy5tU/FKGyVPOW/S9LkYU2b0mInZ06f+ZalP09cjp941jP27t11xeSFlxx2Ln0+CkKVWtt5r2WntCOnre1r22gfbbsTcjnVni2no+n3sf60fXl2rX5uddh3t5VoCLejlM+25B1iOpO2eEx1erfefZpOuzYavSVE3XSNp2ICvBLw+hhKQHAF4MTZ577TjxR+uWuVIHn0knRp+iFF7rbxMq9SRv0gXvxi5/yngoZ2jHb0A9F0qNSNrpisjpZcv8pac1muCk7zW3iWvb3RfVvTyhp3Um27E7YLZeyP1u/leVdf9zMLa1abLpG23QnbfKcO0vHmJ6dO8XUOgS1lQCPgL+TKgH4HmWUt0F4Nc0QLdlpKgLf+PSd0vxNUAdCPr3N+/8ysv/lh+etim+wmP4QL29zWDyRXCvRDea/ukrlYI8as0/DT0RSRfuHTq3tG3A4dPvTXYUYVsti08GcwrVBSWS7Zm5dauwz6zvoN+ffWPlu0sFhNK5wua+x3ybQ8ffleVAa8zLepz8jqLBndMPT3mx9EfNqX+bqQdRVUAUjWumX699OibtFWlyGBt5nXlrYoi0HmP5L2rGmVYTq8Nktil9bmePyp9dGo/U5pSuQ24gBUf09u2Chxsob8cErmtr9qBUZvrjdh3ZaFxS/Ndn3b5Z5Oz7uePjJ9ju/1CGwpUhr8vFcDnn0X7b5RdThEC6jKpKDAkH1SsFkAWdR/R0aoikLV1JSQoOs1/2pPzbMgVEtlWHfbzlEvsNoapRbOVD60WlbY2v+fF9R20ZvmFhYpWCE6DsuFkXLWq/ipAY82Ijo/tXB8y9BmFPj2eVcWCByogoMpAOtro78KVKb52Xhzvxan0PrVoX0t84XiiiUBKUWh1ilvurys2e53hlP0inVn+ptqwTVitaxwkYGOgymd0xmv0PeJMvDg3XqXP3390Yv1Xh+KMnDRRfs+GKoqgygA2VzHyMEcGgU9fdejz4kRaRmqMslnLoF75l5p9ULTUaqNeTrkiNTqJSz/r0bwTaorhP9f5ccS16SWqj8r3nqvSxn4/rfvTyabE3k3jB/wVU8t/hNy4cpiHkKSIAqAn8r2/hCFmZeHOv9TJ09fzw9zHqFhn7c1TZ9ntxUHcP5EhSNL87Sm6FUQpdGtljsxNneR2ChYRWCW5S/mw/F8AoobOHrkgdvyhYf6uAqhXz/m9vklbO+KuQKQaTIxR/9eC1Tnb2qebK8+SMmAgOo+m+JpkPaOJBvEAZiZp337D9n20/H4mzuYtPiliYvEUsEqFvGS3T8IZG0q5srxPAITZeD8KoR9CdBUrEqIKavmCoAWd5hXOebn/cvv5MlTLwz5AjQvExnUI2A8Dz4Xqm4cgJV5WlPzctlCfJpOf/NTweqWobn1YHnOVpstLc+ZO8oQyC0DecxAqNigMrLNuicZrb111vk2z5kqANK6Y05J29gcv43Ov83m0t+0Qq3LXn+ZWRvzdAyTtNWLtUkcQBPrQYVWz+i/AqxYt+YxA5pN0OW9Cfz6Lrc2jXtZxthUAThx9kqt9RzlT8E4qxjw51/4V0QB3vFMTUemhbLXXbXOanpaqPiHAgJ/aLProPKo7SppYD3YWbb53+Kwni8PV5YT0HtBwYOTHQu7t36DVs5dXor6d5gqAF6saArAU0+dMgVXHzlPxiIQxP9XIw7A0tcXwwJmaW2p4yrJ/P/Ga5AoxiQG61i/paHlq7pT4OBkBsH4ga6Ub5Ss/YGlLGYKQKigm1lw9KJf2R9jklw2iwnntBxuem8IDlXjAKy2p7WakreMoeWug3VW8gvh/3eBYkyWsed6MwKTOIEHr/NurFuapdTS0zUGFFVyNlMAapvqqkg/595Ldh9915xLgz89csmlgy9kzQKGWqClahxA1fvLFj+G/1+yycdqFgfgo6PLlj+/z2yDpTwD/2lp9Shkw2EgAlolNnMLaIO4yH9WO4SqWGYKQB1TXRuc9eJZ6fn+MadctlGBhmlYdkxFsasGvtaNGyjmOevYckrerPx2nrOLA6jsMmlhFcGdZZv65mcbhYoxmcqZr4YEZEW+ZNfRF1kps2VFt1RgzRSAOqa6skCW3Eck7hJAK345SPso20ll634bKW0xOyXL3QeruEzEV7MHLNu89/9/xjJ90o5HQIMGzRaIqgQYKrBmCoBVVPOyprDKkbjWU0aWse/D9VDto2wnZWXei/rC8g3B0t1SxWVixbfY1tPx5ieL3zkeHgG/wNNrYi0t3GT667KaMFEAQu5mVCzgqkfiHj/xrGcUeXB8IQGZ9UKsCli2k7Iz79mZ4C+keuGZzN1i5D+t4jKx43u+zDEtLeel4MiSgNrz5ubGay3zWJS2VSCriQKwd++uOHPRA+16tqiiYl4LMdqJWb7W8g4QsV06DsDIvNeJoDSr32OFyOgm+zOUaW+xZlqUkY172iUgRS/IVOIZYvu9AfbPON34lIkCUNb82Vj6CxJIj1xwaoVOBFrtrPdEQ3WOy+IALOen207FK9cELKddlplqaRlfkRPYHI8/lR/zOXwCp546/WdxSplebpGviQLgJ8WYCLsMwHjsji+7Z8jXE7d2eMjla6tsmcnWR263ld68dJYpwlZmPfn/ZbKcJ1eo85ZxAD7IeGlbL6MkNGVhW8am0vF82wTkQoxj9RmZrO9ipADYCLusMhM3fmzZPUO+XsU3OmQOZcoWInJ7WRyAncUmrv8/528ZB+BKuE6W8c/lrPupjqALilZd+XmuHoEhWX1MFIDEJVEsAKdPn1tZBSCbAWA0nazez6TbT1map/OSL48DsNkAyHIKXl620p9GcQBlIqOtFeJYCy2VZs+NJgTiWH3S51sUxkQBiLUhzf5Lfmxu1rWohDbSjLXy4nOvuua32pA/dBqhfsTz4gAsl8oOVbYydWapaC1yoYTw/4eaUlqGM/eEI2Bq2QpXjCwnEwUgcBm2s1tlc1yslRetolO3K9XoQG0lhC9vXhyAlcKmKY5d+h2cOX3mW0ZV6BZN8bP2/yvOYmX3G7Gq0B6lm6TJw0HFNdrjxUYBMBJ2GfBVXgjHeteoZez7eD2QCXfmjphmCpuRyb1u/WadpFnA5XyzqLX/33LL47qseS4cgdSlj4fLzeeUpk9Y5GejAFhIWiLNVV0IJzPDR/P/x5nxUaI5LL3Fr+5lvizw/BUxrfz/YXY8XAq3cEOaui8VvrZ2KLbzlP7l8RfNxDj11NlPNEuBp/tNYGzSIc9j4hVak/g2GwXASFuZByc/H20BolyASJ9ro9FbImXts40z46ON8ma+PG/KbSOtRWnMigOYrxgsSmn5NUuT+/LcZ99haWmZ5UqZxXu2ZPXOrvqKo/Wo8VQXCZgoAFbaShcBxpZJwU7Wo53YZTTO39wKMG3uN+ugvKm9i35py2C5abZqK/PiLlprRwFWkmxNVhIyIhB24GPlcjBRAKyEXVaTqRvFWYJ4mWCG162DnZaJHmvK5zK5yl637JzOy7DT3G/VQYVY2+B8mcof2SolO9luSTUz7qK8xIvvDLWS5GIpuBqXwPz4Exu5bFwOJgqAczbCLgPb14j0ZeWad12jf29Kvmve9RDnY035bKts6pxk0m0rvVnpTJv77QLUursUttWMi2m24j/r3Kx6qXXOW1nY/KcWuUE9NEpGvxa2QIlJ0KGRAmAj7DLgdi/WZTnHue5H/5+Ok3Mh10gzPgoSND8MEDlfNPtbLVATxppRD7dlHECRbfG4nqSLn+qqlWWx1FxtnUDgoOt0PP5m62XwCZooALHW5Ld6sVqAb5rmwcPX3Gw60ikpoFZkK3lrZ28LsZ977qs2W6Cmo/7/vNKtXmBKv+hSyTnn+bb9abmwUduykp4NAWslc5bUVpt7mSgA0dbkr7BN6CzIfTnXBdN/kVWMH0Qx/6bHYUy6E1+1VcyG1VS7pmzz5y0Z77T8zYwJyMVo/NmlVRYbF4YEahFIRmtvrfVg3Ye8cm+1uJeJAlC3nG08Z/WCbUO2ttLohOm/UJjiCKxwuleHfmT3EUuBZa2ZzFlfvotdHTksTex15Jn1jFbPm3W+6bnc8me5vLJkZPOfpjXV/+cnbSy5NWRJLJV7EwUg5qY8O0cDIaspTF4HD197ZxdM/ztLa9Op7czD9lsI0242Z73ELnZ1SmppYq8jz+xnjHYp3LL8zVoTYLYc9c4OaRe4egR46sTZK01nmMwibKncmygAttN+ZiE6f05z4vtukj5fmvNH0jwnnX9Y7fO8BAuOjDq1BTm2fimEaVemQ6uYCUsTe1uwLafPyfJn7f8P0UbaYk067RPILHhJ8oftp7w4RcvgXhMFQMWxmvazGNXk6mi0fnuZ+/p0z7+ePfQJv/lJUNNTWT5ltmYtm1as+0KsCmhVfzF/a1XqyyqQaSKDrFB2/n+5L6z8sFUYcm88AifOHvxTKwV+bqmMg3vtFAA3/ru5hTK+ICtAFm1tnE+I5KV1Hjp83ee6vtrfoq1ZQ3BqKQ/zVQFbknNHMqnbPLLjREe/WCpZ/sX8JmPXWC/bxnRT0PtEFlLNItIeIkN5T06Xs+3vYmWlwC+S1Xra6fqizJtck9ni4qfta5JEo2cvumjfB30Cv9MokcgP68d54tze+/wCR52fare1H8EXIiNrlH3sNltXeEvTel2Z5j+XxQFcO/96zSvG87ItzbA1S1z5sfx9srY+mbrr3ytu3b+jn3f1dT8bp5sf1gZHMd23lQsU6AFxW18ffT5QdjuysZ6ibGYBCLHC2g5SU180Yj54+OXvnjrdm6/SOL0C9aPgJqeahIZgdYndZmuid7am9bpSzX5uPE6+NftKd89qpcghdIwaFM18n3jlaTRau0PvG28ZuD/bXbS71RFUMnX+F1+8z2QRnmUFUbuzju0xUwCywgVYYW0RRDXqvjXmSbDfy98dS+NcxHPZtX0X7b5x2T2dv96zjV765pvuZSBdz9rErN+YOrIybkS5UfTued7zr0sVdDzEgOpZfGadywdhzti6NCvv7FyafmjutZYumCoAIaZWLeOgxtyXRqwG9+S5Qz+S4rKsXF28PkrW/qCLclWRqV/mdJXMaGpdFWgV7s3iAIz3XqggTqlbZRovdWOHb6qzVbp83mvr6187ePW1/6SYgSwKvsNlbFM0WY9jD8Iu2f0D87gTUwWgK9q+GnGXLQHSzmV6yxpcLG2zjV+Pl70vyta84mYmNx95O+961873T2HxBHs0oh6K+b/JYl1yG3jLwF1Pbhw6qYDkLr9Lm/4+twIk7489CNPCZCFmnZgqAJZRv1UrWp1r12IC1Nj0g8p8/d70VrVMXbx/CFMwrSNv26y3Pvn/83L3Kg6gR8pKztfyU24EvUt94OBP5SKQMqABjGWeIdLO38UaLMoNEiLPRXmceur0ny263tY1s1kAuYB+Y6AP+GjT6EAlj7Q63+EefuqpU++MFdQjM1q2mpRfUGJmQE4OrqefekHox2QdvGKJR66rGFN+qpZJo9MQo4Sqci27X5ZBP5pcdlsnrvfSwhKCnAIHk+RW/U40k8C7Cb7nfMyXfjuq3760S72rNGgpEx8RAqvy8HE9t4Tqn5IQhZJ5uwtaVbGsWjxlPN74gHVHpQ5fc+RHo/QFftuyG4bY6Re56lhsHz1yf2+nYKrOZO6cLlfXvstMePTIA7d1Ta4y8siv3PnfgncFff/h+y8tU56u3yMfvn8H3xVKzsm+D+l9UqC0NHyoDm1Z+c6/j5NXdVHJl1J/9OEHfmVZOdq6bm4BkKB+nfJ3+uH319oSuo10pPGtjdb9VMFrtEHJPZrn21YjlVY5WZY0uf7JDUXVtiFxf9IQW5kF2+IZuuQavRw6fOivuzQqmMVAo61Z53txTjOEkm6vb9EnV1DX6nxrwHet33DeTy9cd35WgVPnlqTJw1q4Sm4g7RorF5aVtUCdvfaHSN3oCg3AErd2+MkNuTC6Ruu8POPNNOgqtkFQaJStjrZrVgBhzxuqFi1SI9XoVZsveNfFcV1XI5UGu/+SH2eBYcdPPOsZiqidNCq336s3l/tULktccrl/zje0+P6jjY3x673b5faYsuy7aO//5fH1cnSqelcb8BtLvUHHXf2TqfWHXRVuiVx9cLP0WsFawj/G5czi45U+3xG/QYsQ+femkyvoeVcf8gsRjb/jf2+PpS59fCLb+InJZ/J48V08Oaff5+gKHft0/DtYf3oP6290mT9+/igZ/Zrv7J+xFqSHm+Tc9H9Z9H74yINBF1ML4gIQGI2KFWDRFBLPLyagzl+NqAu8T/781HP6agXouhsgtKlwcaurflUWIgW/Vn8y3BNPX3/0YqvRabhSTHIK7QIIXb6+56ff8yW7jr4odHsznQVQrBRZASZ+oeJZjtskoOCRXIPsAu8tK0CbRQyWln6InW6vkRfZaloRmWLY4emWsgSGfhk3Zcrz/SWQbm6+JUZ7C6YAqGqyWID+1lGnJVfnf/TIg3cXhYzNW0E2/Z4i1N1FdoZgnu6yj31zPP5U8bfEMQSsCOjdbR2MPk/2oArAZFSafmSeMJyvR2A83nzPdOevlLphBejv8sBdXgHuzOkzvVtT/8LWnXZ2F8OuLGJ2ITPODImA/P6z3t2hyhhUAVChLtl99F3yd4Qq4NDzmXT+X3nvvHLGtgIo8naebF0/31kztfEe4aHqpas77Mn1E8Mca8k9D6SzzIO0qxGQmyn2NN7gCoB+WKdOnr7eh3FmUfXVkHF3kcDE7D+/89e9sgKooRWfC3msmREh82s7ry6aqdPUfantcsZIr7MKlp8WHIOHZZ6azWSZPmlXIyAl8xd3P3pjtafavzu4AqAi6Ie/ubnx2vaLszopKtq/rOlIKx/GI9NdP3oZJtb7cZeRYfoeTVGcPtfX711UZrpqmWhSx31cMrpJebv8rDp/v9HPa7pgZYqiAKhyNDJVJ9bliuqqbJsbGy/No/3LyCiFS76mMve2fU/fl1JVO22bSdP0htRBdU2ZkXsys0w0raSOPa/OJqYlsGM4oomjOuhK5y8I0RQAZa5OTD5sHfO3nIBeTppbX6dTCrW5RLEUqts6shbT6MJx116cQ+qgfIzKN7tQx9syDHjzHy19vl1ODoIT0PtQS6R3YeSfFz6qAiAhjh75ynu79oLN4XTpM9Mc/UIRdV/+EyvA+JZQZZpEty6OTwglS9N8ujQlbGi/la4piH23WC1q62LNgGsRIbtrZeK17HKfn3J0BUCiKRhiaC+2+cirX5GrpA3NUTEDIThPOv9+blIzq3a6NCWsaybzWbyqngvRJsvIJAtb1xSSMnJXuYcBVxVaLdzrg93lsi0br9VCjpWS6IQCIJOIOjhpSZWkH/jNChaRyb+Kv38ZEtOAQN/YJ8GJw+n8xVPtM1YMxXR9ev/h4CLUO2NhSdMPTfMe4nfetWFqVYrt03c9WstlG0bCyDEA04WUliRtiSmCkz2hPY/r6pr8p9nm35WeRfClOkg19jaVlVzmLnx2YTaAFMIu+Q/bqpeuWFiGqFzNq6P8XSurx7x7OF+fQFtW2/oSlHuyExaAoqgywZ08eeqFetkVz6/KsbRGjfotTUatBl8WRv1D7Jzydpf5T+O/LAc3+hdftZvYbgDlP+T2m7fj4qfatDagkeUVRaBIpv6xBkJtW23rS7P8yWC7AS4X5cI7Dh6+9k6tJ3/hleGdkcKjVftC+iAPHb7uc032vFdj18qOq/LijLrDole0ZGEZKuvnXnXNb62vjz4f65cty2PI316sci7KV+17NFq/vck7YVH6Q74W4/3dBs9OKwAqoF4Mo7XkA9le0m2UuGNpSPMeb6a3xzCda8vbE+cOfqMyW436N8dviyFz7Oo7ePjl7x6N1u4ILccqdFCxFH6NgC0tbqHbStP8tIGXdvJclcFXE17q+P0yyx/o67uw8wpAXjlDUwQyk5sPOor94sn2Zb943zdd4p6Rs170uWqj/lksmlpOZqW56NyqdFC1FdJF8JZck+lfQXFLblvJy1l9nL3yzS5J/rDyIGHgxNRutK5C361GvVEA8vaUKQIjd/toNLo2P9enT3WgCijrUsOREnDRRfs+uND0t8Kj/lntS+bSZDT6oGU7VFvRAk5tB4LOKk+Xzh08fM3No2T0/rJKaR3Z+z5yq1PmJs9MrAJ7Xpu40W8ufE80yaTrz/p34Djd/LB2CR3Kb7J3CkDeRkK8gPO8mn7mo31FGXfZh6sX77S2n8se21LRtA6sntco6fiJZz1j795dV6RudMVo5PbXzUs7tmnTltOnzz02lBdMXRZ6Tr/x80zTy/2kpcvqpzd+wrnkca08CN/6FPMnJ+/f5DUuGd0waOtA1umnn+naoC2vh6afvVUA8oJvN0SXXG85GsvzK/spE5EWbdG67X17matT+5fTv3SVNhDpssJSti5C3CdmsApBmjy6RmBo1gFZh5xL79OqkF2y1FrUe+8VgCKUvONKRl4zDawQrFKjKTLnGAIQgECRgBSCPXv3vGA0Sl+QuLXDaZJe3VkrgR/ha0fK1G0eUYdfHPSsglI/KAWg2Ah1vFMhGF2WuORyPyq/wpu5Lxu55NLKPsbMHDT+jlcuvu01xCMy2Z45feZbfRvhT3PiOwQgAAFrAuddOhPFIEncKyu/gxsKOXFpuvv0/u6jdbZh8S94fNAKwAWlnXFCSkLRh6tb5IfVp3yF+y/58c90jHlXFPiDAAQg0B6BfJCmWA+lOomhUbxH9i0btOlo7sBNgzKX/tSl6RM+QPGx1KWP+3VUs3gPPVeMq9G7nPe4qPAHAQhAAAIQgAAEIAABCEAAAhCAAAQgAAEIQAACEIAABCAAAQhAAAIQgAAEIAABCEAAAhCAAAQgAAEIQAACEIAABCAAAQhAAAIQgAAEIAABCEAAAhCAAAQgAAEIQAACEIAABCAAAQhAAAIQgAAEIAABCEAAAhCAAAQgAAEIQAACEIAABCAAAQhAAAIQgAAEIAABCEAAAhCAAAQgAAEIQAACEIAABCAAAQhAAAIQgAAEIAABCEAAAhCAAAQgAAEIQAACEIAABCAAAQhAAAIQgAAEIAABCEAAAhCAAAQgAAEIQAACEIAABCAAAQhAAAIQgAAEIAABCEAAAhCAAAQgAAEIQAACEIAABCAAAQhAAAIQgAAEIAABCEAAAhCAAAQgAAEIQAACEIAABCAAAQhAAAIQgAAEIAABCEAAAhCAAAQgAAEIQAACEGiTQNJmYqQFAQhAAAIQgMCEwM//3F2+a81dlvM4t+me0PErPnXg377+9WNP5edjfaIAxCJPvhCAAAQg0BsC6sz37HFX+U7z0iR1z8wEX3P7/ed+f+7ZWwXZ71J3eZKc7/TLFjBNJ8qBS9zjW88cT517yG264+PEfffMGffI096xfa1ssgvvQwFYiIeLEIAABCCwagTU2e/d416RjNzVvpN8ie/UX1CnU7fg5pWCIz7dHcrByz524Kt1LAooABY1RJoQgAAEINB5Ai9+8YGL/uHGYwfX19x1zo/mfYf4ev/vcOcFnyGgVwzuTTfd5zc23f17bsuUhBl37TyFArCTB98gAAEIQGCgBDSy37fb/bbv7F/kzfiv68qovm3cciekifvoeOy+tMg6gALQNnnSgwAEIACBzhA4c6c7vL7bvbHPo/umMMeb7ta1/+D+83Q6KADTRPgOAQhAAAK9JnDuL9wrRyN3w5BH+VUrSLED5866G4ruARSAqhS5HwIQgAAEOkcgM+/vc7f5Tv/3h2rabwP62Ln/tHaL+xOlhQLQBlHSgAAEIACB4AQUxPfff+/Y6/xo/ybfmb0quAA9zXBz7N64/nb3ufWeyo/YEIAABCCwogTy0f7IHfvjFUXQqNh+euOrfQKfwwLQCCMPQwACEIBAKALnO35Hx98Q+v9+94GLMwVgC+r7R879bp6m9xP8l42z7s+LAQP5NT4hAAEIQAACoQjQ8bdPWm6ARGAv2usenhc0ocUFfOTgf0QRaL8CSBECEIAABOYToOOfCRYF1AAAGh1JREFUz6bpFQ3yR/v2uffP6/yVgQIrdu92D2/e5T6uymiaKc9DAAIQgAAElhHY+Av3Oxqcess05v5lsGpc9337s0eaJ1nmWbkHLt7nHvOKwPsUeVnmGe6BAAQgAAEIVCGggeb4Lve3ayP32UWD0yppcu9sAkl6l9/moOKflhkcp+42TSOo+Ci3QwACEIAABGYS2Px/3P85WnMfmXmRk60S0MJAiTQtmfnrpKwEfCDBO3a93X2pzvM8AwEIQAACEMhi0fa5+3xf1MuNePpYg+q/R36zgI/XFV6VtT5yfy8lQust102H5yAAAQhAYDUJyKV8EZ1/lMr3fbhzCvArTgGsK4miCk+dcn/0tHe4x+umwXMQgAAEILAaBNT5P3Tzsf+3rhV6NSjZlFKufN/vO+fXBb7JmwPubZrNdqCg9+MQKNiUJs9DAAIQGDaBr9107G10/vHqOLMA5Nm3ZQlQetl+xGN3x6wtCPP8+IQABCAAgdUl0GafY0FR/ZifC3+hRTudPSW+b7MWdigAAth2FCaKgEWzJE0IQAAC/Scw/kv3uGWnmXXgwjTpxI97S/c/b1E77jbd8TRxP9F3f/6n4w33k3ObvsP3f03c2Apo3LXmLhutu2f6DvZSP9X+mW7N7ffJ7u/S9sQKArxAAVDhtQCD5mDquK0/VQRTB9uiSToQgAAE+k+grgUgH5n7TuwhT2G7M9/ccN9VJ96kA7emqoD59TV3XbLmXu874Foz8NqQ0bO7d6YCoMQlpFYAbCOjYhooAkUaHEMAAhBYbQJeCXifHxn/fm4J6HPnXqcmM4Vgt3tHG4H4VfJX0P5cBUAJZXMzF+wTUCWz6XtlfmANgWkqfIcABCAAgVUkYGF5X8TRKwD/aaECoIetF2hAEVhURVyDAAQgAIFVIbDV334yhGsg2w2wLNi6vpqy6aMIlCXFfRCAAAQgMGQC1v2t2G2M3W8stQAUIctX4/0UpjszKTDBayZ/yvLCRfIcQwACEIDAqhCQJUCb71mW9+Qpd0UlBUDChPJTyCLglyl+HxsOWTYB0oYABCAAgS4SsLYCJLe4JFsJsErh1SHLdFDlmTr3es3ksKYiap6olI46afAMBCAAAQhAoJcENt03rOTOZlr4xCsrABJI5vmzZ93VeSJWQipdTQ3JFQEtUsQSw5a0SRsCEIAABLpAYGPT3W8mx9bqhrUUAAm15zZ35KnTXgloYQ+BMoWUIqB9ov/x5mMnFYsgH0mZ57gHAhCAAAQg0DcCv/6JA0etZPb9thZQqmcByIXSakujW9yrNZ8wPxfi02stf6wACRSBELTJAwIQgAAEQhP4+tePPWWW55Z7obYFoCiY303wT0LEBRTz1HFBEfi4VlOavs53CEAAAhCAAAR2EsjdC5VnAexMZuc3dcK7drtPK4Bv55Uw35hCGIYzuUAAAhCAgD2B9C7tU9T+n2YAKNVWLAC5eIoLeMndB16mNYbzcyE/fYletT5yfz++yz1MwGBI8uQFAQhAAAJ9IFCM22tVAVDh5bfwLoGbxpvu1lgwZIEgYDAWffKFAAQgAIGmBKxmvOUBgJIvMwM0FXTe8+f+wr1SI/J510Oexz0QkjZ5QQACEIBAEwJWqwEqXi9fabd1C0CxwMpEyw36zvdI8XyM46J7gIWFYtQAeUIAAhDoJwF1xlYj8nlE9uxxV8271uT8yz524Kv586YWgDwTfVova1jMq+yxpi+eOuXu1HTGss9wHwQgAAEIDJuAOvx9u91vJ2vu9Ro8FkurAW2IZeoVxyZXdjHvpseS3U/dvzpPJ5gCoAxD7SOQF67sp4IWfYV+OjeLlH2O+yAAAQhAYDgE1EeNRu6m6U5/Vgm1Eu65c+43Ffw+63rTcxaDZg16NW0/ly2oAqBMY08VzAs+61MVmo7dHafOuv+KVWAWIc5BAAIQGBYB9Unru90bta5MnZJpWXwLJUCz2XwH3eqUer/T7huLG+yZxgDMglmYKhh09cBZskyfy5cb1iqDHv7fKohx+h6+QwACEIBAvwnIn6/RvjrZ3bvdw3U7f1HQ8xY02u78JePpM+7LRVmDWwCKmXdplkBRruJxZhVI3EeJFShS4RgCEIBA/whsjfbf4Tv8321T+umRddO0LWYAqC8b/R8799DxHOL9FWYJ3BtPisU5Z1aBrb0HsAosZsVVCEAAAl0joM5UAXWF0X6rnb/K6+MGtv3qbZTfYgZAmrgvTsu2Pn0i9PctX/urLSIe2y6LN5dopcFXjf/SxwpgFWgbL+lBAAIQaI2ALMy+Y76h7dF+awIuSMjL/coFl2tdUqD79INRXQDTwmQBgrvc32nUPX2tq9+1wJAH+/F//7EDXzTdvamrAJALAhCAQEcIbE/fG7n3hOxHpqfXNcUha7MGnE3TyZ+fZf7XtagugFy4/DMLEPzogedqWl5+ruufqqS1kfvsP9587KSmbRA42PUaQz4IQGBoBPTeVaepAG7NnQ/Z+W+xPN4m0zY7f8kli/Us+TplASgK2IcAwaK808eab7lx1n3WYnrIdF58hwAEILBqBLLR/j53W5K634/Q4e/AXVxed8eFGl9kCW97ZsG8qYqdVQDETRV80T73yba1oRp1UvsRZhHURseDEIAABHYQ2Dbxz1ihb8eNAb+0bf73luT3edN8rTUJZhV7nvlf93ZaAcgL04cAwVzWRZ9qKOmmu4uFhhZR4hoEIACB8wS62Omfl865eaPr4j1Vjtv2/0+v/leUpRcKgATOAgR3u097gVtdGakII+QxwYMhaZMXBCDQJwJd7/Rzlm13/lqgSPFkefptfC6SsTcKQA5iKNaAvDz6RBko0uAYAhBYRQJ96fTzulnUseb3VP1sO/ZtmXuidwqAgG5ZA/5vL3xr0ySqVpTV/VIGvJvg87gJrAiTLgQg0BUCfev0xU3v6KdOubda7BfTtv9/vOluXfsP7j/Pq+9eKgB5YYZoDcjLpk+UgSINjiEAgSEQ6GOnn3Nf1qHm99X91GqFvlNuzc198pS7YpGi0msFQJDVmPo+U6BMY5EphwDCMqS4BwIQ6BqBPnf6Yqn377mz7gbLad1ipHUM2qo7yTy6xV29KL3eKwB54bSzkxbkyb8P+TNTBpz7POsMDLmWKRsE+k2g751+Tn9RFH1+TxufbVu0y1grBqMAqAKyBrfPvb+Paz/XbUBb6wx8Ues8v+xjB77KcsR1SfIcBCDQlIDis9Z3uzf6juUl/l+vY7T0bj13zv2m5ai/yLvt6X/LzP/Ke1AKQA5T1oBR4u6MvTpULk/IT28dyIIINzbd/aEabsjykRcEINAdAhp07d3jXpGM3KuHNPDyo/7/8tK7D9wWakDVtvm/rNVikAqAfh6aT/m1m4/dOaRGWfVnn69C6K0DX8I6UJUe90MAArMIaKqadqvzncfr/b/WAtZm5RXjXJvL+paVv23zf5nRv2QbrAKQg1dj9bEBfz7EhpqXsexnbh1gimFZYtwHAQgMxZe/rCY16j91yv3Roqj5ZWnUvd5m9L/KsXaLu6mMLINXAHIIbWtYebp9/SxaB86ccY/EaPR9ZYfcEBgyAVlPv/p7x17mR/k3+I12Xjd0V6rehZupe9Out7svxajXts3/ZUf/KuvKKAAqbKbJrliQoMpd5i+fWYC7oAwt7oHAsAgMKXivSs3IV+59/e8P5eufJVubg9Mqo3/JslIKQA5/yCsJ5mVs+olC0JQgz0OguwQ0GBpi8F5Z4nq/Wc/rLytLm+b/qssTr6QCkFfMKs8WyBmU/UQhKEuK+yDQPQLZCH/NXefW3ItWway/qAbKzI9f9Hyb19o0//t39L1+4Z9XV5FvpRUAgdqaLfBHbe6/XKUC+npvUSEghqCvtYjcQyRQ8OErUr/38/HbqiOZx2MF+c0rQ5vm/6qjf8m08gpAXjHSxFZhSeG8vG1/bgUVftFtum+wBkHbdEkPAvMJFM35Wx3+4KbmzS/98iuxg/wWSdiW+b/O6F9yoQBM1U42bTBxnxl65OtUsU2+5laCdOwePn3GfZmZBiaYSXSFCGyP7lP3q8laNg+/16vtWVddF4L85pWxTfN/3bULUABm1E7mFrjp2NtGa+4jMy5zqiaBopVgnLjvsjhRTZA8tjIECqP7q/3LepAL71hUZhfN/dPlbGvr37qjf8mDAjBdK4Xv+vHt2+duIz6gAKXlwy0rwUNyHUgpIJ6gZcAk1xsCet/s2eOuGvnRPcF69apNnaGP7v+PfVgGvS3zf93RvwijAJRoZ1uKwEptMlQCi9ktshT4lvkt/2N+SO6DzQ333T78oM2AkPCgCMjC+A83Hju4tu7N+COnkT2Beg1ruMt+/llF06yM3bvdw7OuVTnXZPSvfFAAKtBGEagAy+DWorVAgYa//okDR2Mu4GFQRJIcGAG96Isdvd9Y/gXEF7VbyV2a1le2ZG2Z/+tE/hdlRAEo0ih5zEJCJUEFuK1oLfBuhOO4EQJAJ4sLCFxgvp+M6onGv4BUeye6HOC3rJRtmP9Vfr/m/58sy2vRdRSARXSWXGOjoSWAIl/ethg4dzx3JWA1iFwpPc9eHf2uNXfZer6ojnPP9i9RIvED1msfAvwW4WjD/K+Bz0s+euC5TS2gKACLaqrkNRSBkqA6ctssq8F4w/0E5aAjFRRRjLyDz8z2qXtmFoznO3lM9xErZStr+bv7EuC3iFYb5v/NsXvj+tvd5xblU+YaCkAZSiXvYWnhkqA6fpssB17E4/5TsxOOp4n7iQIRz226J1jLoOOVt0Q8OvglgDp4eSgdf452/Jfu8SZxIOJRdcnfPO/pTxSAaSItfNfyjj669z1NKrkFMUjCiEDBgvDPPovMveB/lD+VFQElwQh6yWRndPD7/UvuJf5xfeKTL8mxC7cNreMXUw0S10bus034Vtnud1k+KADLCDW4nlkERu5PePE0gNjjR7cUhcd9EWRNyJSF3KKAwrC8YvPOfLTunul/Q5f6TWxkkt+/9aQ69Gf74/3ePH85yvZynn25Y4gdf87eB//9rW+3tWNG2jL95/J4WfizJkCMgDXhYaRfVBhUoi2lQYfH9Z+UB33IJSEFQse51UHHsd0Tmt/+5bcc+wXJoj8Fy02OnFMnnh/Tmeck+CwSGHLHr3JKob14n3usWOYqxwp+9FH/N1V5Ztm9KADLCLV4fUsReFcTDbBFcUhqRQhkikWxrImTVWL6b6JkTJ/VCDv/8yNtHTLazoHw2QaBoXf8OaMmwX/6DbcR9Z/Lkn+iAOQkAn5qGsj6bvcOv8Tw7wbMlqwgAAEIdIaARrQbZ92fr8oqn02C/5ou+DOv0lEA5pEJcF4mIb/XAEsMB2BNFhCAQDcIaAGbU6fcnbFdViFpyPq7PnJ/XydPy5UOUQDq1EjLz2wpAmw61DJXkoMABLpBQCZsvxjXHS/9+IG/arp4TTdKVE0Kb/7/eB2Lr9wjbU35myUxCsAsKpHOoQhEAk+2EICACQHfgR0Zj9372li0xkTAAInWDf4Tu6dOuestLSUoAAEaQJ0smEJYhxrPQAACXSCwKoF9ZVhrXZjRmvtImXuL97Q537+YbvEYBaBIo4PHBAx2sFIQCQIQmEmg7+v0zyxUw5N1Nv6xCvqbLgoKwDSRjn7XHOuv3XTsbaww2NEKQiwIrCgBmarTTXfXqvr3F1V7nY1/NsbuN3a93X1pUbptXUMBaItkwHRYTyAgbLKCAARmEli1aXwzISw5WTX4zzLif5aoKACzqPTkXB406JdI/X0WZ+lJpSEmBHpMgNF++cqT1fYfbz52suwToTt/yYUCULZ2On7fVtDgTb5Ca68z3fEiIh4EIBCJAKP96uCrBP/F6PxVIhSA6vXa6Se2ggbf6Oec/nGnBUU4CECg0wQY7TernrIb/7S9wU8VqVEAqtDq2b2KFRiN3A11FqDoWVERFwIQaIFAtmBP4j7ql+j97Kos0dsCtplJpHdpP6/FfzE7f0mGArC4fgZxVb6o//57x17nlQFcBIOoUQoBgXYJyMTvF+z5dKjo83al715qZfz/IaP95xFCAZhHZqDns8DB3e63kzV3i6/8wwMtJsWCAASWEPDD03t9p//xf/+xA19cxeV5l+BpfHne5j9yrZw7627ogoUFBaBxNfc3gTxegFkE/a1DJIdAFQLq9P2c/c+fOuv+q+USs1VkGuq90xsAyb0yTt1tXVoWGQVgqK2vYrmIF6gIjNsh0BMCGnFqoR46/fAVJlfAl99y7BeU8ys+deDfumZpQQEI3yY6nWMeL+BXHHw1wYOdriqEg8BcAnT6c9FwoUAABaAAg8OdBKQMfPX3jr1MMwm8m+B1LDa0kw/fINAlApj3u1Qb/ZAFBaAf9dQJKYkZ6EQ1IAQEtgkoej8du78lkG8bCQcVCKAAVIDFrecJZMrAmruO2QTnmXAEgRAEmLIXgvJq5IECsBr1bFrKwtTC1/sGxVLEprRJfNUI5Kb9jU13fxemjq0a/yGXFwVgyLUboWzFIELiBiJUAFn2ngAdfu+rsDcFQAHoTVX1U9DcOuDW3IuYVdDPOkRqWwJZh+/cQ35Rni+xEp8ta1LfSQAFYCcPvhkTKMQO4C4wZk3y3STgO/wj/t/n1eG/7GMHvtq1ueHdpIZUFgRQACyokmZpAtszC5x7iW+MxA+UJseNfSFAh9+Xmlo9OVEAVq/OO1viwroDr/QNUxYC9irobG0h2DwCeYfvp+c9fPqM+zJL7s4jxfnYBFAAYtcA+S8kkC1RnLpfVQwBQYULUXExEoGtLXS/qPn4dPiRKoFsaxFAAaiFjYdiEVBQ4Z497iq/OqGsBLgNYlXEiua7Nbp/yG26b4wT990zZ9wjjPBXtDEMoNgoAAOoxFUvgpSCvXvcK/z+BVf7Bo3rYNUbREvl9539vf7fQzLlb2647zIHvyWwJNMZAigAnakKBGmTQD7bIHMdOPds39AJMGwT8IDSYlQ/oMqkKJUIoABUwsXNfSaw7T6YxBTs943/JS51L2CToz7XajXZGdVX48XdwyaAAjDs+qV0JQho9sE/3Hjs4Nq6+9UtNwKKQQluXb4lD8zzMh7XfHt89V2uLWSLRQAFIBZ58u08gWnFwAssq8Gztz6ZohixBmW299kf95//rIC8NHE/8cc/HW+4n/z6Jw4cZXGdiJVD1r0hgALQm6pC0K4RyBWE0bp75mjLreBlzF0Ll+NaqFdjOzp3dfI+CI/OvR5LnoLAIgIoAIvocA0CDQko7mDXmrsscy+k7pk+KHG/T1L/XG5N8HEIK6Ms0Lk3bFA8DoEWCaAAtAiTpCDQlECuMCgdWRb8D/RSvwBSrjjodO6G0LH+MmVicuj/98pEflzXAiH/uddOHt9K53ienu+8/3n6nDe/Z9dlgtc1jdT1KVO8Ps9t+rT83ys+deDfMMuLBH8QgAAEIACBSATkupCioX86jiQG2UIAAhCAAAQgAAEIQAACEIAABCAAAQhAAAIQgAAEIAABCEAAAhCAAAQgAAEIQAACEIAABCAAAQhAAAIQgAAEIAABCEAAAhCAAAQgAAEIQAACEIAABCAAAQhAAAIQgAAEIAABCEAAAhCAAAQgAAEIQAACEIAABCAAAQhAAAIQgAAEIAABCEAAAhCAAAQgAAEIQAACEIAABCAAAQhAAAIQgAAEIAABCEAAAhCAAAQgAAEIQAACEIAABCAAAQhAAAIQgAAEIAABCEAAAhCAAAQgAAEIQAACEIAABCAAAQhAAAIQgAAEIAABCEAAAhCAAAQgAAEIQAACEIAABCAAAQhAAAIQgAAEIAABCEAAAhCAAAQgAAEIQAACEIAABCAAAQhAAAIQgAAEIAABCEAAAhCAAAQgAAEIQAACEIAABCAAAQhAAAIQgAAEIAABCEAAAhCAAAQgAAEIQAACEIAABCAAAQhAAAIQgAAEIAABCEAAAhCAAAQgAAEIQAACEIAABCAAAQhAAAIQgAAEIAABCEAAAhCAAAQgAAEIQAACEIAABCAAAQhAAAIQgAAEIAABCEAAAhCAAAQgAAEIQAACEIAABCAAAQhAAAIQgAAEIAABCEAAAhCAAAQgAAEIQAACEIAABCAAAQhAAAIQgAAEIAABCEAAAhCAAAQgAAEIQAACEIAABCAAAQhAAAIQgAAEIAABCEAAAhCAAAQgAAEIQAACEIAABCAAAQhAAAIQgAAEIAABCEAAAhCAAAQgAAEIQAACEIAABCAAAQhAAAIQgAAEIAABCEAAAhCAAAQgAAEIQAACEIAABCAAAQhAAAIQgAAEIAABCEAAAhCAAAQgAAEIQAACEIAABCAAAQhAAAIQgAAEIAABCEAAAhCAAAQgAAEIQAACEIAABCAAAQhAAAIQgAAEIAABCEAAAhCAAAQgAAEIQAACEIAABCAAAQhAAAIQgAAEIAABCEAAAhCAAAQgAAEIQAACEIAABCAAAQhAAAIQgAAEIAABCEAAAhCAAAQgAAEIQAACEIAABCAAAQhAAAIQgAAEIAABCEAAAhCAAAQgAAEIQAACEIAABCAAAQhAAAIQgAAEIAABCEAAAhCAAAQgAAEIQAACEIAABCAAAQhAAAIQgAAEIAABCEAAAhCAAAQgAAEIQAACEIAABCAAAQhAAAIQgAAEIAABCEAAAhCAAAQgAAEIQAACEIAABCAAAQhAAAIQgAAEIAABCEAAAhCAAAQgAAEIQAACEIAABCAAAQhAAAIQgAAEIAABCEAAAhCAAAQgAAEIQAACEIAABCAAAQhAAAIQgAAEIAABCEAAAhCAAAQgAAEIQAACEIAABCAAAQhAAAIQgAAEIAABCEAAAhCAAAQgAAEIQAACEIAABCAAAQhAAAIQgAAEIAABCEAAAhCAAAQgAAEIQAACEIAABCAAAQhAAAIQgAAEIAABCEAAAhCAAAQgAAEIQAACEIAABCAAAQhAAAIQgEDnCPz/9OL3ztf6tJAAAAAASUVORK5CYII=;" vertex="1" parent="1">
          <mxGeometry x="90" y="-1029" width="60.5" height="60.5" as="geometry" />
        </mxCell>
        <mxCell id="sSLhhHWNK1iGTZtY2KjP-2" value="EventBridge" style="sketch=0;points=[[0,0,0],[0.25,0,0],[0.5,0,0],[0.75,0,0],[1,0,0],[0,1,0],[0.25,1,0],[0.5,1,0],[0.75,1,0],[1,1,0],[0,0.25,0],[0,0.5,0],[0,0.75,0],[1,0.25,0],[1,0.5,0],[1,0.75,0]];outlineConnect=0;fontColor=#232F3E;fillColor=#E7157B;strokeColor=#ffffff;dashed=0;verticalLabelPosition=bottom;verticalAlign=top;align=center;html=1;fontSize=12;fontStyle=0;aspect=fixed;shape=mxgraph.aws4.resourceIcon;resIcon=mxgraph.aws4.eventbridge;" vertex="1" parent="1">
          <mxGeometry x="604" y="-330" width="78" height="78" as="geometry" />
        </mxCell>
      </root>
    </mxGraphModel>
  </diagram>
  <diagram id="YsqIyYx4wD1_IGP2f2Wb" name="Class Diagram">
    <mxGraphModel dx="1422" dy="737" grid="1" gridSize="10" guides="1" tooltips="1" connect="1" arrows="1" fold="1" page="1" pageScale="1" pageWidth="827" pageHeight="1169" math="0" shadow="0">
      <root>
        <mxCell id="eOnlVwyT8FNw87Wj_yG8-0" />
        <mxCell id="eOnlVwyT8FNw87Wj_yG8-1" parent="eOnlVwyT8FNw87Wj_yG8-0" />
        <mxCell id="eOnlVwyT8FNw87Wj_yG8-9" value="AWSSampler" style="swimlane;fontStyle=1;align=center;verticalAlign=top;childLayout=stackLayout;horizontal=1;startSize=26;horizontalStack=0;resizeParent=1;resizeParentMax=0;resizeLast=0;collapsible=1;marginBottom=0;" parent="eOnlVwyT8FNw87Wj_yG8-1" vertex="1">
          <mxGeometry x="1050" y="200" width="210" height="190" as="geometry" />
        </mxCell>
        <mxCell id="eOnlVwyT8FNw87Wj_yG8-10" value="+ field: type" style="text;strokeColor=none;fillColor=none;align=left;verticalAlign=top;spacingLeft=4;spacingRight=4;overflow=hidden;rotatable=0;points=[[0,0.5],[1,0.5]];portConstraint=eastwest;" parent="eOnlVwyT8FNw87Wj_yG8-9" vertex="1">
          <mxGeometry y="26" width="210" height="26" as="geometry" />
        </mxCell>
        <mxCell id="eOnlVwyT8FNw87Wj_yG8-11" value="" style="line;strokeWidth=1;fillColor=none;align=left;verticalAlign=middle;spacingTop=-1;spacingLeft=3;spacingRight=3;rotatable=0;labelPosition=right;points=[];portConstraint=eastwest;" parent="eOnlVwyT8FNw87Wj_yG8-9" vertex="1">
          <mxGeometry y="52" width="210" height="8" as="geometry" />
        </mxCell>
        <mxCell id="eOnlVwyT8FNw87Wj_yG8-13" value="+ newSampleResult(): SampleResult &#xa;" style="text;strokeColor=none;fillColor=none;align=left;verticalAlign=top;spacingLeft=4;spacingRight=4;overflow=hidden;rotatable=0;points=[[0,0.5],[1,0.5]];portConstraint=eastwest;" parent="eOnlVwyT8FNw87Wj_yG8-9" vertex="1">
          <mxGeometry y="60" width="210" height="26" as="geometry" />
        </mxCell>
        <mxCell id="eOnlVwyT8FNw87Wj_yG8-14" value="+ sampleResultStart(): void " style="text;strokeColor=none;fillColor=none;align=left;verticalAlign=top;spacingLeft=4;spacingRight=4;overflow=hidden;rotatable=0;points=[[0,0.5],[1,0.5]];portConstraint=eastwest;" parent="eOnlVwyT8FNw87Wj_yG8-9" vertex="1">
          <mxGeometry y="86" width="210" height="26" as="geometry" />
        </mxCell>
        <mxCell id="eOnlVwyT8FNw87Wj_yG8-15" value="+ sampleResultSuccess(): void " style="text;strokeColor=none;fillColor=none;align=left;verticalAlign=top;spacingLeft=4;spacingRight=4;overflow=hidden;rotatable=0;points=[[0,0.5],[1,0.5]];portConstraint=eastwest;" parent="eOnlVwyT8FNw87Wj_yG8-9" vertex="1">
          <mxGeometry y="112" width="210" height="26" as="geometry" />
        </mxCell>
        <mxCell id="eOnlVwyT8FNw87Wj_yG8-16" value="+ sampleResultFail(): void" style="text;strokeColor=none;fillColor=none;align=left;verticalAlign=top;spacingLeft=4;spacingRight=4;overflow=hidden;rotatable=0;points=[[0,0.5],[1,0.5]];portConstraint=eastwest;" parent="eOnlVwyT8FNw87Wj_yG8-9" vertex="1">
          <mxGeometry y="138" width="210" height="26" as="geometry" />
        </mxCell>
        <mxCell id="eOnlVwyT8FNw87Wj_yG8-12" value="+ getNewLogger(): Logger " style="text;strokeColor=none;fillColor=none;align=left;verticalAlign=top;spacingLeft=4;spacingRight=4;overflow=hidden;rotatable=0;points=[[0,0.5],[1,0.5]];portConstraint=eastwest;" parent="eOnlVwyT8FNw87Wj_yG8-9" vertex="1">
          <mxGeometry y="164" width="210" height="26" as="geometry" />
        </mxCell>
        <mxCell id="eOnlVwyT8FNw87Wj_yG8-25" value="" style="group" parent="eOnlVwyT8FNw87Wj_yG8-1" vertex="1" connectable="0">
          <mxGeometry x="360" width="270" height="121" as="geometry" />
        </mxCell>
        <mxCell id="eOnlVwyT8FNw87Wj_yG8-22" value="«interface»&lt;br&gt;&lt;b&gt;AWSClient&lt;br&gt;&lt;br&gt;&lt;br&gt;&lt;br&gt;&lt;br&gt;&lt;br&gt;&lt;br&gt;&lt;/b&gt;" style="html=1;" parent="eOnlVwyT8FNw87Wj_yG8-25" vertex="1">
          <mxGeometry width="270" height="121" as="geometry" />
        </mxCell>
        <mxCell id="eOnlVwyT8FNw87Wj_yG8-23" value="" style="line;strokeWidth=1;fillColor=none;align=left;verticalAlign=middle;spacingTop=-1;spacingLeft=3;spacingRight=3;rotatable=0;labelPosition=right;points=[];portConstraint=eastwest;" parent="eOnlVwyT8FNw87Wj_yG8-25" vertex="1">
          <mxGeometry y="34" width="270" height="8" as="geometry" />
        </mxCell>
        <mxCell id="eOnlVwyT8FNw87Wj_yG8-7" value="+ getAWSAccessKeyId(credentials): String" style="text;strokeColor=none;fillColor=none;align=left;verticalAlign=top;spacingLeft=4;spacingRight=4;overflow=hidden;rotatable=0;points=[[0,0.5],[1,0.5]];portConstraint=eastwest;" parent="eOnlVwyT8FNw87Wj_yG8-25" vertex="1">
          <mxGeometry y="63" width="270" height="26" as="geometry" />
        </mxCell>
        <mxCell id="eOnlVwyT8FNw87Wj_yG8-8" value="+ getAWSRegion(credentials): String" style="text;strokeColor=none;fillColor=none;align=left;verticalAlign=top;spacingLeft=4;spacingRight=4;overflow=hidden;rotatable=0;points=[[0,0.5],[1,0.5]];portConstraint=eastwest;" parent="eOnlVwyT8FNw87Wj_yG8-25" vertex="1">
          <mxGeometry y="34" width="270" height="26" as="geometry" />
        </mxCell>
        <mxCell id="eOnlVwyT8FNw87Wj_yG8-5" value="+ getAWSSecretAccessKey(credentials): String" style="text;strokeColor=none;fillColor=none;align=left;verticalAlign=top;spacingLeft=4;spacingRight=4;overflow=hidden;rotatable=0;points=[[0,0.5],[1,0.5]];portConstraint=eastwest;" parent="eOnlVwyT8FNw87Wj_yG8-25" vertex="1">
          <mxGeometry y="95" width="270" height="26" as="geometry" />
        </mxCell>
        <mxCell id="eOnlVwyT8FNw87Wj_yG8-26" value="" style="group" parent="eOnlVwyT8FNw87Wj_yG8-1" vertex="1" connectable="0">
          <mxGeometry x="1010" width="300" height="140" as="geometry" />
        </mxCell>
        <mxCell id="eOnlVwyT8FNw87Wj_yG8-27" value="«interface»&lt;br&gt;&lt;b&gt;JavaSamplerClient&lt;br&gt;&lt;br&gt;&lt;br&gt;&lt;br&gt;&lt;br&gt;&lt;br&gt;&lt;br&gt;&lt;br&gt;&lt;br&gt;&lt;/b&gt;" style="html=1;" parent="eOnlVwyT8FNw87Wj_yG8-26" vertex="1">
          <mxGeometry width="300" height="140" as="geometry" />
        </mxCell>
        <mxCell id="eOnlVwyT8FNw87Wj_yG8-28" value="" style="line;strokeWidth=1;fillColor=none;align=left;verticalAlign=middle;spacingTop=-1;spacingLeft=3;spacingRight=3;rotatable=0;labelPosition=right;points=[];portConstraint=eastwest;" parent="eOnlVwyT8FNw87Wj_yG8-26" vertex="1">
          <mxGeometry y="30.00032506887053" width="300" height="9.25619834710744" as="geometry" />
        </mxCell>
        <mxCell id="eOnlVwyT8FNw87Wj_yG8-29" value="+ runTest(JavaSamplerContext context): SampleResult" style="text;strokeColor=none;fillColor=none;align=left;verticalAlign=top;spacingLeft=4;spacingRight=4;overflow=hidden;rotatable=0;points=[[0,0.5],[1,0.5]];portConstraint=eastwest;" parent="eOnlVwyT8FNw87Wj_yG8-26" vertex="1">
          <mxGeometry y="58.960093663911856" width="300" height="30.082644628099175" as="geometry" />
        </mxCell>
        <mxCell id="eOnlVwyT8FNw87Wj_yG8-30" value="+ setupTest(JavaSamplerContext context): void" style="text;strokeColor=none;fillColor=none;align=left;verticalAlign=top;spacingLeft=4;spacingRight=4;overflow=hidden;rotatable=0;points=[[0,0.5],[1,0.5]];portConstraint=eastwest;" parent="eOnlVwyT8FNw87Wj_yG8-26" vertex="1">
          <mxGeometry y="34.25744903581268" width="300" height="30.082644628099175" as="geometry" />
        </mxCell>
        <mxCell id="eOnlVwyT8FNw87Wj_yG8-31" value="+ teardownTest(JavaSamplerContext context): void" style="text;strokeColor=none;fillColor=none;align=left;verticalAlign=top;spacingLeft=4;spacingRight=4;overflow=hidden;rotatable=0;points=[[0,0.5],[1,0.5]];portConstraint=eastwest;" parent="eOnlVwyT8FNw87Wj_yG8-26" vertex="1">
          <mxGeometry y="83.40868870523417" width="300" height="30.082644628099175" as="geometry" />
        </mxCell>
        <mxCell id="eOnlVwyT8FNw87Wj_yG8-32" value="+ getDefaultParameters(): Arguments" style="text;strokeColor=none;fillColor=none;align=left;verticalAlign=top;spacingLeft=4;spacingRight=4;overflow=hidden;rotatable=0;points=[[0,0.5],[1,0.5]];portConstraint=eastwest;" parent="eOnlVwyT8FNw87Wj_yG8-26" vertex="1">
          <mxGeometry y="109.08535537190086" width="300" height="30.082644628099175" as="geometry" />
        </mxCell>
        <mxCell id="eOnlVwyT8FNw87Wj_yG8-33" value="KinesisProducerSampler" style="swimlane;fontStyle=1;align=center;verticalAlign=top;childLayout=stackLayout;horizontal=1;startSize=26;horizontalStack=0;resizeParent=1;resizeParentMax=0;resizeLast=0;collapsible=1;marginBottom=0;" parent="eOnlVwyT8FNw87Wj_yG8-1" vertex="1">
          <mxGeometry y="550" width="310" height="86" as="geometry" />
        </mxCell>
        <mxCell id="eOnlVwyT8FNw87Wj_yG8-51" value="+ KinesisClient kinesisClient" style="text;strokeColor=none;fillColor=none;align=left;verticalAlign=top;spacingLeft=4;spacingRight=4;overflow=hidden;rotatable=0;points=[[0,0.5],[1,0.5]];portConstraint=eastwest;" parent="eOnlVwyT8FNw87Wj_yG8-33" vertex="1">
          <mxGeometry y="26" width="310" height="26" as="geometry" />
        </mxCell>
        <mxCell id="eOnlVwyT8FNw87Wj_yG8-35" value="" style="line;strokeWidth=1;fillColor=none;align=left;verticalAlign=middle;spacingTop=-1;spacingLeft=3;spacingRight=3;rotatable=0;labelPosition=right;points=[];portConstraint=eastwest;" parent="eOnlVwyT8FNw87Wj_yG8-33" vertex="1">
          <mxGeometry y="52" width="310" height="8" as="geometry" />
        </mxCell>
        <mxCell id="eOnlVwyT8FNw87Wj_yG8-36" value="+ createPutRecordRequest(context): PutRecordRequest" style="text;strokeColor=none;fillColor=none;align=left;verticalAlign=top;spacingLeft=4;spacingRight=4;overflow=hidden;rotatable=0;points=[[0,0.5],[1,0.5]];portConstraint=eastwest;" parent="eOnlVwyT8FNw87Wj_yG8-33" vertex="1">
          <mxGeometry y="60" width="310" height="26" as="geometry" />
        </mxCell>
        <mxCell id="eOnlVwyT8FNw87Wj_yG8-37" value="Extends" style="endArrow=block;endSize=16;endFill=0;html=1;exitX=0.5;exitY=0;exitDx=0;exitDy=0;entryX=0.138;entryY=1;entryDx=0;entryDy=0;entryPerimeter=0;" parent="eOnlVwyT8FNw87Wj_yG8-1" source="eOnlVwyT8FNw87Wj_yG8-33" target="eOnlVwyT8FNw87Wj_yG8-12" edge="1">
          <mxGeometry width="160" relative="1" as="geometry">
            <mxPoint x="270" y="430" as="sourcePoint" />
            <mxPoint x="440" y="400" as="targetPoint" />
            <Array as="points">
              <mxPoint x="155" y="430" />
              <mxPoint x="390" y="430" />
              <mxPoint x="1079" y="430" />
            </Array>
          </mxGeometry>
        </mxCell>
        <mxCell id="eOnlVwyT8FNw87Wj_yG8-38" value="SQSProducerSampler" style="swimlane;fontStyle=1;align=center;verticalAlign=top;childLayout=stackLayout;horizontal=1;startSize=26;horizontalStack=0;resizeParent=1;resizeParentMax=0;resizeLast=0;collapsible=1;marginBottom=0;" parent="eOnlVwyT8FNw87Wj_yG8-1" vertex="1">
          <mxGeometry x="513" y="550" width="230" height="164" as="geometry" />
        </mxCell>
        <mxCell id="eOnlVwyT8FNw87Wj_yG8-50" value="+ SqsClient sqsClient" style="text;strokeColor=none;fillColor=none;align=left;verticalAlign=top;spacingLeft=4;spacingRight=4;overflow=hidden;rotatable=0;points=[[0,0.5],[1,0.5]];portConstraint=eastwest;" parent="eOnlVwyT8FNw87Wj_yG8-38" vertex="1">
          <mxGeometry y="26" width="230" height="26" as="geometry" />
        </mxCell>
        <mxCell id="eOnlVwyT8FNw87Wj_yG8-40" value="" style="line;strokeWidth=1;fillColor=none;align=left;verticalAlign=middle;spacingTop=-1;spacingLeft=3;spacingRight=3;rotatable=0;labelPosition=right;points=[];portConstraint=eastwest;" parent="eOnlVwyT8FNw87Wj_yG8-38" vertex="1">
          <mxGeometry y="52" width="230" height="8" as="geometry" />
        </mxCell>
        <mxCell id="eOnlVwyT8FNw87Wj_yG8-42" value="+ buildMessageAttributes(msgAttributes)" style="text;strokeColor=none;fillColor=none;align=left;verticalAlign=top;spacingLeft=4;spacingRight=4;overflow=hidden;rotatable=0;points=[[0,0.5],[1,0.5]];portConstraint=eastwest;" parent="eOnlVwyT8FNw87Wj_yG8-38" vertex="1">
          <mxGeometry y="60" width="230" height="26" as="geometry" />
        </mxCell>
        <mxCell id="eOnlVwyT8FNw87Wj_yG8-43" value="+ buildMsgAttributesStr(msgAttributes)" style="text;strokeColor=none;fillColor=none;align=left;verticalAlign=top;spacingLeft=4;spacingRight=4;overflow=hidden;rotatable=0;points=[[0,0.5],[1,0.5]];portConstraint=eastwest;" parent="eOnlVwyT8FNw87Wj_yG8-38" vertex="1">
          <mxGeometry y="86" width="230" height="26" as="geometry" />
        </mxCell>
        <mxCell id="eOnlVwyT8FNw87Wj_yG8-44" value="+ buildMsgAttributeNum(msgAttributes)" style="text;strokeColor=none;fillColor=none;align=left;verticalAlign=top;spacingLeft=4;spacingRight=4;overflow=hidden;rotatable=0;points=[[0,0.5],[1,0.5]];portConstraint=eastwest;" parent="eOnlVwyT8FNw87Wj_yG8-38" vertex="1">
          <mxGeometry y="112" width="230" height="26" as="geometry" />
        </mxCell>
        <mxCell id="eOnlVwyT8FNw87Wj_yG8-41" value="+ buildMsgAttributesBin(msgAttributes)" style="text;strokeColor=none;fillColor=none;align=left;verticalAlign=top;spacingLeft=4;spacingRight=4;overflow=hidden;rotatable=0;points=[[0,0.5],[1,0.5]];portConstraint=eastwest;" parent="eOnlVwyT8FNw87Wj_yG8-38" vertex="1">
          <mxGeometry y="138" width="230" height="26" as="geometry" />
        </mxCell>
        <mxCell id="eOnlVwyT8FNw87Wj_yG8-46" value="SQSProducerFifoQueue" style="swimlane;fontStyle=1;align=center;verticalAlign=top;childLayout=stackLayout;horizontal=1;startSize=26;horizontalStack=0;resizeParent=1;resizeParentMax=0;resizeLast=0;collapsible=1;marginBottom=0;" parent="eOnlVwyT8FNw87Wj_yG8-1" vertex="1">
          <mxGeometry x="370" y="780" width="230" height="60" as="geometry" />
        </mxCell>
        <mxCell id="eOnlVwyT8FNw87Wj_yG8-48" value="" style="line;strokeWidth=1;fillColor=none;align=left;verticalAlign=middle;spacingTop=-1;spacingLeft=3;spacingRight=3;rotatable=0;labelPosition=right;points=[];portConstraint=eastwest;" parent="eOnlVwyT8FNw87Wj_yG8-46" vertex="1">
          <mxGeometry y="26" width="230" height="8" as="geometry" />
        </mxCell>
        <mxCell id="eOnlVwyT8FNw87Wj_yG8-49" value="+ createSendMessageRequest(context)" style="text;strokeColor=none;fillColor=none;align=left;verticalAlign=top;spacingLeft=4;spacingRight=4;overflow=hidden;rotatable=0;points=[[0,0.5],[1,0.5]];portConstraint=eastwest;" parent="eOnlVwyT8FNw87Wj_yG8-46" vertex="1">
          <mxGeometry y="34" width="230" height="26" as="geometry" />
        </mxCell>
        <mxCell id="eOnlVwyT8FNw87Wj_yG8-52" value="SQSProducerStandardQueue" style="swimlane;fontStyle=1;align=center;verticalAlign=top;childLayout=stackLayout;horizontal=1;startSize=26;horizontalStack=0;resizeParent=1;resizeParentMax=0;resizeLast=0;collapsible=1;marginBottom=0;" parent="eOnlVwyT8FNw87Wj_yG8-1" vertex="1">
          <mxGeometry x="630" y="780" width="230" height="60" as="geometry" />
        </mxCell>
        <mxCell id="eOnlVwyT8FNw87Wj_yG8-53" value="" style="line;strokeWidth=1;fillColor=none;align=left;verticalAlign=middle;spacingTop=-1;spacingLeft=3;spacingRight=3;rotatable=0;labelPosition=right;points=[];portConstraint=eastwest;" parent="eOnlVwyT8FNw87Wj_yG8-52" vertex="1">
          <mxGeometry y="26" width="230" height="8" as="geometry" />
        </mxCell>
        <mxCell id="eOnlVwyT8FNw87Wj_yG8-54" value="+ createSendMessageRequest(context)" style="text;strokeColor=none;fillColor=none;align=left;verticalAlign=top;spacingLeft=4;spacingRight=4;overflow=hidden;rotatable=0;points=[[0,0.5],[1,0.5]];portConstraint=eastwest;" parent="eOnlVwyT8FNw87Wj_yG8-52" vertex="1">
          <mxGeometry y="34" width="230" height="26" as="geometry" />
        </mxCell>
        <mxCell id="eOnlVwyT8FNw87Wj_yG8-55" value="Extends" style="endArrow=block;endSize=16;endFill=0;html=1;exitX=0.5;exitY=0;exitDx=0;exitDy=0;" parent="eOnlVwyT8FNw87Wj_yG8-1" source="eOnlVwyT8FNw87Wj_yG8-46" edge="1">
          <mxGeometry width="160" relative="1" as="geometry">
            <mxPoint x="363" y="650" as="sourcePoint" />
            <mxPoint x="629" y="714" as="targetPoint" />
            <Array as="points">
              <mxPoint x="485" y="750" />
              <mxPoint x="629" y="750" />
            </Array>
          </mxGeometry>
        </mxCell>
        <mxCell id="eOnlVwyT8FNw87Wj_yG8-56" value="Extends" style="endArrow=block;endSize=16;endFill=0;html=1;exitX=0.5;exitY=0;exitDx=0;exitDy=0;" parent="eOnlVwyT8FNw87Wj_yG8-1" source="eOnlVwyT8FNw87Wj_yG8-52" edge="1">
          <mxGeometry width="160" relative="1" as="geometry">
            <mxPoint x="653" y="770" as="sourcePoint" />
            <mxPoint x="628" y="713" as="targetPoint" />
            <Array as="points">
              <mxPoint x="745" y="750" />
              <mxPoint x="628" y="750" />
            </Array>
          </mxGeometry>
        </mxCell>
        <mxCell id="eOnlVwyT8FNw87Wj_yG8-61" value="Extends" style="endArrow=block;endSize=16;endFill=0;html=1;" parent="eOnlVwyT8FNw87Wj_yG8-1" edge="1">
          <mxGeometry x="0.3176" width="160" relative="1" as="geometry">
            <mxPoint x="1234" y="560" as="sourcePoint" />
            <mxPoint x="1234" y="393" as="targetPoint" />
            <Array as="points">
              <mxPoint x="1234" y="440" />
            </Array>
            <mxPoint as="offset" />
          </mxGeometry>
        </mxCell>
        <mxCell id="eOnlVwyT8FNw87Wj_yG8-62" value="Extends" style="endArrow=block;endSize=16;endFill=0;html=1;exitX=0.75;exitY=0;exitDx=0;exitDy=0;entryX=0.476;entryY=0.962;entryDx=0;entryDy=0;entryPerimeter=0;" parent="eOnlVwyT8FNw87Wj_yG8-1" source="eOnlVwyT8FNw87Wj_yG8-38" target="eOnlVwyT8FNw87Wj_yG8-12" edge="1">
          <mxGeometry width="160" relative="1" as="geometry">
            <mxPoint x="560" y="490" as="sourcePoint" />
            <mxPoint x="720" y="490" as="targetPoint" />
            <Array as="points">
              <mxPoint x="686" y="450" />
              <mxPoint x="1150" y="450" />
            </Array>
          </mxGeometry>
        </mxCell>
        <mxCell id="9SwfE7ggm8t2WLi_x1ih-8" value="" style="group" parent="eOnlVwyT8FNw87Wj_yG8-1" vertex="1" connectable="0">
          <mxGeometry x="510" y="220" width="460" height="121" as="geometry" />
        </mxCell>
        <mxCell id="9SwfE7ggm8t2WLi_x1ih-9" value="«interface»&lt;br&gt;&lt;b&gt;AWSClientSDK1&lt;br&gt;&lt;br&gt;&lt;br&gt;&lt;br&gt;&lt;br&gt;&lt;br&gt;&lt;br&gt;&lt;/b&gt;" style="html=1;" parent="9SwfE7ggm8t2WLi_x1ih-8" vertex="1">
          <mxGeometry width="459.99999999999994" height="121" as="geometry" />
        </mxCell>
        <mxCell id="9SwfE7ggm8t2WLi_x1ih-10" value="" style="line;strokeWidth=1;fillColor=none;align=left;verticalAlign=middle;spacingTop=-1;spacingLeft=3;spacingRight=3;rotatable=0;labelPosition=right;points=[];portConstraint=eastwest;" parent="9SwfE7ggm8t2WLi_x1ih-8" vertex="1">
          <mxGeometry y="34" width="459.99999999999994" height="8" as="geometry" />
        </mxCell>
        <mxCell id="9SwfE7ggm8t2WLi_x1ih-11" value="+ buildSessionAWSCredentials(credentials, sessionToken): AWSCredentialProvider" style="text;strokeColor=none;fillColor=none;align=left;verticalAlign=top;spacingLeft=4;spacingRight=4;overflow=hidden;rotatable=0;points=[[0,0.5],[1,0.5]];portConstraint=eastwest;" parent="9SwfE7ggm8t2WLi_x1ih-8" vertex="1">
          <mxGeometry y="63" width="459.99999999999994" height="26" as="geometry" />
        </mxCell>
        <mxCell id="9SwfE7ggm8t2WLi_x1ih-12" value="+ getAWSCredentials(credentials): AWSCredentialsProvider" style="text;strokeColor=none;fillColor=none;align=left;verticalAlign=top;spacingLeft=4;spacingRight=4;overflow=hidden;rotatable=0;points=[[0,0.5],[1,0.5]];portConstraint=eastwest;" parent="9SwfE7ggm8t2WLi_x1ih-8" vertex="1">
          <mxGeometry y="34" width="459.99999999999994" height="26" as="geometry" />
        </mxCell>
        <mxCell id="9SwfE7ggm8t2WLi_x1ih-13" value="+ buildBasicAWSCredentials(credentials): AWSCredentialsProvider" style="text;strokeColor=none;fillColor=none;align=left;verticalAlign=top;spacingLeft=4;spacingRight=4;overflow=hidden;rotatable=0;points=[[0,0.5],[1,0.5]];portConstraint=eastwest;" parent="9SwfE7ggm8t2WLi_x1ih-8" vertex="1">
          <mxGeometry y="95" width="459.99999999999994" height="26" as="geometry" />
        </mxCell>
        <mxCell id="9SwfE7ggm8t2WLi_x1ih-14" value="" style="group" parent="eOnlVwyT8FNw87Wj_yG8-1" vertex="1" connectable="0">
          <mxGeometry x="10" y="220" width="460" height="121" as="geometry" />
        </mxCell>
        <mxCell id="9SwfE7ggm8t2WLi_x1ih-15" value="«interface»&lt;br&gt;&lt;b&gt;AWSClientSDK2&lt;br&gt;&lt;br&gt;&lt;br&gt;&lt;br&gt;&lt;br&gt;&lt;br&gt;&lt;br&gt;&lt;/b&gt;" style="html=1;" parent="9SwfE7ggm8t2WLi_x1ih-14" vertex="1">
          <mxGeometry width="459.99999999999994" height="121" as="geometry" />
        </mxCell>
        <mxCell id="9SwfE7ggm8t2WLi_x1ih-16" value="" style="line;strokeWidth=1;fillColor=none;align=left;verticalAlign=middle;spacingTop=-1;spacingLeft=3;spacingRight=3;rotatable=0;labelPosition=right;points=[];portConstraint=eastwest;" parent="9SwfE7ggm8t2WLi_x1ih-14" vertex="1">
          <mxGeometry y="34" width="459.99999999999994" height="8" as="geometry" />
        </mxCell>
        <mxCell id="9SwfE7ggm8t2WLi_x1ih-17" value="+ buildAWSSessionCredentials(credentials, sessionToken): StaticCredentialsProvider" style="text;strokeColor=none;fillColor=none;align=left;verticalAlign=top;spacingLeft=4;spacingRight=4;overflow=hidden;rotatable=0;points=[[0,0.5],[1,0.5]];portConstraint=eastwest;" parent="9SwfE7ggm8t2WLi_x1ih-14" vertex="1">
          <mxGeometry y="63" width="459.99999999999994" height="26" as="geometry" />
        </mxCell>
        <mxCell id="9SwfE7ggm8t2WLi_x1ih-18" value="+ awsCredentialsProvider(credentials): AwsCredentialsProvider" style="text;strokeColor=none;fillColor=none;align=left;verticalAlign=top;spacingLeft=4;spacingRight=4;overflow=hidden;rotatable=0;points=[[0,0.5],[1,0.5]];portConstraint=eastwest;" parent="9SwfE7ggm8t2WLi_x1ih-14" vertex="1">
          <mxGeometry y="34" width="459.99999999999994" height="26" as="geometry" />
        </mxCell>
        <mxCell id="9SwfE7ggm8t2WLi_x1ih-19" value="+ buildAWSBasicCredentials(credentials): StaticCredentialsProvider" style="text;strokeColor=none;fillColor=none;align=left;verticalAlign=top;spacingLeft=4;spacingRight=4;overflow=hidden;rotatable=0;points=[[0,0.5],[1,0.5]];portConstraint=eastwest;" parent="9SwfE7ggm8t2WLi_x1ih-14" vertex="1">
          <mxGeometry y="95" width="459.99999999999994" height="26" as="geometry" />
        </mxCell>
        <mxCell id="9SwfE7ggm8t2WLi_x1ih-20" value="" style="endArrow=block;dashed=1;endFill=0;endSize=12;html=1;exitX=0.5;exitY=0;exitDx=0;exitDy=0;entryX=0.48;entryY=0.994;entryDx=0;entryDy=0;entryPerimeter=0;" parent="eOnlVwyT8FNw87Wj_yG8-1" source="eOnlVwyT8FNw87Wj_yG8-9" target="eOnlVwyT8FNw87Wj_yG8-32" edge="1">
          <mxGeometry width="160" relative="1" as="geometry">
            <mxPoint x="455" y="220" as="sourcePoint" />
            <mxPoint x="749.8194444444443" y="101" as="targetPoint" />
            <Array as="points">
              <mxPoint x="1154" y="150" />
            </Array>
          </mxGeometry>
        </mxCell>
        <mxCell id="9SwfE7ggm8t2WLi_x1ih-21" value="implements" style="edgeLabel;html=1;align=center;verticalAlign=middle;resizable=0;points=[];" parent="9SwfE7ggm8t2WLi_x1ih-20" vertex="1" connectable="0">
          <mxGeometry x="0.6191" y="-3" relative="1" as="geometry">
            <mxPoint x="-2.0199999999999996" y="19.05" as="offset" />
          </mxGeometry>
        </mxCell>
        <mxCell id="9SwfE7ggm8t2WLi_x1ih-22" value="Extends" style="endArrow=block;endSize=16;endFill=0;html=1;exitX=0.5;exitY=0;exitDx=0;exitDy=0;" parent="eOnlVwyT8FNw87Wj_yG8-1" source="9SwfE7ggm8t2WLi_x1ih-15" edge="1">
          <mxGeometry width="160" relative="1" as="geometry">
            <mxPoint x="240" y="210" as="sourcePoint" />
            <mxPoint x="490" y="120" as="targetPoint" />
            <Array as="points">
              <mxPoint x="240" y="190" />
              <mxPoint x="490" y="190" />
            </Array>
          </mxGeometry>
        </mxCell>
        <mxCell id="9SwfE7ggm8t2WLi_x1ih-23" value="Extends" style="endArrow=block;endSize=16;endFill=0;html=1;exitX=0.5;exitY=0;exitDx=0;exitDy=0;" parent="eOnlVwyT8FNw87Wj_yG8-1" source="9SwfE7ggm8t2WLi_x1ih-9" edge="1">
          <mxGeometry width="160" relative="1" as="geometry">
            <mxPoint x="740" y="200" as="sourcePoint" />
            <mxPoint x="490" y="120" as="targetPoint" />
            <Array as="points">
              <mxPoint x="740" y="190" />
              <mxPoint x="490" y="190" />
            </Array>
          </mxGeometry>
        </mxCell>
        <mxCell id="9SwfE7ggm8t2WLi_x1ih-24" value="SNSProducerSampler" style="swimlane;fontStyle=1;align=center;verticalAlign=top;childLayout=stackLayout;horizontal=1;startSize=26;horizontalStack=0;resizeParent=1;resizeParentMax=0;resizeLast=0;collapsible=1;marginBottom=0;" parent="eOnlVwyT8FNw87Wj_yG8-1" vertex="1">
          <mxGeometry x="1050" y="560" width="250" height="190" as="geometry" />
        </mxCell>
        <mxCell id="9SwfE7ggm8t2WLi_x1ih-25" value="+ AmazonSNS snsClient" style="text;strokeColor=none;fillColor=none;align=left;verticalAlign=top;spacingLeft=4;spacingRight=4;overflow=hidden;rotatable=0;points=[[0,0.5],[1,0.5]];portConstraint=eastwest;" parent="9SwfE7ggm8t2WLi_x1ih-24" vertex="1">
          <mxGeometry y="26" width="250" height="26" as="geometry" />
        </mxCell>
        <mxCell id="9SwfE7ggm8t2WLi_x1ih-26" value="" style="line;strokeWidth=1;fillColor=none;align=left;verticalAlign=middle;spacingTop=-1;spacingLeft=3;spacingRight=3;rotatable=0;labelPosition=right;points=[];portConstraint=eastwest;" parent="9SwfE7ggm8t2WLi_x1ih-24" vertex="1">
          <mxGeometry y="52" width="250" height="8" as="geometry" />
        </mxCell>
        <mxCell id="9SwfE7ggm8t2WLi_x1ih-27" value="+ buildMessageAttributes(msgAttributes)" style="text;strokeColor=none;fillColor=none;align=left;verticalAlign=top;spacingLeft=4;spacingRight=4;overflow=hidden;rotatable=0;points=[[0,0.5],[1,0.5]];portConstraint=eastwest;" parent="9SwfE7ggm8t2WLi_x1ih-24" vertex="1">
          <mxGeometry y="60" width="250" height="26" as="geometry" />
        </mxCell>
        <mxCell id="9SwfE7ggm8t2WLi_x1ih-39" value="+ buildMsgAttributesStr(msgAttributes)" style="text;strokeColor=none;fillColor=none;align=left;verticalAlign=top;spacingLeft=4;spacingRight=4;overflow=hidden;rotatable=0;points=[[0,0.5],[1,0.5]];portConstraint=eastwest;" parent="9SwfE7ggm8t2WLi_x1ih-24" vertex="1">
          <mxGeometry y="86" width="250" height="26" as="geometry" />
        </mxCell>
        <mxCell id="9SwfE7ggm8t2WLi_x1ih-28" value="+ buildMsgAttributesStrArray(msgAttributes)" style="text;strokeColor=none;fillColor=none;align=left;verticalAlign=top;spacingLeft=4;spacingRight=4;overflow=hidden;rotatable=0;points=[[0,0.5],[1,0.5]];portConstraint=eastwest;" parent="9SwfE7ggm8t2WLi_x1ih-24" vertex="1">
          <mxGeometry y="112" width="250" height="26" as="geometry" />
        </mxCell>
        <mxCell id="9SwfE7ggm8t2WLi_x1ih-29" value="+ buildMsgAttributeNum(msgAttributes)" style="text;strokeColor=none;fillColor=none;align=left;verticalAlign=top;spacingLeft=4;spacingRight=4;overflow=hidden;rotatable=0;points=[[0,0.5],[1,0.5]];portConstraint=eastwest;" parent="9SwfE7ggm8t2WLi_x1ih-24" vertex="1">
          <mxGeometry y="138" width="250" height="26" as="geometry" />
        </mxCell>
        <mxCell id="9SwfE7ggm8t2WLi_x1ih-30" value="+ buildMsgAttributesBin(msgAttributes)" style="text;strokeColor=none;fillColor=none;align=left;verticalAlign=top;spacingLeft=4;spacingRight=4;overflow=hidden;rotatable=0;points=[[0,0.5],[1,0.5]];portConstraint=eastwest;" parent="9SwfE7ggm8t2WLi_x1ih-24" vertex="1">
          <mxGeometry y="164" width="250" height="26" as="geometry" />
        </mxCell>
        <mxCell id="9SwfE7ggm8t2WLi_x1ih-31" value="SNSProducerFifoTopic" style="swimlane;fontStyle=1;align=center;verticalAlign=top;childLayout=stackLayout;horizontal=1;startSize=26;horizontalStack=0;resizeParent=1;resizeParentMax=0;resizeLast=0;collapsible=1;marginBottom=0;" parent="eOnlVwyT8FNw87Wj_yG8-1" vertex="1">
          <mxGeometry x="910" y="836" width="230" height="60" as="geometry" />
        </mxCell>
        <mxCell id="9SwfE7ggm8t2WLi_x1ih-32" value="" style="line;strokeWidth=1;fillColor=none;align=left;verticalAlign=middle;spacingTop=-1;spacingLeft=3;spacingRight=3;rotatable=0;labelPosition=right;points=[];portConstraint=eastwest;" parent="9SwfE7ggm8t2WLi_x1ih-31" vertex="1">
          <mxGeometry y="26" width="230" height="8" as="geometry" />
        </mxCell>
        <mxCell id="9SwfE7ggm8t2WLi_x1ih-33" value="+ createPublishRequest(context)" style="text;strokeColor=none;fillColor=none;align=left;verticalAlign=top;spacingLeft=4;spacingRight=4;overflow=hidden;rotatable=0;points=[[0,0.5],[1,0.5]];portConstraint=eastwest;" parent="9SwfE7ggm8t2WLi_x1ih-31" vertex="1">
          <mxGeometry y="34" width="230" height="26" as="geometry" />
        </mxCell>
        <mxCell id="9SwfE7ggm8t2WLi_x1ih-34" value="SNSProducerStandardTopic" style="swimlane;fontStyle=1;align=center;verticalAlign=top;childLayout=stackLayout;horizontal=1;startSize=26;horizontalStack=0;resizeParent=1;resizeParentMax=0;resizeLast=0;collapsible=1;marginBottom=0;" parent="eOnlVwyT8FNw87Wj_yG8-1" vertex="1">
          <mxGeometry x="1170" y="836" width="230" height="60" as="geometry" />
        </mxCell>
        <mxCell id="9SwfE7ggm8t2WLi_x1ih-35" value="" style="line;strokeWidth=1;fillColor=none;align=left;verticalAlign=middle;spacingTop=-1;spacingLeft=3;spacingRight=3;rotatable=0;labelPosition=right;points=[];portConstraint=eastwest;" parent="9SwfE7ggm8t2WLi_x1ih-34" vertex="1">
          <mxGeometry y="26" width="230" height="8" as="geometry" />
        </mxCell>
        <mxCell id="9SwfE7ggm8t2WLi_x1ih-36" value="+ createPublishRequest(context)" style="text;strokeColor=none;fillColor=none;align=left;verticalAlign=top;spacingLeft=4;spacingRight=4;overflow=hidden;rotatable=0;points=[[0,0.5],[1,0.5]];portConstraint=eastwest;" parent="9SwfE7ggm8t2WLi_x1ih-34" vertex="1">
          <mxGeometry y="34" width="230" height="26" as="geometry" />
        </mxCell>
        <mxCell id="9SwfE7ggm8t2WLi_x1ih-37" value="Extends" style="endArrow=block;endSize=16;endFill=0;html=1;exitX=0.5;exitY=0;exitDx=0;exitDy=0;" parent="eOnlVwyT8FNw87Wj_yG8-1" source="9SwfE7ggm8t2WLi_x1ih-31" edge="1">
          <mxGeometry width="160" relative="1" as="geometry">
            <mxPoint x="903" y="686" as="sourcePoint" />
            <mxPoint x="1169" y="750" as="targetPoint" />
            <Array as="points">
              <mxPoint x="1025" y="786" />
              <mxPoint x="1169" y="786" />
            </Array>
          </mxGeometry>
        </mxCell>
        <mxCell id="9SwfE7ggm8t2WLi_x1ih-38" value="Extends" style="endArrow=block;endSize=16;endFill=0;html=1;exitX=0.5;exitY=0;exitDx=0;exitDy=0;" parent="eOnlVwyT8FNw87Wj_yG8-1" source="9SwfE7ggm8t2WLi_x1ih-34" edge="1">
          <mxGeometry width="160" relative="1" as="geometry">
            <mxPoint x="1193" y="806" as="sourcePoint" />
            <mxPoint x="1168" y="749" as="targetPoint" />
            <Array as="points">
              <mxPoint x="1285" y="786" />
              <mxPoint x="1168" y="786" />
            </Array>
          </mxGeometry>
        </mxCell>
        <mxCell id="0yIvH5I19NEeNWd7O7n7-1" value="" style="endArrow=block;dashed=1;endFill=0;endSize=12;html=1;exitX=0.25;exitY=0;exitDx=0;exitDy=0;entryX=0.148;entryY=1.077;entryDx=0;entryDy=0;entryPerimeter=0;" edge="1" parent="eOnlVwyT8FNw87Wj_yG8-1" source="eOnlVwyT8FNw87Wj_yG8-33" target="9SwfE7ggm8t2WLi_x1ih-19">
          <mxGeometry width="160" relative="1" as="geometry">
            <mxPoint x="620" y="410" as="sourcePoint" />
            <mxPoint x="780" y="410" as="targetPoint" />
          </mxGeometry>
        </mxCell>
        <mxCell id="0yIvH5I19NEeNWd7O7n7-4" value="Implements" style="edgeLabel;html=1;align=center;verticalAlign=middle;resizable=0;points=[];" vertex="1" connectable="0" parent="0yIvH5I19NEeNWd7O7n7-1">
          <mxGeometry x="0.6039" relative="1" as="geometry">
            <mxPoint as="offset" />
          </mxGeometry>
        </mxCell>
        <mxCell id="0yIvH5I19NEeNWd7O7n7-2" value="" style="endArrow=block;dashed=1;endFill=0;endSize=12;html=1;exitX=0.5;exitY=0;exitDx=0;exitDy=0;entryX=0.563;entryY=1.115;entryDx=0;entryDy=0;entryPerimeter=0;" edge="1" parent="eOnlVwyT8FNw87Wj_yG8-1" source="eOnlVwyT8FNw87Wj_yG8-38" target="9SwfE7ggm8t2WLi_x1ih-19">
          <mxGeometry width="160" relative="1" as="geometry">
            <mxPoint x="440" y="410" as="sourcePoint" />
            <mxPoint x="600" y="410" as="targetPoint" />
            <Array as="points">
              <mxPoint x="628" y="490" />
              <mxPoint x="269" y="490" />
            </Array>
          </mxGeometry>
        </mxCell>
        <mxCell id="0yIvH5I19NEeNWd7O7n7-5" value="Implements" style="edgeLabel;html=1;align=center;verticalAlign=middle;resizable=0;points=[];" vertex="1" connectable="0" parent="0yIvH5I19NEeNWd7O7n7-2">
          <mxGeometry x="0.8584" relative="1" as="geometry">
            <mxPoint as="offset" />
          </mxGeometry>
        </mxCell>
        <mxCell id="0yIvH5I19NEeNWd7O7n7-3" value="" style="endArrow=block;dashed=1;endFill=0;endSize=12;html=1;exitX=0.25;exitY=0;exitDx=0;exitDy=0;entryX=0.483;entryY=1.038;entryDx=0;entryDy=0;entryPerimeter=0;" edge="1" parent="eOnlVwyT8FNw87Wj_yG8-1" source="9SwfE7ggm8t2WLi_x1ih-24" target="9SwfE7ggm8t2WLi_x1ih-13">
          <mxGeometry width="160" relative="1" as="geometry">
            <mxPoint x="440" y="410" as="sourcePoint" />
            <mxPoint x="600" y="410" as="targetPoint" />
            <Array as="points">
              <mxPoint x="1113" y="490" />
              <mxPoint x="732" y="490" />
            </Array>
          </mxGeometry>
        </mxCell>
        <mxCell id="0yIvH5I19NEeNWd7O7n7-6" value="Implements" style="edgeLabel;html=1;align=center;verticalAlign=middle;resizable=0;points=[];" vertex="1" connectable="0" parent="0yIvH5I19NEeNWd7O7n7-3">
          <mxGeometry x="0.8864" y="-1" relative="1" as="geometry">
            <mxPoint as="offset" />
          </mxGeometry>
        </mxCell>
      </root>
    </mxGraphModel>
  </diagram>
</mxfile>
